<?xml version="1.0" encoding="utf-8"?>

<svg version="1.1" id="Layer_1" xmlns="http://www.w3.org/2000/svg" xmlns:xlink="http://www.w3.org/1999/xlink" x="0px" y="0px"
	 viewBox="0 0 423.6 381.8" style="enable-background:new 0 0 423.6 381.8;" xml:space="preserve">
<style type="text/css">
	.st0{fill:#FFFFFF;}
</style>
<title>ico-bio-haz</title>
<g>
	<path class="st0" d="M277.2,133.1c-1.2,10.6-12.7,11-17.7,17.7c-21.9-19.9-73.5-19.9-95.4,0c-5.1-6.8-16.5-7.1-17.8-17.7
		C173.8,102.1,249.9,101.9,277.2,133.1z"/>
	<path class="st0" d="M115.3,186.3c10,1.1,15.1,7.1,24.4,8.9c-2.9,45,16,68.2,46.6,79.8c-0.4,10-1.8,18.9-4.4,26.6
		C138.1,286,105.8,247.8,115.3,186.3z"/>
	<path class="st0" d="M241.7,301.6c-2.7-7.6-4.1-16.6-4.4-26.6c30.6-11.6,49.4-34.9,46.6-79.8c8.6-0.4,17.7-11.7,24.4-6.7
		C317.5,248.9,285,286.4,241.7,301.6z"/>
	<path class="st0" d="M144.2,0c-51.6,46.3-26.2,170.9,62.1,166.3c-1.2,27.6-12.6,45.1-31,55.4C137.7,157.3,6.1,173.4,0,255
		c2.5-58.8,40.6-101.3,99.8-110.8C78.6,83.6,106.7,23.2,144.2,0z"/>
	<path class="st0" d="M277.2,2.2c37.7,14.7,70.1,83.6,46.6,139.7c54.5,14.3,92.4,45.1,99.8,106.4c-11.2-72.9-141.2-93-173-24.4
		c-19.4-10.9-32-28.7-33.3-57.7C300.9,170.6,336.8,50.2,277.2,2.2z"/>
	<path class="st0" d="M179.6,230.6c21-9.3,43-8,64.3,0c-31.9,81.1,27.9,159.4,113.1,137.5c-34.5,24.5-90.5,11.7-119.8-8.9
		c-7.5-5.3-24.4-22.2-24.4-22.2c-1.2,0-19,16.8-26.6,22.2c-25.5,17.9-77.8,34.3-115.3,11.1c-7.7-3.5,16.9,2.4,24.4,2.2
		C160,371.1,210.7,303.8,179.6,230.6z"/>
</g>
</svg>
