<svg xmlns="http://www.w3.org/2000/svg" viewBox="0 0 989.07 475.39">
  <defs>
    <style>
      .cls-1 {
        fill: #afe224;
      }
    </style>
  </defs>
  <title>logo-extrapolate</title>
  <g id="Layer_2" data-name="Layer 2">
    <g id="Layer_1-2" data-name="Layer 1">
      <g>
        <path class="cls-1" d="M886.49,106.68c.15-.38,98.12-48.16,101.84-52a1.88,1.88,0,0,0,.7-1.87A24.8,24.8,0,0,1,985.3,55c-1.86,1-99.13,47.44-99.75,48a47.33,47.33,0,0,0-8.61,7.71q-.47.6-2.79,2.91c-1.33,1.37-2.5,2.58-3.58,3.71-5.16-4.61-9.5-8.3-10.29-8.6l9,9.94q-5.71,6-6.07,6.55a11.83,11.83,0,0,0-1.63,3.61c.16-.38-.44-9.19-5.25-2.67a25.79,25.79,0,0,1-7.44,6.64l-.7.47-.24.21-5.58,2.29a8.26,8.26,0,0,1-7.69-1.24l-1.4-.84a9.84,9.84,0,0,0-1.17-.87c-.77-.51-7.8-.82-16.54,0l-4.49-3.24c-.07,0-.13,0-.19-.06.51.45,1.2,1,2.07,1.75s1.34,1.15,1.86,1.63c-3.13.3-6.44.75-9.77,1.38a3.49,3.49,0,0,1-.12-.54,13.47,13.47,0,0,1-6.75-1.43l-34.35-3.08a5.82,5.82,0,0,0-1.11-1c-.8-.53-35.69-10.65-36.45-11.55a4.14,4.14,0,0,1-1.61-2.22c-.09-.19-.2-.33-.3-.5.55-.55.86-1,.76-1.11a7.94,7.94,0,0,0-.85,1,4.44,4.44,0,0,0-1-1.16c14,0,41.06,2.31,39.6,1.66-.57-.25-32.77-4.93-33.19-4.86.26-1,.51-2,.76-3-2.47,0-4.81,0-7,0,.79-2.32,1.2-3.4,1.24-3.2,0-.44-.14-1.24-.3-2.37a11.56,11.56,0,0,1,.11-3q.82-5.64.88-6c0-.38-2,3.05-2.84,4.42a52.57,52.57,0,0,0,3.54-9.2c.12-.32,26.48-17.9,46.66-31.68-20.15,12.13-47.15,28.41-47.76,29.36l-7.54,12.21c-3.64,4.46-.16-2.24.18-2.41a2.48,2.48,0,0,1-1.14.16,1.35,1.35,0,0,0-1,.36,10.73,10.73,0,0,0-.64,2.23,13.91,13.91,0,0,1-.9,2.86,7.28,7.28,0,0,0-.74,2.89,8.56,8.56,0,0,1-.25,2.79,19.1,19.1,0,0,1-1,2.81,1.77,1.77,0,0,0-.36-.41c-.19.18-.33.36-.5.54l-1.27-.06a2.23,2.23,0,0,1,.8.56c-.21.25-.4.51-.58.77.08-.3.07-.34-.15.06-.09.18-.15.35-.25.53l-.2.3c-.15.29-.22.51-.34.77a16,16,0,0,0-1.49-1.28,21,21,0,0,1-1.8-1.86,17.39,17.39,0,0,0-4.13-3.62q-3.85-2.81-3.74-4.33c.08-2.17,1-3.55,2.69-4.14a26.39,26.39,0,0,0-4.12-3.62A21.44,21.44,0,0,1,692.14,89a30.7,30.7,0,0,0-9.93-7.15c-2-1-2.43-13.21-6.93-13,1.18.49.76,13.77,4.39,16q.66.51,8.72,11.57a4.05,4.05,0,0,1,.48,4.33c-.59,1.69-.81,2.81-.63,3.35l1.68-1.82a3.82,3.82,0,0,1,1.11-.77,2.25,2.25,0,0,1,.83,1.5,4,4,0,0,1-.61,2h0q-1,1.93-2.42.15-1.4,1.31-1.69,6.64c0,.39,1.8-2.62,3.4-5.46l-.07.12c-.86,1.91-2.37,4.86-4.5,8.84l-.82,1.75-.43-2.09c-.11-.66-.38-1-.8-1.11a5.46,5.46,0,0,0-.5,1.71c.5.79,1,1.58,1.38,2.24l-.9,2-.31.1c0,.13,0,.27.07.41l-.32.7c.14,0,.31,0,.45,0s0,.24.07.38c.2,1.2.5.71.72-.14a4.46,4.46,0,0,1,2,1.21,12.19,12.19,0,0,0,3.15,1.52c-.07.12.78.72,2.53,1.8,1.35,1.11,2,1.84,2,2.23a33.77,33.77,0,0,0-1.44,3.66,2,2,0,0,0,.11,1.69l-.27.45-1.11.54a10.11,10.11,0,0,0-2.55,2.13c-.37.4,1.87.92,2.54,1.58l1.69-2.51.24-.14a8.22,8.22,0,0,0,.79-.55,4.37,4.37,0,0,1,.31.44,6.2,6.2,0,0,1,.15,1.52,9.28,9.28,0,0,1,.06,1.58,1.58,1.58,0,0,0,.25.19,4,4,0,0,1-.55,1.13l.74-1a44.21,44.21,0,0,0,7.76,2c-.55,2-1.17,3.81-1.84,5.57-.47.28-.86.5-1,.59a6.5,6.5,0,0,0,.88-.14v0l-.22.35c-3.73,2.61-8.15,4.77-6-2.37-2.61,7.26-.54,8.42,2.55,7.74l-5.06,7.86.7.83c.16-.34.3-.64.49-1,.74-1.44,3.65-2.37,3.92-2.77a3.34,3.34,0,0,1,2.33-1.66c.22,3.64-1.84,6.36-4.45,8.19l.51.61a7.55,7.55,0,0,1-1,1.36,4.07,4.07,0,0,1-.59.74,24.31,24.31,0,0,1-6.05,5.27q-2,1.55-6.92-2a8.06,8.06,0,0,1-1.81-1.54c-.08.34-.15.68-.22,1L664,146.39c-1.81,5.7,9.87,32.48,9.88,32.86.94,0,2.22.06,3.88.15,2.64.16,4,.25,4.12.27,1.25,1,.9,2.62-1,5s-3.51,3.21-4.69,2.48a8.94,8.94,0,0,1-2-2.32c.26,2.75.63,5.48,1,8.13a.93.93,0,0,1,1.27,0c.65.65.57,1.58-.25,2.79a6.42,6.42,0,0,1-.61.91c0,.36.37,4.18.77,8.71-.06.18-.11.32-.19.52a7.34,7.34,0,0,0-.39,1.6,13.82,13.82,0,0,0-.4,1.61,6.07,6.07,0,0,1-.65,1.23c-.68,4.38-1.38,8.76-2.14,13.15,2.7-.1,3-1.12,1,1.76q-1.38,1.78-2.08,7.68a9,9,0,0,1-.6,1.91,12.65,12.65,0,0,0-.69,2.56c0,.11.07.28.24.53a3.93,3.93,0,0,1-.08,1.65c-.14,1-.66,1.47-1.51,1.42l-.57,2.92,2.07.15c-.13,1.55-1.22,3.43-3.22,5.62-.46,2.25-1,4.51-1.42,6.76q-2.3,1.61-9.91,6.39c-.34.26-.75.57-1.23.9a4.31,4.31,0,0,1-1.23.91c-2.47,1.48-4.44,1.84-5.88,1.06-2.61-1.34-4-2.47-4.17-3.39-.11-.39.22-1.71,1-4l1.63-4.76q.95-3.27,1.56-5l3.41-9.91a3.61,3.61,0,0,1,.17-.4l-.84-.47c-1.64,4.85-4.11,12.1-7.45,21.8-.86,2.83-1.87,4.36-3,4.57a22.89,22.89,0,0,0-4,1.34c-.69-.12-1-1.5-.79-4.13a20.46,20.46,0,0,1,.85-4.06,31.94,31.94,0,0,0,1.34-4.95,14.42,14.42,0,0,0-.06-2,21,21,0,0,1,0-2.17q-.14.39-2,4.76a12.59,12.59,0,0,1-2.61,4.38,30.83,30.83,0,0,0-2.76,4.28,25.32,25.32,0,0,1-2.69,4.08,5.41,5.41,0,0,1-2.14,1.65h0a8.28,8.28,0,0,0,2.53-3.83c.24-1-.06-3.79-.53-6.93a55.22,55.22,0,0,0,1.15-5.78,8.45,8.45,0,0,1,2.32-.67,18.63,18.63,0,0,0,4.15-1.32,7.7,7.7,0,0,1,4.15-1.09c2.53-.15,3.91-.22,4.13-.21a12.53,12.53,0,0,1-1.47-1,7.66,7.66,0,0,0-1.32-1,14.6,14.6,0,0,0-4-.66,9.77,9.77,0,0,1-3.13-.83q-2.8-1.48-2.46-2.79a34.12,34.12,0,0,0,2.69-4c.67-1.29,2.17-1.79,4.48-1.52a8.35,8.35,0,0,0,4.16-1.09l-2.66-.15c-1.87-.1-2.92-.31-3.13-.62-.55-.61-.69-2.75-.44-6.41.13-2.05,1.31-1.79,3.43-4a4.42,4.42,0,0,1,1.17-1c.45-.42.84-.76,1.17-1,7.13-7.24,7.66-33.73,7-32.75,1.12-1.55,1.68-2.62,1.69-3.21-.78,0-1.88.49-3.33,1.58a3.58,3.58,0,0,1-3.51.72c.3-.38,1.1-3,2.43-8.05a29.61,29.61,0,0,0,.69-3.27,2.92,2.92,0,0,1,.18-1.31l3-2c1.56-1.09,2.55-1.62,3-1.6l.25-.09c-.51-15.41-1.7-35.68-2.47-51.35-.08.56-.15,1.12-.18,1.69,0,.29,0,.55-.07.82a1.34,1.34,0,0,1-.45-.65,9.29,9.29,0,0,1,.57-7.47,38.57,38.57,0,0,1,2.38-4,1.68,1.68,0,0,1-.85-.05,4,4,0,0,1,.3-1.44l-2.29-.31c-.11-2.14,1.1-3.61,2.91-4.77a4.33,4.33,0,0,1,.65-1.33c.12.26.22.51.31.76,5.24-2.78,15.89-3.93,15.57-9.52a7.13,7.13,0,0,1-.53-.6l-10.94-3.25c-.11-.15-.66-.77-1.64-1.85q-3.76-3.74-3.63-1.09c0,.3-14.38-21.14-12.65-18l2.76,5.44c2.81,5.45,9.27,21.53,9.16,21.37a4.45,4.45,0,0,1-.22,5.5q-6.71,8-6.87,8.44c-1.7,5.05-2.17,7.08-1.38,6.09-2.13,2.82-3.25,4.38-3.36,4.66a4.72,4.72,0,0,0,.64,2.47,8.68,8.68,0,0,1,1,2.91,16.13,16.13,0,0,1-.74,7.9c-1,3.18-6,13.39-6,14.86a8.28,8.28,0,0,0,.16,1.11A12.67,12.67,0,0,1,635,152c-1.65,0-4-.89-6.71-2.25h0c-.66-4-1.38-7.85-2.17-11.34-4.76-14.49-11-18.52-18.31-31.41-.1.22-.18.42-.3.64l-.64-2.29q-3.66-6.36-7.6-12.49c-.29,1.38-.55,3-.76,4.8a45.49,45.49,0,0,1-1.17,7.23,5,5,0,0,0-.74,1.38q-1-.69-3-4.48,1.05,1.72-4.93-15.5c-.93,1.38-1.27-1.8-1,0l1,8.58q4.27,20.18,3.6,24.18c-4.73-5.92-12.11-15-18.44-22.83a15.33,15.33,0,0,0-1.56-6.92c-.63.21-1.43-.09-2.41-1a22.4,22.4,0,0,1,0,3c-.65-.81-1.27-1.58-1.87-2.31a26.14,26.14,0,0,1-.71-2.7c.33.18.7.38,1.13.63a11,11,0,0,1,1.26-2.22c-1.15-2-2.37-3.87-3.62-5.72a13.56,13.56,0,0,0-.66-2.23,2.9,2.9,0,0,0-.44.71c-.68-.95-1.34-1.93-2-2.84a6.53,6.53,0,0,1-3.61,1.67,11.34,11.34,0,0,1-6.32-2.14Q549,72,549,69a5.08,5.08,0,0,1,3-4.68,2.93,2.93,0,0,1,1.12-.25,86.73,86.73,0,0,0-7.46-6.16,13.34,13.34,0,0,1,0,1.79c1.66,1.46,2.48,2.36,2.49,2.73-.88.44-1.51.52-1.92.26.1-.06-.17-.85-.84-2.44-.91.93-12.91,8.9-15.26,12-1.63,2,5.29-1.34,0,1.81-2.37,1.29-5.2,1.41-8.49.33l5.13-10.18c.36-.73.17-.82-.55-.27q-2.19,1.12-7.08,5.81-6.27,6.36-7.07,7.73-.27.82-1.08,3A19.35,19.35,0,0,0,509.94,83q0,.56-7.3,14.59-3,6.06-9.28,5-4.94-.78-8.27-6.24-7.77-13.65-14.36-15,0,.28,1.41,5.47,1.13,4.38-.77,6.59c-.19-.18-1.11-.81-2.76-1.9a22.33,22.33,0,0,1-3-3,28.23,28.23,0,0,0-3.31-3.27l-2.75-1.9a30.74,30.74,0,0,0-5.37-3.8c.53-2.94.83-4.33.9-4.12-.1-.43-.31-1.2-.63-2.3a11.41,11.41,0,0,1-.32-3V64.11a42.25,42.25,0,0,0-2.18,4.79,53,53,0,0,0,2.19-9.61c.07-.35,22.84-23.65,40-41.55C476.74,34,453.14,56.1,452.67,57.15L447,70.31c-3,4.94-.49-2.19-.17-2.41a2.46,2.46,0,0,1-1.11.33,1.34,1.34,0,0,0-.95.49,11.31,11.31,0,0,0-.32,2.31,3,3,0,0,1,0,.31,13.36,13.36,0,0,0-1.43-1c-1.43-.52-3.39-2.1-5.87-4.7l-.47-.46q-.83-.54-.27-.27l-.29-.28C435.37,64.13,357.68-.14,356.67,0c.65.73,79.43,67.46,82.74,72q.84,1.1,2.49,3a22.4,22.4,0,0,1,1.73,1.86V77a9,9,0,0,1,.16,2.8,20.64,20.64,0,0,1-3.33,9c-2.32,3.73-3.49,5.54-3.49,5.43a4.33,4.33,0,0,0-.94,2.14c-.32,1.42-2.17,3.68-5.55,6.75a5.84,5.84,0,0,0-1.11,1.81,13,13,0,0,1-1.11,2,77.84,77.84,0,0,1-6.18,5.52,12.79,12.79,0,0,1-1.62-1.33q-2.88-2.41-2.41-4.74a3.87,3.87,0,0,1,3.24-3,2.54,2.54,0,0,1,1,0A76.2,76.2,0,0,0,417,97.18a8.42,8.42,0,0,1-.29,1.37c1.16,1.45,1.7,2.31,1.65,2.59a1.86,1.86,0,0,1-1.65-.18c.1,0,0-.69-.31-2-.91.53-12.2,4.26-14.66,6.18-1.68,1.23,4.63,0-.28,1.39a9.69,9.69,0,0,1-7.14-1.43l5.91-6.78c.42-.49.28-.6-.42-.32a31,31,0,0,0-6.84,3,56.41,56.41,0,0,0-7.14,4.53q-.36.57-1.38,2.1a14.74,14.74,0,0,0-1.29,1.68q-.09.43-8.42,9.74-3.47,4-8.55,2a9.69,9.69,0,0,1-4.62-3.93c.31,0,.6,0,.93.06a2.93,2.93,0,0,0,.47.07c.71-.9,1.38-1.76,2-2.57a17.33,17.33,0,0,1,0-8.52q1.58-6.15.7-8.67c-.39.14-.67.59-.84,1.37L363.63,104q.25-1.17-1.28,3.24c-.59,1.65-1.22,2.37-1.87,2.16-.49-.12-.87-.79-1.14-2l-2.1-7.28c-1.53-4.38,2.21,4.38,1.62,2.28l-.56-1.6q.75,2.13,2.17-.09c.39.47-.67-1.93-1.79-3.72.06-.09.1-.18.17-.27a2.7,2.7,0,0,1,.93.77l1.33,1.92a9.32,9.32,0,0,0-.23-3.81,6.18,6.18,0,0,1,.86-5.05q8.38-13.68,9-14.33c3.49-3,10.94-19.12,12.06-19.82-4,.28-12.19,15.29-14.06,16.61a39.65,39.65,0,0,0-9.68,9.35,28.85,28.85,0,0,1-4.4,5A37.73,37.73,0,0,0,350.61,92c1.5.5,2.16,2,2,4.5q-.06,1.76-3.82,5.41c-1.77,1.62-7.94-8.84-8.88-7.37-.77,1-1.3,1.75-1.6,2.11-.46-.43-.95-.88-1.5-1.36l-.21-.21c.42-.1.65-.2.55-.28a2.22,2.22,0,0,0-.6.24,25.09,25.09,0,0,1-4-4.71,18.72,18.72,0,0,0-3.26-4c-1.12-.69-2.5-2.29-4.16-4.78l-.32-.44c-.4-.39-.46-.47-.18-.26l-.19-.27s-.22-.17-.51-.37l.09-.82-.3.57.06-8.41c-.17.91-.28,1.49-.33,1.77a20,20,0,0,1-.78,2.93c-.18,1-.34,2-.47,2.77C315,74.12,292.72,59.51,292,59.43c.24.39,10.91,8.12,20.27,15.37a9.89,9.89,0,0,1,0,1.72c0,.11,6.23,13,8.35,14.23a11.54,11.54,0,0,0-.23,1.83,7.24,7.24,0,0,0,.33,4c.23.64,1.15,1.48,2.78,2.51a2.36,2.36,0,0,0,1.63.32v0l-.43.37a2.5,2.5,0,0,0-.73,1.18,6.19,6.19,0,0,0-1.11,1.6,6.6,6.6,0,0,0-.67-1c-.11.18.13.62.57,1.19-.11.21-.22.39-.32.62a6.39,6.39,0,0,1-1.67,2.74,15.48,15.48,0,0,1-2.34,2.74,8.15,8.15,0,0,0-1.1,1.24l-28.79,6.73c1-2.15,1.92-4.43,2.84-6.68-2,.39-3.11,2-3.29,4.91,0,.67-.06,1.26-.09,1.9l-2,.46a13.23,13.23,0,0,1-4.66,2.17s0,0,0,0a2.58,2.58,0,0,0-1.42-.95,3.57,3.57,0,0,0-1-2.67c-.08-.08-.17-.12-.25-.2a9.75,9.75,0,0,0-.62,4,8.39,8.39,0,0,0,1.74.1c-.06.22-.09.42-.17.65-.18.46-.36.89-.55,1.3-1.13-.21-2.26-.38-3.38-.53a1.49,1.49,0,0,0,0-.79,7,7,0,0,0-2.35.52c-1.06-.1-2.09-.18-3.11-.24.6-.75,1.42-1.71,2.51-2.89q1.29-1.4,2-2.25l-.17.09-5.07,4.91,0-.58a1.75,1.75,0,0,1-.12.68c-6.31-.31-11.49.18-13.37.75-.16-.35-.26-.44-.25,0-.79.09-1.62.17-2.47.25.18.27.43.74.74,1.31l-1.21,1c-2.42,2.26-4.78,3-7.07,2.29l-4.81-2-.19-.22-.58-.46c-.21-.14-.39-.31-.59-.46a3,3,0,0,1-1.28,1.37l-1.53-1.56a.54.54,0,0,0-.17-.43,1.86,1.86,0,0,1-.25.61l-.46-1.82a5.17,5.17,0,0,0,.34.77,3.8,3.8,0,0,1,.83-1.22,19,19,0,0,1-2.94-4.12q-5.53-10.51-5.38-9.89a13.31,13.31,0,0,0-1.1-4q-.34-.85-8.7-12.22a35.72,35.72,0,0,1-2.23-3.06,35.66,35.66,0,0,0-7-8,13.67,13.67,0,0,0-3.12-2.31,16.49,16.49,0,0,1-3.14-2.11,2.17,2.17,0,0,0,.44,2.09c3,4.08,4.5,6.32,4.6,6.74a104.75,104.75,0,0,0,6.08,8.92q.75.88,3.58,11.38,2.54,9,2.29,11.89-2.81,1-7.45-2.88l-3.63-3.58c-1.53-1.63-2.7-2.49-3.52-2.55q.81,2.52,5,6.78,4.19,4.45,3.89,7.71l-2.41,0c.42.76.83,1.53,1.24,2.31a8.88,8.88,0,0,1,3.24,1.84.3.3,0,0,0,.21.19,4,4,0,0,1,.6.86c.9,1.71.56-.09,0-1.14,1.16-1,3-3.92,3.45-2.85.06-.06.11-.13.18-.19,1-1,2.43-.89,4.12.34q4.13,2.81,4.63,6.54c.68,3.34.89,4.87.64,4.57a17.59,17.59,0,0,1,2.19,3.47,2.47,2.47,0,0,1,.05,2c-4.42-.89-7.58-1.37-8.23-.76.22.81.44,1.63.65,2.43.29-.43,2-.34,4.49,0-3.21.74-7.79,1-9,4.7.59,2.12,1.14,4.24,1.66,6.38,1.93-3.84,3.71-5.89,5.32-6.12-.12-.22,1.4-3.09,3.17-4.78,1.26.2,2.69.46,4.25.75a8.37,8.37,0,0,1,.3.89l1.15,5.84a24.73,24.73,0,0,1,.14,3.09c.17,1.25.29,2.22.37,2.91l1.13,8.76c-2.25,2-4.52,4.05-6.75,6.08l.16.45q.63,1,1.37,5.81l1,6.19a3,3,0,0,1-1,1.39A29.07,29.07,0,0,0,231,187.4c-1.34,2.72-2.37,4.89-3.13,6.56-1.42-1-2.83-1.93-4.26-2.89a14.09,14.09,0,0,0-1.54-5.32c-.4.41-.73,1.65-1,3.64Q211,182.66,200.84,176a16.7,16.7,0,0,0,1.5,1.53l.73.71a1.28,1.28,0,0,1-.94.24q-4.57-.72-6.76-6.35a65.14,65.14,0,0,1-2.21-6.76,4.25,4.25,0,0,1-.65,1.32,4.29,4.29,0,0,1-1.17-1.53l-1.91,3.42c-2.13-1.38-2.69-4.37-2.53-8.1a6.83,6.83,0,0,1-.81-2,7.36,7.36,0,0,1,.95.05c1-10.39,6.1-25,.51-28.52a5.71,5.71,0,0,1-1,.4l-4.41,2a45.56,45.56,0,0,1-3.41-4.41,35.6,35.6,0,0,0-4.32-5.54q-11.88-9.51-10.05-7.82c-2.27-2.13-4.42-3.35-6.44-3.64l10,9.62c1.67,1.66,5.26,6.14,10.72,13.37l-2.15,1c-.22.06-1.19.48-2.92,1.26q-6.24,3.28-3.6,5c.29.22-13.39,16.44-9.12,16l4-.24h0q-6.36,4.71-5.32,4.66a2.1,2.1,0,0,1-.8-.15c.07-.34.13-1.93.17-4.8-.08-1-.25-2.83-.49-5.34s-.64-4.34-.75-5.53a38.54,38.54,0,0,0,0-4.78c-.08-.39,0-3.78.17-10.15.1-5.21.22-8.26.36-9.22a26.76,26.76,0,0,0-1.9,4.92,4.39,4.39,0,0,1-.54,1.42,8.57,8.57,0,0,0-.51,1,39.5,39.5,0,0,1,.09,4,42,42,0,0,1-1.66,11,47.66,47.66,0,0,0-1.17,12.4,4.93,4.93,0,0,1-1.49,3.86,4.08,4.08,0,0,1-3.91,1.4L145,160.8c-.17-.12-.3-.05-.38.22s-.11.47,0,1a8.18,8.18,0,0,0,2.5,2.85,11,11,0,0,1,3,2.7q-1.28.09-14.34,4.47a26.52,26.52,0,0,1-5.52.69,9.9,9.9,0,0,0-4.62,1q-4.27,2.61-5.73,1.7c-.17-.12-.94-.81-2.33-2.07a28.68,28.68,0,0,0-4.61-3.93C109.16,166.64,1.85,91,.74,90.06c-.45-.29-.74-.5-.74-.5-.81,3.22,103.92,80.16,104.24,83.32a12.28,12.28,0,0,1,2.36,3.3l.42-2c2,.3,3.06,1.23,3.11,2.82a2.57,2.57,0,0,1-2.78,2.74c-.8.17-1.25.06-1.33-.33,0-1.32,0-1.86.08-1.6a2,2,0,0,0-.28-.58c0,.17-.26.3-.77.39a59.77,59.77,0,0,0,1.88,6.4,7.31,7.31,0,0,1,1.42-2.55q3.24-2.55,4.19-1a5.16,5.16,0,0,1,.79,1.74,5.32,5.32,0,0,0,1.29,2.12,6.4,6.4,0,0,0,1.62,1.71,14.44,14.44,0,0,1,1.58,1.51c.75.88,1.35,2.78,1.83,5.67.33,2.9.77,4.66,1.33,5.3s.83.62.91.35.42-.36,1.08.14c.83.62.79,1.08-.12,1.4-1.33.34-2.07.84-2.21,1.51a6.12,6.12,0,0,0,.92,4.32l0-.19.7-1.63a1.61,1.61,0,0,1,1.87-.1,17.29,17.29,0,0,1,1.5,6.09L122.14,213a4.56,4.56,0,0,1-1.58-1.51l-.87.84a4.76,4.76,0,0,1-3.2,1.76,9.67,9.67,0,0,1-1.32,0,21.27,21.27,0,0,1-1.86,6.95c.51-.22,1.09-.45,1.76-.69q3.92-1.41,6.82,2.42c1.13,1.4,1.43,1.78.87,1.15a1.69,1.69,0,0,1,.33.57c.14,0,.31.12.5.38L127,229.2a4.27,4.27,0,0,0-1-2.54,4.48,4.48,0,0,1-1.25-1.92q-.63-3,2.82-.55a19.74,19.74,0,0,1,3.87,3.38c2,2,5.75.59,6.78,5.44q-1.83.3-4.2-2a1.63,1.63,0,0,0-.21,1c.22,1.06,1,.2,2.4,2.25.17.12.66,2.3,1.38,1.73,1.55,2,2.33.92,2.44,1.45a6.49,6.49,0,0,1-1.41,2.26,60.5,60.5,0,0,1,3,18.34,21.27,21.27,0,0,1-.25,2.8,8.68,8.68,0,0,0,0,2.78,27.17,27.17,0,0,1,0,3,84,84,0,0,0-.75,8.39,26.89,26.89,0,0,1,.21,7.95c-.25,2.8-.4,4.07-.46,3.81l-.87-.16c-1.15-4.69-23.45,4.11-24.35-.23,1.52,8.73,24.22,4.17,25.53,12.84l4.92,24.27c-.47.13-.91.24-1.35.34q1.57,11.13,3.17,22.28l2.63.42a26.81,26.81,0,0,1,1.2,4.71q2.63,12.39,2.37,14.19a3.88,3.88,0,0,1-2-1.68,8.62,8.62,0,0,1-2.16-4.26.93.93,0,0,0,0-.13c.36,2.43.73,4.85,1.11,7.29l.3.33a8.77,8.77,0,0,0,2.21,1.47,6.6,6.6,0,0,1,1.37.52c.86.75,1.53,3.64,2,8.65.31,4.1,65.33,97.74,65.33,97.74.16-1.2-63.53-93.86-64.08-95.82a12.45,12.45,0,0,1-.67-4.14,13.15,13.15,0,0,0-.12-4.57q-4.65-24-4.36-24.63a26,26,0,0,1,5.2,1c0-5.15,1.38-10,3-14.77-1.27-.73-2.31-1.33-3.11-1.82a156,156,0,0,1,.42-15.94c0-.73,0-2-.05-3.8a2.91,2.91,0,0,1,1.19.92c4.62,4.27,14.75-1.34,24.53-6.69l2.21,2.31c0,.14.29.39.79.76a12.3,12.3,0,0,1,.83.95,25.52,25.52,0,0,0,3.49,3.59c.34-.41.17-1.2-.5-2.36l-3.91-6.82c8.89-4.79,17-8.46,19.65-3.15a10.19,10.19,0,0,0-3.6-1.22c.08.39,1.48,2.05,4.2,4.95l.55.65a120.59,120.59,0,0,0,7.8,20.83,25.87,25.87,0,0,1,2.09-7.92c.14-.36.21-.67.33-1a5,5,0,0,1,1.36,2.13,111.31,111.31,0,0,1,6.73,28.89q1.78,16.41,4.07,20.27c.75-.26,18.22,8.93,24.23,12-6-3.26-23.23-13.28-23.48-14.47l-.33-1.58c-.14-.65-.27-1.24-.38-1.77a52.5,52.5,0,0,1-.75-6.53l-3-13.16c-.38-1.84-.79-4.07-1.2-6.7-.53-3.16-.91-5.33-1.16-6.51a144.8,144.8,0,0,1-2.4-14.89,113.75,113.75,0,0,1-7.4-12.7,1.94,1.94,0,0,1,1,1.17,11.91,11.91,0,0,0,2.8,5.14,31.52,31.52,0,0,0-.1-3.91,94.23,94.23,0,0,0-1.74-11q.14.66-.23-7.39a14.73,14.73,0,0,1,1-7c1.84-3.5,2.86-5.88,3.06-7.16.23-5.59.21-8-.08-7.14l1.62-3.68c1.17-5.75,2.72-9.07,4.62-10l8,10.6q4.4,7.51,7.41,12,.79,1.2,8.39,10.22l4.12,6.18,1.91,2.86c.86,1,1.71,1.31,2.54,1a2.81,2.81,0,0,0-.46-2.52c1-1.31,2.24-3.18,3.5-5.08-.08.72-.12,1.34-.14,1.9-.86,1.39-.44,3.45,2,6.17l-.29-.71a8,8,0,0,0,1.3-2,12.84,12.84,0,0,0,1.55,3.37c-1.17,1.9-2.84,4.57-5.05,8.08l8.12,7.68c-.38.79,4.55.05,10-.94a80.33,80.33,0,0,0,9.84,11.53,72.41,72.41,0,0,0,11.94,8.79,14.67,14.67,0,0,0,1.84,5.06,26.54,26.54,0,0,1,3.14,7.57c.9-2.92,1.73-5.82,2.45-8.69,4.35,2,7.41-5.17,3.13-8.11a8.34,8.34,0,0,1-1.21-1.05,75.93,75.93,0,0,0,.9-7.79,4.56,4.56,0,0,1,2.49-3.23,5.24,5.24,0,0,0,1.88,1,2.72,2.72,0,0,0,.27-1.61,10.89,10.89,0,0,1,2,0,4.52,4.52,0,0,0-.74,1.39,8,8,0,0,0,3.2-1.07c1.18.23,2.44.54,3.77.93q2.11,5.47,7.17,18.19c8.07,20.82,43.24,89.48,43.36,90.64.4-.31-2.76-6.26-2.85-6.9l-37.31-77.71q-3.78-11.46-4.29-16.69c0-.43,0-1,.05-1.75-.05-.55-.08-1-.08-1.48-.19-.91-.37-1.72-.53-2.45,2.22.8,4.5,1.69,6.79,2.55a14.84,14.84,0,0,1,2.5,4.26c3.69,10.56,29.65,51.4,30.85,52.72.77-.7-23.12-37.71-24.64-41.22l-5-14.38c1.32.48,2.63.93,3.9,1.34,3,6.55,6.21,13.35,6.45,13.46.4-.8-2.55-8.34-4.29-12.8,5.54,1.59,10.29,2.07,12.9-.29l3.06,2.32q1,1,7.81,7.92l1.19.89a10.17,10.17,0,0,1,.92.77c-.41-.35.16.06,1.68,1.19.21-1.49.43-3,.65-4.45-.5-.88-1.05-1.89-1.67-3,.18.17-1.11-1.84-3.81-6,2.29.71,4.34.93,5.29-1.2-1.05.34-8.81-6.62-11.8-8L359.52,309a12.3,12.3,0,0,1-.93-1.41,5.5,5.5,0,0,1-.6-1.1,32.93,32.93,0,0,1-2.27-4,24.94,24.94,0,0,0-2.07-4,12.58,12.58,0,0,0-1.29,2.6c-.3.4-.85.51-1.63.35q-1.65-.31-3.24-3c-.11-.17-.3-.38-.47-.59a3.64,3.64,0,0,1,.49-.79q2.31-3.21,8.18-2.52c.34.05.61,0,.94.07.43-1.32.86-2.63,1.31-3.94a9.07,9.07,0,0,1-1.37-.55q-3-1.8.43-4.53a13.48,13.48,0,0,0,1.21-1.26,4.3,4.3,0,0,1,1.21-1.26,8.41,8.41,0,0,1,1.79-1.27c2.53-6.2,5.45-11.88,9.24-16.33,3-6-8.39,5.75-16.67,11.41a36.53,36.53,0,0,1-2.59,5.39l-3.3,4.52a31.82,31.82,0,0,1-5.88,6.4,27.61,27.61,0,0,1-4.65-4.92q-2.21-3.78-2.21-4.43-.21-1.87,2.59-3.27a14.35,14.35,0,0,0,3.22-2.51c-.73-.86-1.44-1.72-2.12-2.6a5.81,5.81,0,0,1-2.71,1.77c-1.56.54-2.53.29-2.89-.74a1.33,1.33,0,0,1-.11-.5c.69-1.23,1.34-1.75,1.95-1.49s1.06,0,1.71-.91c.19,0,.38-.1.56-.12-.09-.12-.16-.24-.24-.35a11.44,11.44,0,0,0,.62-1.09q.27-.16,3.51-3.16c1.08,1,1.62,3.9,1.61,8.75a9.55,9.55,0,0,0,1,3.31,13,13,0,0,1,.55,5.64q-3.2.36-3.13,3.68c0,1.57,3.92-4.19,8.27-11-2.08.81-3.5.52-3.65-1.68a105.42,105.42,0,0,1,2.36-13,23.46,23.46,0,0,1-2.46-4.18c-.28-.95.11-2.54,1.2-4.79q2-4.16,1.44-7.16-.74-2.37,2.18-6.1c1.72-2.25,3.61-3.28,5.65-3.11a.6.6,0,0,0,.15.48l.28.4q1.77-4.09,3.67-8.16l0-.14c.37-1.82.61-.77.63-1.65l-3.9-1.46c-.89-3.58-1.61-5.59-2.16-6a9.72,9.72,0,0,1-3.28-5.16q-.27-2.27,2.64-6a12.5,12.5,0,0,0,1.55-3,8.82,8.82,0,0,1,2-2.63c2.35-1.37,3.23-1.75,2.63-1.16,1.77-1.64,2.47-2.36,2.11-2.16a4.55,4.55,0,0,1,4.19,1.85,9.51,9.51,0,0,1,2.07,4c.38,3.2.62,5.54.72,7.06l.69-1.46a21,21,0,0,1,2.6-6.44c.28-.31.51-.59.74-.86.4-.9.79-1.81,1.17-2.72-1.19-.42-1.86-.77-1.95-1.06q-1.26-4.47,3.75-7.94a2.38,2.38,0,0,1,1.42,1.13l0-.06c.75,1.25,1.52,2.47,2.3,3.68a10.86,10.86,0,0,1,3.55,5.22c3.14,4.46,1.6,5,4.76,9.18-.13.28-1.21,4.6-1.62,6.22-.19.31-.26.54-.15.61.48.37,5.94-3.66,7.56-4.68-.64,3.38,15.81,36.87,17.62,40.8,0,.71-.09,1.42-.14,2.13.06,0,.11,0,.16,0,.11.33.27.82.48,1.48a11.41,11.41,0,0,1,.63,1.48l2.22,5.6a1.75,1.75,0,0,1,.32.65,8.66,8.66,0,0,1,.32.83q.32.83,1.26,3.78A30.85,30.85,0,0,0,418.7,277q1.11,2.48,1.43,10.86a23.54,23.54,0,0,0,.95,4.28,13.75,13.75,0,0,1,.16,6.26c-.84,4.6,28.52,78.27,44.85,119.13-3,20.8-5.48,38.94-5.21,39.27.22-.18,2.95-17.15,6.1-37.05,5.55,13.89,9.4,23.53,9.69,24.51,0-.24-3.93-10.2-9.63-24.89,4.41-27.83,9.62-61.2,10-62.41l3.17-10.37a39.43,39.43,0,0,0,2.18-8.21c-.13-4.75-.3-9.49-.46-14.24a7.94,7.94,0,0,1,1.53,2.73,12.6,12.6,0,0,0,3.9,7.37c.36.55,1,1.74,1.94,3.55q1.11,2.46,2.22,3a15.42,15.42,0,0,0-2-7.93q-1.11-2.19.46-11.52l1.32-8q.78-3.84,2.16-3.58c.91.36,1.73-.93,2.44-3.86q.27-.27,3.25-5,2.2,1.36,3.92,10.39a11.84,11.84,0,0,0,1.94,3.82,17.16,17.16,0,0,1,2,6.84q-3.56,1.41-2.7,5.5c.4,1.95,3.47-6.36,6.82-16.08-2.18,1.61-3.86,1.67-4.56-1a147.59,147.59,0,0,1-.39-16.79,28.5,28.5,0,0,1-3.8-4.47c-.55-1.09-.48-3.19.23-6.31q1.32-5.76-.07-9.32-1.39-2.73,1-8.23,2.16-5,5.71-5.53a.84.84,0,0,0,.28.55l.43.42q1-5.62,2.24-11.23a1.09,1.09,0,0,1,0-.18,34.23,34.23,0,0,0-.31-5.2l-3.34-7.38q-2.79-6.28-3.89-6.82c-2.57-1.63-4.18-1-4.92-3-.56-1.82,0-4.56,1.59-8.24a17.29,17.29,0,0,0,1.06-4.11,12.23,12.23,0,0,1,1.62-3.86c2.35-2.39,3.27-3.13,2.72-2.21q2.44-3.85,1.9-3.31c1.64-.73,3.37-.38,5.21,1.06a11.73,11.73,0,0,1,3.33,4.36c1.19,3.87,2,6.71,2.49,8.57.15-.67.3-1.34.44-2a29.56,29.56,0,0,1,1.43-8.77c.25-.47.45-.89.65-1.3.24-1.23.46-2.47.69-3.71-1.46-.17-2.31-.41-2.48-.74q-2.5-5.19,2.39-11a2.62,2.62,0,0,1,1.89,1s0-.06,0-.09c1.15,1.33,2.32,2.62,3.5,3.89l11.73-14.25a9.54,9.54,0,0,1-.42,2.68L535.17,192l-.28,1.72,0,.35c1.78-2.3,3.32-3.67,4.64-4.14q-.12,7.24-.48,7.93c.17,0-.64.68-2.45,2.06q1.62,1.38.81,4.82a26.31,26.31,0,0,0-.23,3.1c-.19,1.16-.34,2.07-.45,2.76q-1.7,7.23-5.79,9.65l-.2.09c-.4,1.74-27.12,6-27.62,7.71,1.89.33,29.15-1.86,29.21-1.6.41,1.84,7.6-5.79,3.32-1.2-.31.36-.57.63-.85.95-.21.6-.44,1.19-.66,1.78.34.77.67,1.54,1,2.29,1.15-2.29,2.65-3.68,4.56-4,.71,1.16.58,5.13-.36,11.84A75.29,75.29,0,0,0,558,259.6a2.43,2.43,0,0,1,.46-.22l2.11,2.05c9,6.1,14.52,11.65,23.95,9.78,0-.27,0-.49,0-.77q.69-7.56,4.42-9.29c-.22,3.56-15.94,46-16.29,48.56.88-.3,17.19-40.08,18.06-40.46.12-1.44.23-2.44.31-2.94a92,92,0,0,1,.55-10c0,.25.16,0,.58-.83,6.68,7.83,14.59,15.78,11.71,20.52-3.47,3.63-6.56,8.62-9.47,14.22a9.3,9.3,0,0,1,4.54-.58q3.25.15,4.15-1.93c-1.42.21-2.31.13-2.67-.26a9,9,0,0,1,1.86-4.86,6.38,6.38,0,0,1,2.75-2.11c.82,1.17,1,2.16.45,2.95a8.72,8.72,0,0,0-1.66,3.77,12,12,0,0,0,1.89-1.21,48.65,48.65,0,0,0,4.72-4.41,15.46,15.46,0,0,1-2,4c1.7-.3,3.35-.65,5-1.08.63,4.08,5.07,4,4.93-.35a8.26,8.26,0,0,1,.06-1.31,27.84,27.84,0,0,0,4-2c3.19-.88,5,5.29,6.67,13-.35.93-.67,1.82-.94,2.62s-1.05,3.93-2.46,9.8l-1.77,5.15c-.46,1.32-.73,2.12-.82,2.38a2.89,2.89,0,0,0,.29,2.36c.88-.07,1.33-1,1.33-2.78.12-2.49,1.43-6.66,3.92-12.48.75-.09,1.32-.17,1.81-.26,1.77,9.07,3.65,18.12,7.18,19.49,3.41.54,2.31,11,5.66,11-.61-.8.13-11.69-.66-12.8-1.09-1.53-2.18-14.56-4.27-14.83a34.76,34.76,0,0,1-5.11-2.49c-2.52-1.46,4.35-2.1,4.14-3.29a17.28,17.28,0,0,0-1.05-2.1l1.14-1.18a25.21,25.21,0,0,1,4.82-4.4,26.73,26.73,0,0,1,2.52-2.5,21.38,21.38,0,0,1,2.59-2.21,12.25,12.25,0,0,0,2.82-2.31c.34-.27.77-.63,1.3-1.1a5.55,5.55,0,0,0,1.52-1.2q1.29-1.11,5.92-2.26c3.36-.81,4.21,1.17,5.86,2.4a2.12,2.12,0,0,1,.15.54,6.75,6.75,0,0,1,.16.7,3.83,3.83,0,0,0,.16.76c.14.7.33,1.81.59,3.33a1.7,1.7,0,0,0,0,.22A34.28,34.28,0,0,1,665,291a10.17,10.17,0,0,0-.31,4.64c.89-1.36,1.62-2.51,2.3-3.58a31.62,31.62,0,0,1,0,3.26c-.49,1.45-1,3.05-1.67,4.85-1.4,4.1-2.27,6.61-2.59,7.54-1.43,3.11-1.9,5.15-1.37,6.13.79-.54,2.52-4.56,5.17-11.94,0,.76.13,1.95.34,3.6a13.61,13.61,0,0,1-.74,6.21c-.29.87.18,4.53,1.21,10.17q-3.3,9.86-8.08,24.25l2.36-5.26.66-.31q.57-.6,5-13.48l.62-1.79.05-.15c2.33,12.09,6.54,30.87,11.15,50.77-1.14,1.68-2.39,3.55-2.14,3.68,0-.13.84-1.33,2.23-3.33,4.85,20.92,10.15,43,14.18,59.81-5.94,20.15-11,37.75-10.8,38.11.24-.15,5.38-16.55,11.36-35.78C697.42,452.9,699.84,463,700,464c0-.23-2.42-10.66-6-26,8.36-26.9,18.32-59.17,18.86-60.32l4.63-9.8a39.28,39.28,0,0,0,3.34-7.82q2.67-22.86,4.9-45.8A8.47,8.47,0,0,1,723.9,312c4.45-6.66,8.16-12.39,10.4-16.26q8.73-14.73,11-18.83c6.6,2.78,13.85,5.43,12,9.78l-8.32,23-1.72-.07q-4.59,10.37-9.16,20.77l2.71,1.09a20.77,20.77,0,0,1-1.33,4.54q-4.14,11.79-5.45,13.33a2.77,2.77,0,0,1-1.33-2.07,6,6,0,0,1,0-4.4.5.5,0,0,0,0-.12c-1,2.26-2,4.53-2.91,6.8a3.37,3.37,0,0,0,.16.39,6.41,6.41,0,0,0,1.63,1.92,5.56,5.56,0,0,1,1.24.84q.81,1.36-2.65,8.28c-.27.52-.05.94.53,1.27a10,10,0,0,1,1.39-3.09,13,13,0,0,0,2.47-4.11q8.5-22.72,9.18-23.2a27.81,27.81,0,0,1,5.26,2.34c3-4.61,7.26-8.53,11.85-12.36q-1.53-1.5-2.46-2.49,1.59-3.08,9.57-14.11c.72-1.06,2.13-3.38,4.25-7a41,41,0,0,1,5.09-7.2q6.42-7.34,7.27-7.57a12,12,0,0,1,7,.58q.42.28,5.58,7.51-.36-.48,6.33,14.85c0,.13.1.42.45.89a7.4,7.4,0,0,1,.39,1.08q1.45,3.88,1.87,4.17c.61-.28.88-1,.79-2.24l-.56-7.92a45.73,45.73,0,0,1-.53-5.63l-2.35-9.54c-2.77-7.32-3-12.4-.61-15.28a15.72,15.72,0,0,0,2,.35l1.31-1.54c1.49-2.77,2-4.07,1.62-3.88q3.24-2,8.57,1.89a15.47,15.47,0,0,1,3.83,5.16q4.94,8.58,6.75,10.73a16.49,16.49,0,0,1,1.15,1.84,11,11,0,0,0,1.57,2.11,13,13,0,0,1,2.39,4.87,47.63,47.63,0,0,0,1.78,5.15q3.55,6.7,3.07,8.81-3.82.64-6-1.18-2.78-2.35-4-2.59c-.14.38.49,2.23,1.88,5.58q2,5.38,2,7.4a3.94,3.94,0,0,0-.15,1.17,2.61,2.61,0,0,1-.09,1c0,.94.67,2,2,3.19a3.52,3.52,0,0,1,1.52,3.7q-1.56,12.5-8.94,27.65c-4.92,10.1-49.09,108.81-48.84,111.52,1.2,0,1.83-.1,1.87-.23-.25.22-.13-.35.36-1.73.17-.49.35-1,.52-1.49s.42-1.19.59-1.69a45,45,0,0,1,2.89-6l46-104.89c.61-1.74,1.44-3.85,2.47-6.31,1.21-3,2-5,2.41-6.13a129.83,129.83,0,0,1,5.81-14c-1.16-8.89-2.76-17.85,3.21-25.33-.08-.38-.22-1.05-.41-2a32.3,32.3,0,0,0-1.94-4,18,18,0,0,1-.95-2.38,16.49,16.49,0,0,0-1.55-2.91c-.61-1.19-1.06-2.08-1.37-2.67-.59-1.72.24-2.89,2.52-3.51.7.41,1.83,1.83,3.37,4.27q2.13,3.42,3.51,3.89c.26-.74-.18-2.9-1.33-6.46a24.79,24.79,0,0,0-4.26-9l-4.94-8.58c-.23-.31-1.47-2.16-3.7-5.53q-3-4.6-6.91-3c-2.77,1-4.89.77-6.37-.86a20.1,20.1,0,0,0-3-2.4,4.35,4.35,0,0,1-2.22-2.44q0-.6,2.3-6.54c1.4-4,2.53-6.38,3.4-7.25a21.44,21.44,0,0,0,.12,4.54,7.81,7.81,0,0,0,1.57-2.29,7.75,7.75,0,0,1,1.58-2.29c.91.32,1.46.69,1.65,1.13a1.55,1.55,0,0,0,.81,1.36,8.5,8.5,0,0,0,1.78.75,5.63,5.63,0,0,1,1.83,1.36l9.11,10.61c.19.43.43.95.74,1.54s.55,1.11.74,1.55a18.29,18.29,0,0,0,4.55,5.3q1.47.88,3.26,6c-.11-.27.12,0,.63.72q.57-1,1.17-1.95a9.39,9.39,0,0,1-1.66-3.55,20.76,20.76,0,0,0-1.59-3.51,5.66,5.66,0,0,1-.8-3.56q.23-1.37-2.31-3.66c-.55-.38-1.53-2.7-2.93-7a5.23,5.23,0,0,0-.92-1.78c-.42-.75-.72-1.35-.91-1.78a23.23,23.23,0,0,1-.73-3.75c-.52-2.91.55-5.22,3.21-7q4.23-2.56,3.93-2.42a26.58,26.58,0,0,0,4.15-1.58,15.27,15.27,0,0,1,4.08-1.4,35.94,35.94,0,0,0,4.62-1.48l2.72-1.35a30.64,30.64,0,0,0-7.16.87c-6.25,1.7-10,2.36-11.22,2,.93-3.15,2.17-3.38,3.6-5.5a22.51,22.51,0,0,0,3.08-6.59c-1,.06-2.6,1.08-4.67,3.08q-1.55,1.48-5.61,2.09.55-.09-6.72.87a33.89,33.89,0,0,1-3.44.32c-1.85-.1-3-.2-3.5-.29-2.55-.51-3.29-2.32-2.19-5.44a9.88,9.88,0,0,1,4.61-5.09,89.21,89.21,0,0,1,12.7-5.49c1.38-.53-3.48-2.37-.19-4.92,3.79-3,6-4.68,6.67-5.08q7.17-4.38,9.4-4.15a8.42,8.42,0,0,1-.83,3.84,7.74,7.74,0,0,1-2.32,2.94l0,16.3a12,12,0,0,1-1.86,3.83c-1.37,1.46-2,2.54-1.9,3.23q1,.18,3.63-2.29a26,26,0,0,1,4.76-4.06c1.07.35,2.42,1.61,4,3.8s2.14,3.69,1.74,4.66a8.77,8.77,0,0,0,1-.31c.17-.08.72-.42,1.59-1-.77-.48-1.07-1.43-.88-2.9.53.1,1,.22,1.39.34a14,14,0,0,1,.64-1.77l-6-2.56c-2-2.53-8.11-7-3.89-12.65q2.44-3.31,4.59-2.1c.57.4,2.23,1,3.9,1.79a5.22,5.22,0,0,1-.17-1.45c.13-.37.32-.93.59-1.68a10,10,0,0,1,.41-1.92,30.76,30.76,0,0,1,.47-3.51q2.4-8.33,7.54-12.72a3.2,3.2,0,0,1,1.39.39,38.75,38.75,0,0,1,2.86-4.74c-.57-1.44,1.38,2.26,1.49,1.35a13.52,13.52,0,0,1,4.81-7.85,6,6,0,0,1,3.9,2.21l2.06-2c-.18-1.6.26-2.61,1.42-2.95a2.42,2.42,0,0,1,.46,0c.28-1.82.93-5.18,0-4.89a6.15,6.15,0,0,0-2.21,1.16c-1.37.92-2.08,1.4-2.2,1.5A52.85,52.85,0,0,1,873,166.52a21.46,21.46,0,0,1-2.73.47,10.92,10.92,0,0,0-2.72.46q-9.85,2.45-8.65,2.69a2.24,2.24,0,0,1-.81-.35c.28-.28,1.25-1.69,2.94-4.23.51-1,1.33-2.61,2.49-4.91,1-2.34-.94,3-.38,1.95,1.72-2.46,5-3.78,5.17-4.15s2.13-3.38,6-9c3.09-4.63,5-7.31,5.67-8.13a41.56,41.56,0,0,0-4.94,3.87,6.13,6.13,0,0,1-1.42,1.12,12.15,12.15,0,0,0-1.16.79c-.06.21-.78,1.39-2.16,3.56a50.64,50.64,0,0,1-8.18,9.39c-3.43,3.45-5.93-.16-8.08,3.54a7,7,0,0,1-3.89,3q-3.23,1.15-5.19.17l-1.13-.77c1.78-.42,5.28-4.74,7.12-2.87a14,14,0,0,1,1.07-6.78c1.72,0,2.81.12,3,.37l1-2.2a8,8,0,0,0-3.05-.3c.76-1.62,1.64-3.23,2.54-4.84a21.65,21.65,0,0,1,2.79-3.26,24.64,24.64,0,0,0-.69,5.79,8.69,8.69,0,0,0-1.59,2.61l1.94,1.33c.87-2.69,1.48-3.66,1.92-3.91-.5-.39-1.07-.8-1.78-.41.63-2.2,2.55-4.26,5.8-6.18,2-1.25,3.57-1.5,4.65-.73a1.3,1.3,0,0,1,.18.15c.85-1.32,1.7-2.64,2.57-3.94a10.05,10.05,0,0,1,1-4.87,5.38,5.38,0,0,1-2.23.11q0-2.46,3.71-10.63c.21-.47.39-.89.59-1.32l3.8,4.2-.52,0a20.55,20.55,0,0,0,.27,2.19c.27-.11.51-.22.81-.33s.35-.47.53-.71l1.47,1.62-2,1.63,0,0c.51.87,1.25,1.26,2.36.31.32-.25.56-.47.85-.71L891.4,143q1.49,3.09,4.78,16.35c.28,1.1-.36,2-1.35,2.86,2.54-.37,5,1.41,7.55-1l-.55-1.14a23.25,23.25,0,0,1-2.5-7.5,23.27,23.27,0,0,0-1.69-6.14q-7.93-11.76-6.84-9.75c-.38-.73-2.93-3.32-6.4-6.64a14.56,14.56,0,0,0,2.81-3.39c-.88.13-2.18.94-3.89,2.36-2.4-2.29-5.16-4.85-7.91-7.37,1.78-3.89,2.92-6.09,3.4-6.53Q884.63,109.09,886.49,106.68ZM649.9,123.54a37.32,37.32,0,0,1-.75,5.88c-1,.39-1.87-.62-2.61-3a27,27,0,0,1-.8-3.13C645.49,122.33,648.7,123.33,649.9,123.54Zm-416.79,2.54a2.63,2.63,0,0,1-1.89-2.21l1,.09a16.06,16.06,0,0,0,.87,1.8Zm-2.19-5.93a3,3,0,0,1-.57-2.92l.07-.81c1.1.09,2.07.92,2.9,2.5a6.86,6.86,0,0,1,1,3.36A4,4,0,0,1,230.92,120.15Zm-27,58.9c3.07,3,4.78,4.82,5.11,5.48-.33,1.87-1.91,2.54-4.73,2a20.11,20.11,0,0,1-3.56-1C199.67,185.21,202.89,180.81,203.94,179.05Zm-34.76-20.93a7.35,7.35,0,0,1,1.49-1.54l2-.14a4.32,4.32,0,0,1,1.38,2c1.21,3.12.44,4.75-2.33,4.9-.14,0-1.09-.21-2.87-.65Q168.23,159.57,169.18,158.12Zm-3,7.72c1.14-.59,3.35-.38,6.65.64q-3.5,4.36-8.64,2.85C164.89,167.3,165.55,166.14,166.19,165.84Zm-4.94-.53a1.53,1.53,0,0,1,1.66.9c.33.92-.13,1.74-1.37,2.46a7.57,7.57,0,0,1-1.67-2.89C160,165.51,160.42,165.35,161.25,165.31Zm-3.58,36.79q1.2-1.26,3.12-6.13c1.43-3.79,2.31-6,2.62-6.51q3.36-5.94,5.19-6.24a11,11,0,0,1,1.24,3.91,6.79,6.79,0,0,1-.33,3.4l2.37,17.18a13.31,13.31,0,0,1,.46,4.15c-.34,1.75-.3,2.94.12,3.58.55,0,1.11-1.05,1.67-3.07a18.51,18.51,0,0,1,1.66-5.07q1.49.12,5,2.72,4,3,3.7,4.58,0,2-5.44,6.06c-4,3.13-6.51,4.66-7.65,4.58a31.94,31.94,0,0,1-1.16-8.49,24.94,24.94,0,0,0-.88-7.11c-.77.31-1.47,1.67-2.07,4.09-.31,1.21-1.4,2.33-3.29,3.35.25-.14-1.33.67-4.73,2.45a20.87,20.87,0,0,1-2.5,1.12,20.88,20.88,0,0,1-2.82.55c-2.22.12-3.67-1.46-4.37-4.74a8.14,8.14,0,0,1,1.05-6A50.54,50.54,0,0,1,157.67,202.1Zm-5.86,22a5.53,5.53,0,0,1-.87-1.15,2.71,2.71,0,0,1,.2-1,1.76,1.76,0,0,1,1.5,1.11C152.89,223.58,152.61,223.93,151.81,224.1Zm1.29-54.58c2.77,2.51,3.48,4.52,2.12,6.06s-3.19,1.49-5.57-.5a5,5,0,0,1-1.78-2.49C148.31,170.71,150.05,169.68,153.1,169.52Zm-21.36,9.3,4.53-3.43q4.48-1.62,7.81.18c1.61,1,2.83,3.43,3.66,7.37.16.78-.2,2.73-1.08,5.82-.53,1.49-1,2.31-1.37,2.46s-1.36-.12-2.91-.84q-10.42-4.6-11.51-5.75Q128.08,181.4,131.74,178.82Zm-3.74,43a7.08,7.08,0,0,1-1.79-1.5,2,2,0,0,1,1.54-1.67C129.38,219.72,129.47,220.78,128,221.79ZM128,181a3.92,3.92,0,0,1-2.45-2.65l2.41-1.52C130,178.31,130,179.71,128,181Zm9.31,21.19a4.82,4.82,0,0,1-3.62-2.19q-3.62-6.18-3.86-11.33c-.06-.93.26-1.41,1-1.45s1.78.5,3.28,1.62q2.49,1.86,2.78,3.23Q138.39,199.34,137.31,202.19Zm1.2-10.21a6.84,6.84,0,0,1,5.7,4.08q-1,3.44-4.12,3.4Zm2.16,33.11c-.91-2.34-.68-3.55.71-3.62,1.77-.22,4.07.38,6.9,1.82q4.53,2.55,5.77,5.46l1.25-4c.55-1.36,2.66-3,6.32-4.91s5.08-.47,3.86,4.37a6.49,6.49,0,0,1-1.62,3.26c-.36.29-.85.65-1.46,1.08a16.36,16.36,0,0,0-1.62,1.28,5.76,5.76,0,0,1-5,2.25c-1.47,3.66-1.49.12-4.65-.9-.69-5.27-3.22-2.86-3-2.47a1.36,1.36,0,0,0-.58-.76,11.42,11.42,0,0,0-.08,1.59,8.36,8.36,0,0,0,.12,1.59,4.42,4.42,0,0,1-.37,1.21c0,.53-.07,1-.13,1.4a4.61,4.61,0,0,1-3.24-2.42C141.77,227.29,140.7,225.22,140.67,225.09Zm15.07,61.49a8.12,8.12,0,0,0,.21,2,18.68,18.68,0,0,0,.21,2c.11,2.14.05,6.29-.18,12.39-2.09.52-10.09,10.09-11.28,9.89,2.26,3.65,7.14-1.09,11-2a88.38,88.38,0,0,0,.18,12.19,12.14,12.14,0,0,1-.5,6.59c-2.39,0-4.91-1.33-7.57-4a2.18,2.18,0,0,1-.62-1l-6.65-31.47c-.19-.92.4-2.74,1.79-5.47l2.12-4.89q.87-3.82,2.29-5.09a3.84,3.84,0,0,1,1.49-.88,7.44,7.44,0,0,0,.92-.34,11.81,11.81,0,0,1,1.74-2q5.28,1.11,5.24,8.87a3,3,0,0,1-.29,1.61A3.12,3.12,0,0,0,155.74,286.58Zm-2.61-39.25q-2.2-2.47,1.58-8.44a4.13,4.13,0,0,1,2.12-1.9,4.71,4.71,0,0,1,2.2.47c.64.37.94.49.91.35,0,.14.18.19.46.18l.46-1.82q-.26-.18,2.66,9.61,1.2,3.72.83,4.93c-.17.54-1,1.11-2.37,1.72a4.52,4.52,0,0,1-1.25-.93,9.93,9.93,0,0,0-1.45-.92ZM163,285a2.27,2.27,0,0,1-2.61-.46,7.43,7.43,0,0,1-2.25-3.66l0-2.19a8.71,8.71,0,0,1,3.53,2.8C162.87,282.88,163.33,284.05,163,285Zm16.55,17q-6.3-4.74-6.78-5.46c-1.8-2.43-10.69,3.94-14.8,5.8a27.64,27.64,0,0,1,.38-3.61q1.34-8.61,1.87-9,2-1.49,5.65-1.1.45.18,8,5.95c-.26-.19,2,2.26,6.87,7.32C180.67,302.47,180.36,302.63,179.52,302Zm-.12-9.46-2.8-3.73q-8.59-9.64-8-14.64c-.32,0-.32-.1,0-.25a2,2,0,0,0,0,.25,13.2,13.2,0,0,0,1.71-.15l.25-1.8c-.22-3-.44-4.42-.67-4.14,1-1.78,3.53-1.85,7.53-.21a21.89,21.89,0,0,1,5.48,4.09q8,7.14,10.47,8.79a23.31,23.31,0,0,1,1.79,1.5l.4.33C189.13,287,181.86,291.14,179.4,292.58Zm21.87-14.06-1.52-1.45q-2-2.28.21-4a18.51,18.51,0,0,1,4.24,3C203.36,276.83,202.37,277.66,201.27,278.52Zm6.75-9a4.32,4.32,0,0,0-.63,1.86c-.15.41-.35.89-.61,1.43a6.28,6.28,0,0,1-1,1.54c-.25-.32-.46-.59-.74-.92a37.84,37.84,0,0,0-7.73-7.75l-8-7.13q-.49-.37-5.57-4.48-4.56-3.74-6.77-1.23a3.82,3.82,0,0,1-5.32.68,23.1,23.1,0,0,0-3.49-1.6,5.77,5.77,0,0,1-2.91-1.84,51,51,0,0,1-1.45-6.88c-.88-4.18-1.2-6.77-1-7.83-.07-.25,0-.35.09-.28a1.54,1.54,0,0,0-.09.28,31.22,31.22,0,0,0,2.33,4.37,7.51,7.51,0,0,0,.08-2.59,7.21,7.21,0,0,1,.09-2.59,2.85,2.85,0,0,1,1.82.7,2.27,2.27,0,0,0,1.29,1.13,8.87,8.87,0,0,0,1.75.3,6.36,6.36,0,0,1,2.07.88l12.22,8.11c.36.38.81.82,1.33,1.32s1,.94,1.33,1.32a24.44,24.44,0,0,0,6.11,4q1.57.51,5.48,5.08c-.22-.23.1,0,.85.55,0-.72-.06-1.44-.07-2.17a14,14,0,0,1-3-3,33.19,33.19,0,0,0-2.95-3,8.78,8.78,0,0,1-2.37-3.26c-.33-.91-1.52-1.9-3.57-3q-.92-.34-5.69-6.06a8.22,8.22,0,0,0-1.58-1.51c-.7-.62-1.22-1.13-1.58-1.51-.17-.12-.92,1.13-2.36-1-1.82-2.69-4.43-.33-3.24-2.65s1.93-3.42,1.83-3.28a14.65,14.65,0,0,0,2.41-2.52,8.91,8.91,0,0,1,2.45-2.32,19.3,19.3,0,0,0,2.82-2.53L185,217a11.29,11.29,0,0,0,1.24-1.06,13.52,13.52,0,0,0,.81-1.44,15.22,15.22,0,0,1-1.2-2.15c-.86-.25-1.59-1.12-2.18-2.64.45,0,.84,0,1.23,0-.16-.61-.28-1.23-.38-1.86l-5.88-1.05q-4.2-3-3.53-12.75.25-3.78,2.49-3.11c1.53.58,2.66,2.31,3.41,5.19a2.7,2.7,0,0,0,1.29-2.86,2.76,2.76,0,0,0-.71-1.35,9.43,9.43,0,0,1-.95-1.54c-.08-.4-.21-1-.37-1.77a12.28,12.28,0,0,1-.63-2c-.86-2.07-1.31-3.24-1.37-3.51q-2.25-8.62-.46-14.1a2.47,2.47,0,0,1,1.26,0,40.26,40.26,0,0,1-.13-5.26,12.13,12.13,0,0,1-2.29-3.27,13.6,13.6,0,0,1-.8-4.28c1.91-.13,2.84-.18,2.72-.15q4.11-.69,5.12,4.37,3,16.53,3.26,17.11,5.46,9.6,4.87,6.65,1.82,8.17,2.11,8.75a3.6,3.6,0,0,0,2.81.78,6.53,6.53,0,0,1,3.47.59,15.47,15.47,0,0,1,7.06,6.94q3.48,5.92,5.58,7.57a6.86,6.86,0,0,0,1.17.57,9.83,9.83,0,0,1,2.23,1.38c-2.52,5.82-4.5,10.3-6,13.53l-.4-.48c1.24-3,1.7-4.29,1.23-3.5l-1.54,3.11a87.84,87.84,0,0,0-10.67-10.57l3.65,5.48c1,1.42,2.34,3.34,4.16,5.75l1.45,2.18-1.52,3.08-1.25,2.57-1,2.1a4.64,4.64,0,0,1-1.78-1,10.74,10.74,0,0,0-2-1.13c-.34-.19-.6-.35-.87-.52a11.8,11.8,0,0,1,2.24,3.07c.44.73.81,1.44,1.15,2.13-4.65,9.28-7,12.45-7.1,13.29.06.28.15.7.26,1.26L203,238.7l.5-1a16.39,16.39,0,0,1,1.21,3.87,50.81,50.81,0,0,0,2.67,7.28,44,44,0,0,1,2.51,7Q211.51,261.11,208,269.5Zm3.67-43.25c-.43-.59-.86-1.16-1.3-1.71C215.25,215.82,213.49,221.42,211.69,226.25Zm-3.75,2c.21-.48.39-.91.59-1.36l.28.43c-.49,1-.89,1.78-1.19,2.3C207,230.49,208.65,226.81,207.94,228.26Zm4.45,21.5A3.44,3.44,0,0,1,211,252l-.67-.52-.15-.23a29.73,29.73,0,0,1-4-11.14q3.1.42,7.05,6.79A21.06,21.06,0,0,0,212.39,249.76Zm7-25.16a44.38,44.38,0,0,0,0,4.93c-2.49,2.79-2.23-.17-3.21-.44a11.64,11.64,0,0,0-1.66,1c1.27,1.58,1.7,2.11,1.33,3.71-.78,5.09-1.11,7.56-1,7.43-.53,1.09-2.07.66-4.62-1.27a21,21,0,0,1-3.57-3.94,5,5,0,0,0-1.46-1.51l0,0c1.45-2.84,2.67-5.19,3.69-7.1.57.87,1.08,1.62,1.52,2.29-.27.69-.48,1.18-.55,1.32.38-.5.32.45,1.37-.45,1,.64,2.3.13,3.3-.46-.38-.48-.83-1.05-1.37-1.78l.2-.25a36.39,36.39,0,0,0,2.59-4.72,9.93,9.93,0,0,1,2.54-4C219.21,220.12,219.5,221.89,219.34,224.6Zm118.51,87.06c.63-.21,1.19.09,1.7.85l-1.75,1.74-.11.09-.75-2.15A1.06,1.06,0,0,1,337.85,311.66Zm3-180.81a11,11,0,0,0,3.57-1.4c.28.55.49,1,.55,1.09a4.25,4.25,0,0,1-.38-1.22,1.49,1.49,0,0,0,.24-.28,16.55,16.55,0,0,1,.21-1.83c0-.26.06-.46.09-.69a9.29,9.29,0,0,1,.89-.45q2,4.22,1.25,6.9c-.42,2.11-2.33,2.84-5.71,2.21-1.37-.32-2.12-.72-2.32-1.18.16.89.3,1.78.44,2.67a25.44,25.44,0,0,1,4.12,1.67,2.5,2.5,0,0,1,.67.59c0,5.17-3.65,2.74-6.43.28a4.5,4.5,0,0,0,1.15.13c-.45-.22-2-1.32-3.92-2.74l-.32-.23-4.68-3.47c3-.51,6-1,8.47-1.55.16.8.31,1.59.46,2.39a.71.71,0,0,1,.09-.41C339.81,132.42,340.33,131.6,340.85,130.85ZM339.62,111c.23.52.46,1,.69,1.66A5.12,5.12,0,0,1,339,115.7l-1.58-.76c.32-2.85.64-4.47.94-4.86A4.78,4.78,0,0,1,339.62,111Zm-3.72-4.69a12.59,12.59,0,0,1,1.36,1.1c0,.08,0,.16,0,.24a11,11,0,0,1-1.12,3.66c-.08-.58-.2-1.36-.36-2.37A7,7,0,0,1,335.9,106.29Zm-5.56,2.24a24.18,24.18,0,0,0,1.59,2.48l-.35-2a.84.84,0,0,0,.35-.18c.67,1.43,1.36,2.91,2.1,4.44l-.07,0q1.53,2.51.36,3.55c-1.13,1-2,.54-2.63-1.26-.32-.9-.3-1.48,0-1.75.61-.43,1-.71,1.25-.86a22.66,22.66,0,0,1-2.13-2.29c-1.32-1.28-2-2.14-2-2.57a9.77,9.77,0,0,1-.13-1.35A9.78,9.78,0,0,0,330.34,108.53Zm-5.49-6.18a1.46,1.46,0,0,0,.8.77.78.78,0,0,0,0,.16l.1-.09a2.19,2.19,0,0,0,.68,0c.15.26.3.53.46.79-.05,0-.06.08-.12.08a2,2,0,0,1-1.06-.25l-.06-.54-.33.3a2.9,2.9,0,0,1-.33-.2,3.84,3.84,0,0,1-.28-.3A7,7,0,0,0,324.85,102.35Zm-.35,2.43a2.35,2.35,0,0,1,.42-.21,29.33,29.33,0,0,1,3.15,3.17,17.05,17.05,0,0,1,1.58,7q.32,6-3.87,6.51a15.74,15.74,0,0,1-2.32-9.15A35.79,35.79,0,0,1,324.5,104.78ZM305.92,226.72a4.85,4.85,0,0,0,.43.37,12,12,0,0,1-.33,2.08l-1.1-1.5A3.25,3.25,0,0,0,305.92,226.72Zm-13.4-96.41c1.25,1.84,1.59,3.36,1.13,4.6-.1-.78-.18-1.62-.21-2.59a2.33,2.33,0,0,1-1.27-.41,1.77,1.77,0,0,1-.55-.69C292.18,130.57,292.5,130.24,292.52,130.31Zm-.15,8.2c.08.08.16.13.24.21a3.41,3.41,0,0,1-.18.48,2.22,2.22,0,0,0,0-.37A1.22,1.22,0,0,0,292.37,138.51Zm-3,1.45a1.23,1.23,0,0,1,.19,0,3.28,3.28,0,0,1,.58.16,8.91,8.91,0,0,1,1.56-1.76,1,1,0,0,1,.07-.24s.06-.06.09-.09l.19.17a.71.71,0,0,0-.35.16,2.07,2.07,0,0,0,.43,1.57,4,4,0,0,1-.5.74l-.36-.06a3.67,3.67,0,0,0-1.13-.49l-.18.26-.59-.1C289.34,140.18,289.35,140.07,289.35,140Zm-21.82.21c2.05.72,4.24,1.5,6.48,2.31a18.29,18.29,0,0,1-2.92,1.25q-4.08,1.4-4.95-1.32A12.57,12.57,0,0,1,267.53,140.17Zm-20.44-.41c.6.14,1,.15,1-.1q.33-3.85,1.89-5,1.08-.52,5.09,1.25c.05,0,1.81.61,4.58,1.54a10.85,10.85,0,0,0-1.93,2.18c.74-.78,1.44-1.47,2.12-2.11,1.6.54,3.53,1.19,5.66,1.93l-5.74,5.05c-4-.41-8.46-1.18-12.79-2l0,0c.09-.06.14-.18.13-.4A8.65,8.65,0,0,1,247.09,139.76Zm7.26,9.55-5-4.68c3.09.47,6.19.85,9.12,1.06C257.1,146.9,255.71,148.1,254.35,149.31Zm3.58,36.11c-1.37-.19-2.17-1.38-2.38-3.57-.1-2,.21-3.28.93-3.76s1-.08,1.17.8A9.42,9.42,0,0,1,257.93,185.42Zm-11.12-35.68a4.19,4.19,0,0,1-.48-3.93,1.54,1.54,0,0,1,1.75.93c0-.16,1.89,1.38,4.77,3.89-2.48,2.2-4.92,4.42-7.39,6.63q.72-3.52,1.63-7C247,150.06,246.91,149.94,246.81,149.74Zm-8.17-25a2.1,2.1,0,0,1,.86-.34c.27,0,.53.25.77.68a2.14,2.14,0,0,1,.1,1.24C239,126.3,238.4,125.77,238.64,124.7Zm-2.87,15.42c0-.08-.06-.16-.1-.24-.8-2,3.65,1.35,3.73.4a9.07,9.07,0,0,1,.63-2.41c.35-.65,4.22,1.07,6.48,1.74a25.81,25.81,0,0,0-3.24,2.12Zm1.46,5.63a14.1,14.1,0,0,0-.61-3.33l4.55.84C239.09,144.78,237.26,146.11,237.23,145.75Zm.72,81.63c.21-.07.38-.06.45.17l0,.68c0,.29.07.53.1.78-.24.23-.42.35-.47.2A13,13,0,0,1,238,227.38ZM228.57,250c.32.47.84-1.4,1.57-5.63q1-4.62,1.52-4.77,2.51-1.38,3.84,2.47a31,31,0,0,1,1,3.38,11.77,11.77,0,0,0,.87,2.71,29,29,0,0,1,2.14,7.43,14.19,14.19,0,0,0,1.43,4.94c2.5,4.39,3.65,8.14,3.46,11.29Q242.22,270.45,228.57,250Zm13.7-93.46a31.21,31.21,0,0,0,.18-4.5c-.37-3.73-.23-6.1.42-7.15a6.57,6.57,0,0,1,1.8,3.23c.83,4.39.89,7.58.21,9.65l-2.57,2.31C242.26,159.35,242.24,158.19,242.27,156.55Zm16,72.69c0,.16,0,.25-.13.18,0,0,.08-.13.13-.18l0-.05a.31.31,0,0,0,.13-.06Zm22.87,51.51-.13-.27q3-6.86,6.06-7.68a29.79,29.79,0,0,1-2.42,11.5C283.47,283.08,282.3,281.89,281.1,280.75Zm9.69,11.18a61.82,61.82,0,0,0-4.74-6.06,25,25,0,0,1,1-4.19,51.43,51.43,0,0,0,1.67-7.57,20.92,20.92,0,0,1,1.87-7.41q2.46-6.24,2.71-6.76a18,18,0,0,1-2,1.66,10.75,10.75,0,0,0-1.84,1.4,34,34,0,0,0-3.42,5.84,20.51,20.51,0,0,1-3,4.39c-2.26,2.26-3.72,2.89-4.4,1.89q.23.17-2-7.23-1.12-3,1.7-8.26a22.92,22.92,0,0,0,1.89-7.44c-.8,1.64-1.47,3-2,4.14q-2.13,4.38-2.79,4.55-1.47.64-6.46-4-2.82-2.55-3.79-10.07a10.32,10.32,0,0,1-.17-2.62c-.09-1-.14-1.89-.18-2.62-1.92-16.66-4.88-16.84-4.41-15.05q-1.05-4.36-1.89-5c-.59,1.2-.86,3.36-.83,6.45a1.91,1.91,0,0,0,.2,1.08c-1.06-.24-4.67.26-8-4.69a29.89,29.89,0,0,0-2.64-3.49c-.7-.55-1.08-1-1.13-1.25l.15-6.27q.07-4.91.58-5.94c0-.11.07-.33.1-.47-1.21-.84-2.45-1.66-3.66-2.49a23.4,23.4,0,0,1,1.61-2.83q1.15-1.58,1-7.44l-.13-.66a4.06,4.06,0,0,1,1.57-2.82q.6,1.4,2.4,5.95a30.25,30.25,0,0,0,2.91,6.23q2.69-4,2.52-4.2a30.39,30.39,0,0,1,4.24,4.47q2.74,3.18,4.47,3.41c-2.39-6.61-4.08-11-5.09-13.24-.62-.94-1-1.52-1.1-1.65.07-.39.45.19,1.1,1.65l10,15,6,9,.23.42s0,.09,0,.12l.73,3.33a12.3,12.3,0,0,1,.24-1.8c1.73,2.9,3.13,4.27,4.18,4.06q-.15-3.06-13.33-22.79-3.33-5-5.52-17.18c-.52-2.66-.47-4.46.17-5.38a10.05,10.05,0,0,1,3.07,3.66,33.68,33.68,0,0,0,3.2,4.32q5.9,6.08,6.81,7c0-.07,0-.07,0,0s.17.2,0,0c.26.49,3.33,2.93,8.78,8.63-1.09-1.61-2.37-3.58-3.86-6a51.73,51.73,0,0,0-5.88-8.79q-2.25-2.91-11.05-17.5a10.1,10.1,0,0,1,2-1.68,7.14,7.14,0,0,0,1.09-.71,14.92,14.92,0,0,0,2.08-3.08c10.83,9.72,22.12,19.87,22.25,19.46-.8-1-11.07-10.84-21.57-20.78.55-1.12,1.13-2.39,1.75-3.86a15.43,15.43,0,0,1,6.05-7.83,6.46,6.46,0,0,1,3.36-1.06,3.62,3.62,0,0,0,2.68-1.15,28.09,28.09,0,0,0,.38-3l2.48,1c-.18.11-.34.17-.46.11q-1.17,1.69-.15,4.6l2.52-3.94c1.69.7,3.29,1.39,4.76,2.05a48.47,48.47,0,0,1,3.76,5.11c.72,1,1.32,2.9,1.81,5.7,7.56,11.27,3.67,23.85,3.67,36.18a8.25,8.25,0,0,1,1.28,4.38l.16,3a1.45,1.45,0,0,1-.39.78,2.9,2.9,0,0,1-1.13-2l-.08-1.31c-.15,2.18-.41,4.33-.76,6.47,1.5,4.32,2.21,7.58,2.1,9.76a17,17,0,0,0-.18,2l.38,4.77a253.68,253.68,0,0,0-19.06-22.66c.76,1.1,1.44,2.07,2,2.79L294,217.33l1.59,2.38,1.43,2.13c3.4,5.1,6.53,7.27,8.85,8.27l-.78,5.11a5.76,5.76,0,0,1-3,5.33L299.52,242c.63,6.45,7.85,13,7.18,19.47a4.46,4.46,0,0,1,1.51,2.36l1.63,5.28a28.3,28.3,0,0,1,1,5.49,36.73,36.73,0,0,0,.36,4.2,3,3,0,0,1-.49,3q-3.12,3-4.16,3.16c-3,.59-4.71,1-5.1,1.09l-.88.24c-1.15,2.93-2.52,5.86-4,8.78A40.84,40.84,0,0,0,290.79,291.93Zm15,26.46h0Zm5.42-11.05a7,7,0,0,0-2-1.49,17.9,17.9,0,0,1-4.18,1.71c-1.75,0-3.42,0-4.95,0,.05.57.1,1,.14,1.44-.29-.49-.58-1-.85-1.46l.71,0c-.12-1.17-.26-2.68-.43-4.57a19.81,19.81,0,0,0-.85-4.5,14.24,14.24,0,0,0,2.15-.59,7.19,7.19,0,0,1,3.14-.43l12.05,5q.35,0,3.53,4.35C317,307,314.06,307.19,311.22,307.34Zm14.3-57.82c-.17-.18-.17-.26,0-.24s0,.16,0,.24a17.22,17.22,0,0,0,2,1.53,11.38,11.38,0,0,0-1.7.86h-.09C325.63,251.14,325.58,250.38,325.52,249.52Zm4.78,9.32a15.23,15.23,0,0,0-.65,2.06c-.09.44-.38,1.9-.89,4.42l-.57,2.28c-.63-.7-1.36-1.51-2.2-2.48.4.47.35-3.21-.15-10.92.77-.14,1.16-.24,1.13-.3.95.17,2.35,1.06,4.25,2.73A10.23,10.23,0,0,1,330.3,258.84Zm.88-4.42-.7-1.26a28.69,28.69,0,0,1,2.53-1.84Q334.65,253.9,331.18,254.42Zm18.23-89c-9.49-7.11-9-4.87-3.35,19.14-.11.57-.24,1.2-.38,1.9q0,1.32-.06,1.53c-.17.84-1,1.16-2.59.94,0-.73,0-1.84-.06-3.32s0-2.79,0-3.53l-1.42-10.39q-.68,5.92-1.69,11.83l.95,3.36c.78,2.52,1.06,3.91.85,4.15-.54.32-1.13,0-1.75-.84a14.07,14.07,0,0,0-1-1.13c-.54,2.8-1.13,5.6-1.75,8.4a5.76,5.76,0,0,0,1-.27l-.06-.16c.18,0,.19.1.06.16a17.69,17.69,0,0,1,1.3,7.43,7,7,0,0,0,.7,3.69,8.57,8.57,0,0,1,.79,3.26,50.2,50.2,0,0,1-.23,8.32c-.56,2.81-.61,4.63-.14,5.48a3.32,3.32,0,0,1,.27,2.26c-2.36,11.79-1.54,10.82-2,11.59-.26.53-.56,1.2-.88,2a13.33,13.33,0,0,1-.83,1.79l-2.24,2.79a4.5,4.5,0,0,1-2.28,3L330,249.92c0-.44,0-.87.06-1.3-2.53-4.11-10-8.79-7.91-14.06,1-2.74,2.35-4.17,4.14-4.28.19-.93.42.54.58-.38a3.37,3.37,0,0,1-.55-.61c.22.21.12-.69-.29-2.71a12.47,12.47,0,0,0-.26-1.37l.11.13a68.24,68.24,0,0,0,.71-8.18,4.62,4.62,0,0,1,0-.95h.08c0-1.42,0-2.84-.06-4.26a7,7,0,0,1-2.05-2.18c-1.38-2.69-1.95-4.31-1.69-4.83a3,3,0,0,1,.45-1.23,6.12,6.12,0,0,0,1.16-2.34c.26-.75.51-1.43.74-2.07-.29-1.66-.62-3.32-1-5q-.17,2.43-3.4,3.54-1.69-4.82-1.06-6.77a11.71,11.71,0,0,1,4,1.12c-.19-.79-.38-1.57-.58-2.35a9.65,9.65,0,0,1-1.06-.22,3.3,3.3,0,0,1-1-.31q-2.76-1-4.17-5.06a17,17,0,0,1-.56-2.84,5.12,5.12,0,0,0-.86-2.56q-.36-.32-3.59-3.92a12.7,12.7,0,0,1-3.07-5c-.5-1.84,7.9-2.4,10.79-1.66a17.29,17.29,0,0,0,4.19.44c-.35-1-.71-2-1.07-3-.74-.06-1.49.13-1.87-.18-.14-.21-3.31-3.61-5.85-6a32.49,32.49,0,0,0,.57-8.79c-.1-.68-2.46,1.47-4.13.45-1.28-.72-.05-4.64.73-5.77a9.85,9.85,0,0,1,3.51,3.12l-.31-4a28.09,28.09,0,0,1-.75-6.43c-1.07,2.71-2,5-2.06,4.73a2.51,2.51,0,0,1,.17-2c.93-1.88,1.6-3.29,2.06-4.33a5.4,5.4,0,0,1,.09-.6c-.82-2.59-6.74,9-7.44,6.47.55,1.55,6.63-10.06,8.17-8.11.2-.35.45-.78.76-1.3a14.33,14.33,0,0,0,1.16-2.32c-.27.69-1,2.6-1.83,4.73l.63,1.57c.63-1.53,6-2.63,12-3.68,2.11,2,4.56,4.34,6.46,6.21-.31.7.12,1.24,1.32,1.6,0-.1,0-.19,0-.28,1.23,1.27,2,2.15,1.76,2.27-2.05,1-4.25-6.5-4.9-3.11a11.94,11.94,0,0,0-.25,3.41c.19.2.35.14.46-.42.58-2.5,12.94,9.61,11.52-3.63a5.05,5.05,0,0,1,.65,2.06,6.43,6.43,0,0,1-2.24,5.21,4.45,4.45,0,0,0-.94,1.11,3.88,3.88,0,0,1-1.23.46c.08,1.09.15,2.18.2,3.27a36.24,36.24,0,0,0,4.06,2.69C347,156.12,354.19,169,349.41,165.41Zm18-40.79.27-.16a1.34,1.34,0,0,1,0,1.32C367.37,125.57,367.29,125.18,367.41,124.62Zm-2.46.31q1.49,2.11-.72,3.58a6.32,6.32,0,0,1-.79-.84C363,126.09,363.46,125.18,365,124.93Zm-1.58-4.1c-.26.52-.68.58-1.23.15Zm-.89,4.42a5.29,5.29,0,0,1-.9,3.31c-2.62-.45-3.68-2-3.18-4.48,0-.13.25-.82.65-2Q362,122.72,362.48,125.25Zm-3.36-8c0,.19.05.38.05.57a3.34,3.34,0,0,1-1-.18A5,5,0,0,1,359.12,117.3Zm-1.83,2.07a7.06,7.06,0,0,0,1.39,2.13l-1.88-.21A1.6,1.6,0,0,1,357.29,119.37Zm2.44,46c-.17-.77-.35-1.47-.54-2.11q-1.74-3.25-.8-4.37c.47-.77,1.37-.86,2.69-.26a3.85,3.85,0,0,1,2.18,2.27,2.45,2.45,0,0,1-1.22,2.48C360.82,162.56,359.68,165,359.73,165.37Zm4.71.43a2.23,2.23,0,0,1-.17.35,7.08,7.08,0,0,0-.85-.06c0-.13-.07-.24-.11-.36Zm13.77,13.84a6,6,0,0,1-.62-1.69c0,.14.33-.07,1.09-.63A2.17,2.17,0,0,1,378.21,179.64Zm7.48-18.19q-1.86,9.27-3.07,10.53c-1.63,1.41-3.43,1.22-5.41-.54-1.61,8-2.7,12.28-3.26,12.72a2.65,2.65,0,0,1-2.09.84,40,40,0,0,1-5.37.52q-7.35-1.7-6.16-5.16c.36-1.83,1.81-3.47,4.34-5,.52-.17,1.44-.4,2.78-.68a5.7,5.7,0,0,0,3.21-1.68,12.09,12.09,0,0,0,2.9-3.93l-.37-.19c.14-.42.29-.86.44-1.28a8.7,8.7,0,0,0-1.9.49c-.48-.26-.87-.48-1.11-.64l.55.85-.31.12a6.73,6.73,0,0,1-2.73.47,1.89,1.89,0,0,1-1.58-1.69c0-.42-.38-.71-1.05-.9a4.45,4.45,0,0,1-.58-1.76,10.49,10.49,0,0,1,1.52.79q3,1.58,4.17.74a11.16,11.16,0,0,1-4.08-3.59q.42.32-1-5.53a7.06,7.06,0,0,0-1.46.11,8.34,8.34,0,0,1-2.23.36c-2-2.8-2.41-4.74-1.24-5.79.06-.28.6-.6,1.63-1,.54-.31,2-.41,4.38-.31.11-.56-.22-1.29-1-2.21-.22-.49.39-1.16,1.84-2l.35-.12,8.43,3.93c2.05-.69-2.18-6-1.42-5.86a13.12,13.12,0,0,1,9.28,8.76C385.36,157.48,385.91,160.33,385.69,161.45Zm248.84,85.64a10.88,10.88,0,0,1-6.26,2.07c.16-1.31.3-2.63.41-3.95l.08-.2Q633.07,245,634.53,247.09Zm-.65-86.82a2.85,2.85,0,0,1-1.18,2.36c-1,.82-1.83.78-2.48-.14a4.32,4.32,0,0,1,2.84-2.71C633.5,159.51,633.78,159.68,633.88,160.27Zm-6.07-9.83c.6.49.94.79.83.78l-.93-.6Zm-1.49,3.36s0,0,0-.06c1.3,1.36,2.29,2.27,2.63,2.29a4.48,4.48,0,0,1,2.81.59c-.12.88-.85,1.72-2.18,2.53-.64.41-1.64.28-2.84-.19a2.34,2.34,0,0,0-.24-1.38C626.09,156.9,626,155.64,626.32,153.8Zm-4.72,17.94c.52-3.21,1.23-1.18,2.13-3.48l2.3-6.67c2.55,3,4.57,5.47,4.77,5.59a16.58,16.58,0,0,0-.69,3.71,10.92,10.92,0,0,0,3.81-.67c1.76-.49,2.92-.79,3.48-.91a3.6,3.6,0,0,1-.52,2.4l-.33.2c-1.68,1.67-2.57,3-2.69,4a32.8,32.8,0,0,1-4.42,11.44c-.65,1.11-.06,12.54.26,21-1.67.87-3.53,1.74-5.67,2.61-1.53.68-2,.11-1.58-1.72q1.24-4.48.89-5.51a9.7,9.7,0,0,1-2.45,2.06q-1-.33-3-4.13Q615.17,196.9,620,180C620.48,178.17,621,175.42,621.6,171.74Zm-7.08-15.18.69-1-.15-.69q2.41,3.1-.82,3.45C614.39,157.36,614.48,156.78,614.52,156.56ZM612.62,170c1.65.69,2.61-1.8,2.87,2.1s-.36,6.08-1.85,6.54q-1.7.69-2.13-6.54C611,168.42,611.41,170.91,612.62,170Zm1,33.44a18.21,18.21,0,0,1-1.46-10.67c1.27-.23,2,.91,2.09,3.44Q615.14,202.07,613.59,203.43Zm-4.87-52q1-1,1.44-.69l.88,2.76c.13.23.06.68-.22,1.37h-.53l-1.43-1A2.72,2.72,0,0,1,608.72,151.39Zm2,73.24c.34-5.48,1.64-2.77,3.83-1.76-3.43,7.78-6.65,15-6.91,14.86C602.65,235,610.08,232.21,610.76,224.63Zm-7.71-15q-.79-1.72.63-7.24l.06-.34q2.22-.69,2.15,3.1A5.19,5.19,0,0,1,603.05,209.64Zm3.18-42.12a28.93,28.93,0,0,0,.52,2.85c.17,1.15.29,2.06.35,2.75q2.05,10.33,1.08,13.09c-3.22.24-5.5-2.07-6.85-6.88l-.88-3.32c-.62-2.39,1.66-18.26,3.57-30.26.25.61.49,1.21.68,1.82C609.12,157.25,608.93,160.93,606.23,167.52Zm-5.65-68.2q2.26.69,2.25,4.13a7.66,7.66,0,0,1-1.1,5.17,3.27,3.27,0,0,1-1.57-1.72Q599,104.14,600.58,99.32Zm.88,17.56,1.36,3.1c1.21-.91,2.32-.69,3.34.69-.13,1.84-.45,2.76-1,2.76h-2.91L600.64,119c-1.11.15-2.25,4.41-3.4,6.65l-.23-.42a5.91,5.91,0,0,0-.64-.91,29.65,29.65,0,0,1,1.83-3.67C599.42,118.61,600.5,117.35,601.46,116.88Zm-3.82.69a9.12,9.12,0,0,1-3.19,4.31c-.3-.38-.63-.8-1-1.24C593.26,117.42,594.65,116.39,597.64,117.57Zm-1.88,9.37a.51.51,0,0,1-.15-.07.14.14,0,0,0,0-.06A.8.8,0,0,1,595.76,126.94ZM569.6,92.44l-.16,0a4.22,4.22,0,0,0-.36-.76Zm-6.7.3L569,96.26c.13.13,1.32,2.34,3.53,6.55a22.71,22.71,0,0,0,1.1-4.65c4.43,6.29,9.5,13.34,14.2,19.34a6.32,6.32,0,0,0-2.16-.93c-8.15-2.06-8.29,8-9.21,7.09-3.55-3.22-6.22-16.47-8-20.6a22.61,22.61,0,0,0-6.3-8.76A3.82,3.82,0,0,1,562.9,92.74Zm5.32,42.69a3.34,3.34,0,0,1-3.31,2.42q-.48-6.9,3.61-7.58A8.82,8.82,0,0,1,568.22,135.43Zm-7.46-36.36.18-.38c1.64,1.64,2.45,3.22,2.36,4.71a3.39,3.39,0,0,1-3.49-1.37c-.23-.29-.41-.55-.62-.83A11.65,11.65,0,0,0,560.76,99.07ZM553,113.92l1,2.58c.61,1-1.64,2.31-3.77,3.93l1.15-2.1A38.66,38.66,0,0,0,553,113.92Zm-1.05-2.74a3.06,3.06,0,0,1-.88,1l-.6-1.56h0l1.35.21Zm-3.47-5.74,1.45,3.81a5.78,5.78,0,0,1,1.15,0,8.35,8.35,0,0,1-1,.35l-.15-.4a6.89,6.89,0,0,0-3.25.89h0A10.94,10.94,0,0,1,548.43,105.44ZM547,124a5.09,5.09,0,0,1-2.21.93q-1.68-3.55-.07-9.32c.33-1.92.93-2.9,1.78-3a6.17,6.17,0,0,0,1.75.6c.65.55,1.21,1,1.66,1.43a17.56,17.56,0,0,1-1,6.82A6.3,6.3,0,0,0,547,124Zm.46,3.19c-.17.18-.21.1-.1-.28Zm-2.54-59.29c1.1.36,1.19,1.27.29,2.74-2.92,1.12-4.47.31-4.68-2.43C543.08,68,544.54,67.94,544.91,67.93ZM525.24,77.4a1.2,1.2,0,0,1,.29,1.65C524.8,78.87,524.7,78.33,525.24,77.4Zm-3.84-.24a1.86,1.86,0,0,1,1.65-.29,3.46,3.46,0,0,1-1.64,1.93Zm-5.15,6.89c.34-2.37,1.16-3.57,2.44-3.58,0,.18-.18,1.56-.52,4.12a12.36,12.36,0,0,1-1.07,3.84C516,87.71,515.71,86.25,516.25,84.05Zm-20.39,22.36a1.85,1.85,0,0,1,.28,1.65c-.37-.18-.55-.64-.56-1.37Zm-5.79-3.24c-.17.73-.63.92-1.36.55ZM481,95.28a8.37,8.37,0,0,1,3.6,5.46c-2.18.56-3.84-.7-5-3.8Zm3.91,10.12-2.19.29a2.2,2.2,0,0,1,.1-2.53A8.45,8.45,0,0,0,484.88,105.4Zm-33.17-28c.17.31.2.5.15.63l-.44-.33Zm-.63,71.42q.32-.83.48-1.32a2.08,2.08,0,0,1,.47-1c.32-.55.64-.82,1-.82q.48.5,0,8.88c-.21,5.38-.36,8.23-.47,8.56q-.94.17-1.11-.33a2.57,2.57,0,0,0-.16-.65,2.31,2.31,0,0,0-.16-1q-1.57-4.6-1.11-6.42a8.89,8.89,0,0,0,0-4.11l-.79,1.64h-1.27l-.31-2.63a3.18,3.18,0,0,1,3.17.33A5.3,5.3,0,0,0,451.08,148.86Zm.48,60.55c1.27-.22,2-.33,2.06-.33.53.11.85.66.95,1.65a6.07,6.07,0,0,1-5.07,1.48C449.18,210.68,449.87,209.74,451.56,209.41Zm-3.49-10.36q-1.26-1.16.48-8.07.63-3.12,2.22-3.78c1-.55,1.42.27,1.42,2.47Q452.19,198.22,448.07,199.05Zm-.79-78q1.43,1.15,1.74,4.6a4.67,4.67,0,0,1-.47,2.64c-.21.55-.8.66-1.75.33-.73-2.41-1.11-3.73-1.11-4C445.91,122.8,446.43,121.6,447.28,121.05Zm.47,33.24a25,25,0,0,1,1.27,5.1,19.84,19.84,0,0,0,1.27,4.11,11,11,0,0,1,.95,7.57,68.3,68.3,0,0,0-1.11,7.57,9.65,9.65,0,0,1-.47,4.77q-3,7.41-4.92,9.88a9.59,9.59,0,0,0-1.42,2.3c-.64,1.1-1.06,1.81-1.27,2.14-.84,1.32-1.8,1.26-2.85-.16q-1.9-2.48,0-6.42a4,4,0,0,0,.47-.82,7.86,7.86,0,0,0,.64-1,11.54,11.54,0,0,0,.79-2c-.32-.21-1.37.33-3.17,1.65a8.58,8.58,0,0,1-4.28,1.81,2.27,2.27,0,0,1-.79-.49,2.36,2.36,0,0,0-.95-.33q-3.33-1.32-3.33-5.43v-5.92a6.62,6.62,0,0,1,.63-2.47c.63-1.87.9-2.64.79-2.31l4.92-9.05a6.15,6.15,0,0,0,1.11-2,3.08,3.08,0,0,1,1.42-1.81,3.5,3.5,0,0,0,1.43-1.32l-.16-.16q0,.16-.63-.66a1.85,1.85,0,0,1-.64-1.15,10.53,10.53,0,0,1,.79-2.8c.53.33.8,1.75.8,4.28l3.48-2.47q.17-.33,1-1.65a14.66,14.66,0,0,1,1.1-2C445.75,151.82,446.8,152.2,447.75,154.29Zm-1.1,44.59a1.73,1.73,0,0,1-1.59,1.81c-.95-1.31-.95-2.25,0-2.79S446.65,197.56,446.65,198.88Zm-16-7.73a4,4,0,0,1,4,1.32c-.53,1.31-1.37,1.81-2.54,1.48A2,2,0,0,1,430.64,191.15Zm.63,26.49a3,3,0,0,1-.63,2.14c-.53-.21-.95-.87-1.27-2a18.65,18.65,0,0,0-.63-2.14,1.37,1.37,0,0,1,1.42-.16A1.82,1.82,0,0,1,431.27,217.64Zm3.17-60.06a5.65,5.65,0,0,0,.95-2.3c0-.11.43-.17,1.27-.17.21.33,0,1.49-.48,3.46a25.8,25.8,0,0,1-3.32,7.41,3.65,3.65,0,0,1-1,1.31c-.41-.55-.36-1.53.16-3Q434.76,157.08,434.44,157.58Zm.16-21.72c.53-1.53.9-2.52,1.11-3a3.31,3.31,0,0,1,2.06-2q1.59,7.58-4,10.7C433.28,140.86,433.54,138.93,434.6,135.86Zm4.91-4.77q-1.42-1.32-.63-5.1,1.11-5.43,1.11-4.78c0-1.75.21-2.85.63-3.29a1.68,1.68,0,0,1,.32.83Q440.94,127.14,439.51,131.09Zm1.75-3.79c.31.11.84,1,1.58,2.8q1.28,3.12.79,4.61-2.06-.5-2.69-4.94V128A.93.93,0,0,1,441.26,127.3Zm4.12,3.46q-1.11-.33-2.54-3.79a8.33,8.33,0,0,1-.32-5.1,23,23,0,0,1,.8-3.62c.42.55.84,2.53,1.26,5.92ZM440,94.23a7.13,7.13,0,0,1,.79-1.48c1.16-1.43,2-2.2,2.53-2.31a5.07,5.07,0,0,1-1.9,4.94A3,3,0,0,1,440,96a2.66,2.66,0,0,1-.16-.82A4.44,4.44,0,0,1,440,94.23Zm-2.38,1.48a3,3,0,0,1,.48,1.48,2,2,0,0,1-.48,1l-.79-.49A9.49,9.49,0,0,1,437.61,95.71Zm-19.38,34.92a2.18,2.18,0,0,1-.19,2.15C417.32,132.33,417.39,131.61,418.23,130.63Zm-.41,5.63a17.33,17.33,0,0,0,2.07-1.95,8.5,8.5,0,0,1,1.44-1.21,8.38,8.38,0,0,0,1.71-1.36l.31-.37.27-.16a3.79,3.79,0,0,0,1.2-2.37c-.07-.45.27-1,1-1.52l4.5,3.9c.08.12.72,2.05,1.9,5.72,2.06-3.2,3-6.59,1.89-10.45-.56,0-1.17-.35-1.85-1.22a21.34,21.34,0,0,1-.67,3.16,4.72,4.72,0,0,1-3.49-1.69q-2.28-1.84,1.34-4.32l1.85,1.53a7.44,7.44,0,0,1,1.41-1.44,75.51,75.51,0,0,0-4.05-9.08,5.82,5.82,0,0,1-3.28.57,9.18,9.18,0,0,1-1.09-.35l.15-.16a10.46,10.46,0,0,1,2.22-2.47,29.45,29.45,0,0,0,5.55-4.28,12.19,12.19,0,0,1,2.85-2.14q5.4-2.8,5.71-1.32c-.1-.22-.42.71-.95,2.8a8.68,8.68,0,0,0-.32,2.3,72.76,72.76,0,0,1-1.74,13.49L433,137.18a52.06,52.06,0,0,0-1.74,5.76l-2.22,5.43a7.13,7.13,0,0,1-.79,1.48,3.28,3.28,0,0,1-.48.82,24,24,0,0,1-5.23,6.09c-1.16,1.21-3.53.88-7.13-1a6.6,6.6,0,0,1-1.25-.72c3.06-3.35,6.66-6.41,10-9.41a8.38,8.38,0,0,0-2.83,1.78c-.6.6-1.41,1.43-2.43,2.52s-2.79,2.83-5.05,4.89c-.15-.11-.3-.21-.45-.33l-.06.79c-.06,0-.11.11-.18.16l-1.89-.94-.49,3-1.86,1.59a43.55,43.55,0,0,1-4.26,5.18c.3.22.27.29-.17.19l.17-.19a10.28,10.28,0,0,0-1.19-.71c-.28-.2-.53-.12-.77.27a12.72,12.72,0,0,1-1.61,2c.09.32-.19-.63-.87-2.85a19.72,19.72,0,0,1-1.05-3.1,3,3,0,0,1,2.56.37l.46.1.23.06c.41-.49.78-1.95,1.11-4.37q.6-3,4-5.47-1.12.84,3-4.37l1.53-1.63a53.51,53.51,0,0,0,4.22-6.74A8.85,8.85,0,0,1,417.82,136.26Zm9.33,47.82a2.91,2.91,0,0,1-.63-1.81,3.66,3.66,0,0,1,.63-2Q428.43,182.77,427.15,184.08ZM421.92,178a3.11,3.11,0,0,1-.16,1,2.45,2.45,0,0,1-.47.66,2.77,2.77,0,0,1,.15-3A2.88,2.88,0,0,1,421.92,178Zm-6.18-17.44a14.55,14.55,0,0,0,2.06-1.65,3.5,3.5,0,0,1,.32,2.47c-1.69.88-2.43,1.27-2.22,1.15-.95.77-1.53.88-1.75.33S414.37,161.54,415.74,160.55Zm-2.38.82c-.44.85-.32-1.7-.06-5.34l.31-.35.86.43a1.93,1.93,0,0,1,1.23,1.39Q415.44,157.5,413.36,161.37ZM401.59,179c0,.28-.14.33-.27.16l-.18-.26c0-.14.11-.2.27-.16Zm10.05-38.22q-1.38,8.06-6.08,7.63c-.55-2-.08-4.42,1.43-7.16.61-1.47,1.3-2.12,2.07-1.94Q408.37,139.14,411.64,140.78Zm-10.57-17.86q-2.56,2.06-6.36-.59.84-1.78,4.24-3.2a11.13,11.13,0,0,1,6.38-.74C405.26,119.56,403.84,121.06,401.07,122.92Zm1.61,27.91a3.45,3.45,0,0,1-.31-2.05l.36-3c.25-1.26.79-1.94,1.61-2.05Q406.29,148.36,402.68,150.83Zm-3.87,3.73a3,3,0,0,1,1.35,1.64,3.71,3.71,0,0,1-1.75,1.58Q396.75,156.51,398.81,154.56Zm13-14.41.79-1.58,1.33.53A2.66,2.66,0,0,1,411.77,140.15Zm3.52-3.46c-1.1,1.18-3.09,1.37-6,.57a8.7,8.7,0,0,1,6.29-4.94A3.93,3.93,0,0,1,415.29,136.69Zm-4.22-32.61c2.17.35,3.4.56,3.71.64.86.49.8,1.21-.19,2.15C412,107.15,410.8,106.22,411.07,104.08Zm-14.22,4c.38.52.37,1,0,1.31C396.24,109.1,396.25,108.66,396.85,108.07Zm-3.17-1a1.7,1.7,0,0,1,1.42.11,2.71,2.71,0,0,1-1.67,1.16Zm2.77,4.17a5.47,5.47,0,0,1,2.48.79l1.56.58a3,3,0,0,1-.79-3.27,3.62,3.62,0,0,1,2.53-1.83l4.86-1.53a4.08,4.08,0,0,1,1.69,0q4.43.59,1.63,5-2.76,4.2-6,3.47l-2.71-.85-.83.17a15.06,15.06,0,0,1,1.78,2.25q1.23-.15-6,2.58-5.18,1.89-5.33-2.12c-1.21.46-1.95.58-2.23.37a.88.88,0,0,1,.44-1,4.56,4.56,0,0,0,1.52-1.63C392.18,111.83,394,110.85,396.45,111.28Zm-8.17.09c.67-1.75,1.54-2.51,2.61-2.26,0,.14-.39,1.16-1.09,3a8.9,8.9,0,0,1-1.51,2.74C387.49,114.13,387.48,113,388.28,111.37Zm-1.1,108.83c.86-2,3.16-6.75,4.91-5.75C392.3,214.62,388.44,218.41,387.18,220.2Zm5-93.39-2.06-.48.38-1.89a4.91,4.91,0,0,1,2.15,0A6.12,6.12,0,0,1,392.14,126.81Zm27.56,79.48-.52-.65.22,1.84c0-.15-.22-1-.51-2.21a7.27,7.27,0,0,0-.61-1,1.27,1.27,0,0,0-.64,1.65c.22.76-.16,1.31-1.11,1.64a5.24,5.24,0,0,1-.63-3.78,6.07,6.07,0,0,1,1.42-3.13c0-.83,0-1.57,0-2.25-.52-2.19-1.07-4.51-1.58-6.68,0,.18-.07.33-.12.54a7.51,7.51,0,0,0-.16,1.64,15.41,15.41,0,0,0-.16,1.65,6.33,6.33,0,0,1-.47,1.32c0,4.42-.1,8.86-.22,13.31,2.66-.49,3.21.82,1.65,4q-1.11,2-1,7.9a8.72,8.72,0,0,1-.31,2,12.76,12.76,0,0,0-.32,2.63c0,.11.11.27.32.49a1.3,1.3,0,0,1,.12.54l-16.79-27.38c-4.53-7.08-5.15-10.92-1.94-11.57,0-.13.06-.16.19-.06a1.39,1.39,0,0,0-.19.06,25.06,25.06,0,0,0,2.06,5q2.07,4,3.1,2.48a8,8,0,0,0,.24-4.79q.28.94.2-7l.71-9.53a1.53,1.53,0,0,1,1.36-1.24,42.53,42.53,0,0,1,6-13.3c.12-.19.25-.36.37-.54-.56,3.49-1,6.12-.92,6.38.94-.13,2.21-.27,3.86-.41l4.12-.33c1.38.76,1.27,2.46-.31,5.1s-3,3.68-4.28,3.12a8.82,8.82,0,0,1-2.28-2c.66,2.68,1.42,5.34,2.12,7.91a.94.94,0,0,1,1.27-.14c.74.55.79,1.48.16,2.8a8.14,8.14,0,0,1-.48,1c.08.35,1,4.08,2,8.51a10,10,0,0,1,.52-2.09c.19-1.69.36-3.15.53-4.43l-.53-4.46c.4-1.14.94-1.67,1.63-1.64-.25.28-.62,2.32-1.1,6.1l1,8.25a1.16,1.16,0,0,1,.55-.53c.31-.11.53-.5.63-1.16l.16-1.31a17.06,17.06,0,0,0,.16-1.81q.63.17.63,3.45Q419.86,206,419.7,206.29ZM478,335.35a4.39,4.39,0,0,0-.16,2q.31,1.82-.79,9.54a6.91,6.91,0,0,1-.48,2.31,13.87,13.87,0,0,0-.63,2.14,21.45,21.45,0,0,1-.64,4.77c-.36,1.31-5.16,33.36-9.13,61-15.82-40.77-43.8-113.93-42.69-122.31q1.1-8.89,1.1-9.22a74.78,74.78,0,0,1,0-9.87q.24-3.87.32-6.43c.3.48.62,1,.91,1.43a2.16,2.16,0,0,1,0-.45c.9-4.49,2.46-6.71,4.68-6.63q.7,1.26-.62,9.11a14.46,14.46,0,0,1-.86,3.69c.77,1.51,1.47,3.05,2.15,4.62a3.06,3.06,0,0,1,.84-1q5.31,3,7.64,10.39c1.62.24,3.36.4,5.09.58-.54-6.39-.92-9.48-1.11-9.17,1.46-2.22,2.65-4.13,3.61-5.77-.7-2.58-1.53-5.12-2.46-7.63a4.83,4.83,0,0,1-.45.34,3.12,3.12,0,0,1-2.69.27c-.35-2.29.06-3.88,1.2-4.8-.4.24-.34.13.19-.31-4.08-9.87-9.23-19.34-13.12-28.72a17.4,17.4,0,0,0-1.19,2.83,57.64,57.64,0,0,1,2.55-9.41c.19-.37.41-.73.62-1.1l-.13-.14-.32-.49a1.7,1.7,0,0,1-.31-.66l-.06-.1a3.18,3.18,0,0,0,0-.4s-.06.06-.14.22l-.57-1c-1.09,1.07-1.55,1.54-1.34,1.4l-1.3,6.63c-1.82,3.92-3.82,8-4.52,8.12l-.27-.45a31.29,31.29,0,0,1,0-8.72c.95-10.64,2.11-14.06,3.38-15.05-.39-.2,1,2.51,4,8.07.62-.61,1.43-1.4,2.46-2.39l.09-.09c.93-4.25,1.75-6.84,2.45-7.73q5.24-6.26,9.67,1.15c2.54-.77,3.65-1.15,3.33-1.15,1.16-.11,1.9.66,2.22,2.3.32,1.32.37,2,.16,2.14-.11.33-.37.28-.79-.16a.94.94,0,0,0-1.43,0q-.32.49,1.9,3.78c1.9,3,2.85,4.07,3,8.13s-.42,6.25-1.27,6.91q-1.42-.33-5.55-8.88c-.84-1.87-1.42-.45-1.85-.56-.95,3.51-.84,4.45.43,7.63a5.37,5.37,0,0,0,1.11,2,10.91,10.91,0,0,1,1.11,1.31c.21.44.52,1.21.95,2.31s.68,2,.79,2.47l4,5.59c.32.55,1,1.81,1.9,3.78A23.73,23.73,0,0,0,456.9,257c1.37,2,2.11,3.07,2.21,3.29a2.09,2.09,0,0,0,1,1.16,8.39,8.39,0,0,1,.95.82,30.1,30.1,0,0,1,5.7,17.77q0,3.29,2.37,8.38c.13.17,1.07,1.6,2.86,4.29a49.41,49.41,0,0,1,4.44,10.36,43.54,43.54,0,0,1,.45,5.57c-.71-1.28-1.13-2-1.21-2.08-1.15-2.49-2.1-4.68-2.87-6.62.37,4.46.62,8.89.81,13.31.16.25.31.47.47.73l3.13,4.17.17,5.49a7.12,7.12,0,0,0,.32,3.46,20.91,20.91,0,0,1,.79,5.76A8.55,8.55,0,0,1,478,335.35Zm-45.27-58.94c-1.24.59-1.67,0-1.31-1.85s.93-3,1.68-3.57a3.78,3.78,0,0,1,.89,1.52,4.71,4.71,0,0,1,.44,1.43C434.52,275,434,275.81,432.71,276.41Zm1.94,1.11q2.67,1.05,2.26,4.26a6.24,6.24,0,0,1-1.43-1.21,5.09,5.09,0,0,1-1.64-2.58C433.79,277.4,434.07,277.24,434.65,277.52Zm8.72-5.26c1.66-1.08,2.08,0,1.29,3.16s-1.46,4.88-2.05,5.47a5.17,5.17,0,0,1-1.67-3.68Q440.34,274.21,443.37,272.26Zm12.31-152.69a2.06,2.06,0,0,1-2.54-1,2.85,2.85,0,0,1-.47-2.31,2.3,2.3,0,0,1,2.69.5A2,2,0,0,1,455.68,119.57Zm.16,3a1,1,0,0,1-.32,1,2.64,2.64,0,0,0-.48-.65l-.15-.33c-.11-.11.05-.33.47-.66Q455.84,122.2,455.84,122.53ZM466.62,213q2.06.33.16,3.45a1.07,1.07,0,0,1-1,.5,2.4,2.4,0,0,1-.95-2.31C464.87,213.47,465.45,212.92,466.62,213Zm-1-15.14c0-2.41.22-3.89.64-4.44.74.11,1.37.82,1.9,2.13a10.78,10.78,0,0,1,1.11,3.29c0,1.87-.58,2.37-1.74,1.49S465.66,198.66,465.66,197.89Zm6.45,56.51a3.61,3.61,0,0,1-1.9,2.63q-1.59.83-1.75-2.63c.32-.66,1.11-1,2.38-1C471.9,253.41,472.32,253.74,472.11,254.4Zm-.95-6.42c0-2.19.58-3.51,1.74-3.95a13.48,13.48,0,0,1,1.43,2.3c.95,3,.69,4.56-.79,4.78S471.16,250.17,471.16,248Zm-3.33,3.29a26.35,26.35,0,0,1-1.27-4.93,7,7,0,0,0-.16-1.32,4.7,4.7,0,0,0-.15-1.32,28.08,28.08,0,0,1-.64-4.6c0-.33.42-1,1.27-2a24,24,0,0,1,1.9,3.29,21.4,21.4,0,0,1,1.43,4.28A10.68,10.68,0,0,1,467.83,251.27Zm-3-14.64q-1.27-2.81-.79-4.28c1.05-.22,1.85.55,2.37,2.3C466.3,236,465.77,236.63,464.82,236.63Zm2.06-5.43c.95,0,1.53.32,1.74,1a5.06,5.06,0,0,1,.48,1.48l.63,2Q468.62,235.31,466.88,231.2Zm-2-2.37a2.57,2.57,0,0,1,.16-1.49c1.48-.33,2.17-1.19,2.17,2.21C466.24,229.33,465.51,230.69,464.87,228.83Zm1.11-6.42a4.2,4.2,0,0,1-.79,2.79c-1.69-.87-2.11-2.41-1.27-4.6A1.81,1.81,0,0,1,466,222.41Zm18.31,69.31a21.72,21.72,0,0,0-.25,2.75c0,.58,0,2.48,0,5.75l-.46,12.07q.31,6,.05,6.31a3.7,3.7,0,0,1-2-1.38q-.45-12.47-1.05-24.92a12.17,12.17,0,0,1-3.62-3.84l-.34-.55c1.81-.8,2.7-1.25,2.64-1.35,1.12-.06,2.93.63,5.5,2.14A15.05,15.05,0,0,1,484.29,291.72Zm0-5.75-1.11-1.36a36.38,36.38,0,0,1,2.45-3C487.25,283.39,486.8,284.85,484.25,286Zm5.05-21.15c-.18.73-.35,1.65-.53,2.75a18.64,18.64,0,0,1-.52,2.47l-1.89,4.12a6.16,6.16,0,0,1-1.89,4.4q-7,5.71-7,5.89l-2.09.87c-.8-1.81-1.73-4.21-2.8-7.23l-1.27-3.95q-2.38-9.54-.79-13a11.41,11.41,0,0,1,.63-1.48c.42-.66.69-1.09.79-1.31s.32-.88.64-1.65.37-1.32.47-1.65a1.75,1.75,0,0,1,2.54-.66,2.79,2.79,0,0,1,.77.58c-.19-1-.38-1.93-.56-2.9a5.9,5.9,0,0,1-.37-.47,5.51,5.51,0,0,1,.18-.57q-1-5.66-1.85-11.43a86,86,0,0,1-4.35-9.39c-2.22-5.27-2.33-7.42-.43-11.26a17,17,0,0,0,.8-2.14,7.92,7.92,0,0,1,.79-2.3l2.38-.17,1.89,4c.69-4,1.46-8,2-12.06,0-.53.05-1.08.09-1.62-.32.71-.61,1-.85.81q-3-2.47-.95-8.4l1.26-3.95a2.55,2.55,0,0,0,.16-.55q-.3-5.13-.77-10.27a1.64,1.64,0,0,1-.34.29c-.63.22-1.69-.05-3.17-.82-.84-.44-2.22-1.92-4.12-4.44-1.05-1.42-1.64-2.25-1.74-2.47a6.38,6.38,0,0,1-.61-4.87c-.33-.76,0-4.53-.82-4-1.37,1-2.06.22-2.06-2.31l.24-6.68c-.19-.46-.26-.75-.17-.76s.08,0,.19.16l.06-1.6c0-5.49.74-8.61,2.21-9.38.53.39.59-1.48.37-4.51a.47.47,0,0,0-.05-.1,7.56,7.56,0,0,1-.3-3.87c-.88-8.64-2.75-21.25-3.15-25l-1.46,1.52a11.06,11.06,0,0,0-2.22,2.63,5.58,5.58,0,0,1-5.23-3.46l-.32-.65a41.13,41.13,0,0,0-1.11-4.12,7.5,7.5,0,0,1-.31-3,7,7,0,0,0,0-2.14,25.38,25.38,0,0,1,.32-9.87c.05-.14.07-.32.11-.47a12.17,12.17,0,0,1,5.25,1.93c1.66,1.08,3.59,3.72,5.82,7.9q2.22,3.56,2.22,4.65a8.9,8.9,0,0,0,.56,1.64q2.24,4.65-.19,10.14c-.57,1.4-1.15,2.64-1.73,3.76.52,1.3,1,2.6,1.49,3.91a1.1,1.1,0,0,1,0-.54q2.42-8.23,5.95-11c2.22,3.09,3.24,5.83,3.08,8.2,0,2.74-2,4.23-6,4.43-1.64,0-2.59-.26-2.92-.78.39,1.06.76,2.13,1.13,3.19a27.74,27.74,0,0,1,5.1.86q1.65.54,2.49,3.27a9,9,0,0,1-1.31,7.14,6,6,0,0,0-.82,1.65,4.56,4.56,0,0,1-1.28.93c.34,1.34.69,2.67,1,4a43.71,43.71,0,0,0,5.27,2.14c2.57,2,13.8,15.86,7.49,12.83-12.52-6-11.45-3.39.74,24.77,0,.73,0,1.56,0,2.47.19,1.09.29,1.74.29,1.92,0,1.09-.9,1.74-2.72,1.94-.2-.91-.48-2.28-.86-4.11-.38-2-.67-3.46-.85-4.38l-4.1-12.49q.63,7.56.89,15.2L480,191.9q2.24,4.38,2,4.92c-.54.55-1.28.38-2.2-.53a15.52,15.52,0,0,0-1.46-1.1c.05,3.64.05,7.3,0,10.95a6.33,6.33,0,0,0,1.09-.62l-.11-.18c.21,0,.23.06.11.18a23.31,23.31,0,0,1,3.25,8.84,9.07,9.07,0,0,0,1.67,4.37,10.85,10.85,0,0,1,1.67,3.83c.95,4,1.47,5.08,1.67,8q0,5.49,1.15,6.85a4.48,4.48,0,0,1,.84,2.73Q489.83,263.18,489.3,264.82Zm.58-151.51q-4.67.31-4.7-4.62c0-.18.08-1.1.25-2.75q3.57,0,4.69,3A7.54,7.54,0,0,1,489.88,113.31Zm3-5.5q2.2,2.18,0,4.66a7.78,7.78,0,0,1-1.1-.82Q490.39,108.92,492.85,107.81Zm5.83,48.62c-1.59-.65-2.3,2.77-2.16,3.16-.38-.91-.75-1.73-1.12-2.46q-2.76-3.54-1.95-5.19c.35-1.1,1.36-1.47,3-1.12a4.3,4.3,0,0,1,3,2.17C499.93,154,499.64,155.16,498.68,156.43ZM521,171.85a7.58,7.58,0,0,1-1.11-1.91c0,.18.36-.18,1.09-1.11A3,3,0,0,1,521,171.85ZM524.21,161c-1.52,2.23-3.63,2.53-6.3.93.07,10.44-.17,16.06-.7,16.77a3.21,3.21,0,0,1-2.18,1.66,43.47,43.47,0,0,1-6,2.24q-8.77.08-8.26-4.59c0-2.38,1.24-4.85,3.79-7.44a33.1,33.1,0,0,1,3-1.66,7.17,7.17,0,0,0,3.27-3,16.8,16.8,0,0,0,2.37-5.74l-.47-.13c.06-.56.12-1.15.2-1.71a10,10,0,0,0-2.06,1.16c-.6-.18-1.1-.34-1.41-.46l.83.89-.33.24a7.55,7.55,0,0,1-3,1.39,2.14,2.14,0,0,1-2.21-1.63c-.1-.51-.6-.77-1.4-.81a5.33,5.33,0,0,1-1.08-2,11.77,11.77,0,0,1,1.92.54c2.56.71,4.2.61,4.93-.32a12.25,12.25,0,0,1-5.51-3.24q.56.27-2.51-6.57a8.56,8.56,0,0,0-1.64.57,9.53,9.53,0,0,1-2.46,1.11c-2.94-2.9-3.88-5.18-2.79-6.83,0-.37.54-.92,1.63-1.66.54-.55,2.19-1.11,4.92-1.68,0-.73-.56-1.55-1.66-2.46-.37-.54.17-1.55,1.62-3l.37-.26,10.55,2.4c2.19-1.48-3.92-6.86-3-6.87a14.6,14.6,0,0,1,12.66,8.13q3.9,7.94,3.92,10.12Q525.3,159.1,524.21,161ZM500.69,159l1.3-.25a2.59,2.59,0,0,1-.05.47c-.33.06-.65.1-1,.19C500.83,159.24,500.76,159.12,500.69,159Zm23.64-56.9-2.47,0,0-2.46a5.51,5.51,0,0,1,2.47-.57A8.46,8.46,0,0,1,524.33,102.08ZM521,89.5q-1.92,1.4-2.46,1.11a1.24,1.24,0,0,1,.26-1.37,6.2,6.2,0,0,0,1.35-2.48c.71-3.29,2.52-5,5.45-5.24a5.89,5.89,0,0,1,3,.24l1.92.26a3.86,3.86,0,0,1-1.67-3.82,4.67,4.67,0,0,1,2.45-3l5.18-3.34a4.68,4.68,0,0,1,1.91-.56q5.21-.58,3.06,5.74-2.16,6-6,6.07l-3.3-.25-.9.47a16.59,16.59,0,0,1,2.57,2.26q1.37-.56-6.27,5Q522.07,94.42,521,89.5Zm21.11,39.32a4.73,4.73,0,0,1-.84-2.47l-.3-3.83c0-1.65.44-2.65,1.35-3Q545.6,124.68,542.06,128.82Zm-15.86-33q.52-2.47,4.07-5.25a12.62,12.62,0,0,1,7.11-2.79c.19,1.46-1.07,3.76-3.79,6.88Q531.15,97.92,526.2,95.77Zm9.63,78.89c-4.12-4.48-1.64-1.79,1.75.69Zm3-35.95q-2.21-1.08-.31-4.11a3.45,3.45,0,0,1,1.93,1.63A4.89,4.89,0,0,1,538.85,138.71ZM545.2,145a17.17,17.17,0,0,1-1.35,3c.18.37-.37-.72-1.67-3.27a26.17,26.17,0,0,1-1.94-3.55,3.29,3.29,0,0,1,3-.3h.82q.54-1.1.23-5.76a11.26,11.26,0,0,1,1.65-5.6c.18.81.36,1.61.53,2.42a2.82,2.82,0,0,0-.33-2.8,18.88,18.88,0,0,1,1.31-1.88c.25.76.57,1.65,1,2.69a9.52,9.52,0,0,1,1,3.45c-.08.53-.91.85-2.44,1,.18.8.36,1.61.53,2.41.58.46,1.19.94,1.83,1.43L547,144.05a3.54,3.54,0,0,1,.65.78l-.06.11.15.08a1.09,1.09,0,0,1,.08.15,1,1,0,0,1-.38.06l.15-.29a11.24,11.24,0,0,0-1.52-.53C545.65,144.23,545.37,144.42,545.2,145Zm21.57,89.26a2.13,2.13,0,0,1-1.51,2.76A2.13,2.13,0,0,1,566.77,234.23Zm4.35,22.39-3.56.68a8.74,8.74,0,0,1-1.22-7.23c2-.22,3.41.23,4.28,1.38Q572.26,252.83,571.12,256.62Zm21-32c-1.57,2.07-2.84,1.74-3.7,3.8a5.37,5.37,0,0,0,0,3.1,6.35,6.35,0,0,1-.81,4.1,1.28,1.28,0,0,1-.09-.22c-.4-1.42-8.12-5.47-8.4-6.54-1.5,3.94,6.11,7.36,4.94,11.6,0,.21,0,.42,0,.63-.75,1-1.51,1.92-2.37,2.84-4.48,4.82-3.1,4.19-4.62,3.73a9.12,9.12,0,0,1-4.38-2.41,15.43,15.43,0,0,0-3.27-2.76,4.42,4.42,0,0,1-1.42-1q-.48-.35-.18-5.51c.09-1.16-.47-3.73-1.4-7.14.79-1.55,1.54-5-.39-1.47l0,0c-2.83-10-8.24-25.67-11-35.73.53,4.57,1,8.85.9,7.62l9.55,28.81c0,.05,0,.07,0,.11-4.25,6.54-12.89,6.77-10.54-3.59l-2.22-1c.6,56.36.11-40.31-5.11-20.15.4-1.37-1.32-9.92-.57-11.3.38-.83,4.2-8.33,6.46-13,.11-.59.22-1.19.35-1.81h0c.12-.58.24-1.19.37-1.8h.58a.87.87,0,0,1,.59-.35,1.53,1.53,0,0,1,.42.31,1,1,0,0,0-.68.1,1.71,1.71,0,0,0-.59.86c-.2.27-.43.57-.69.88l.33.17c0,.15-.08.32-.12.49l.22-.46a.49.49,0,0,0,.19.06,2,2,0,0,0,1.6-1.05,2.15,2.15,0,0,0,0-.7,1.27,1.27,0,0,1,.18.37,2.66,2.66,0,0,1-.21.33,19.16,19.16,0,0,1-2.81,5.85,43.89,43.89,0,0,1,.8-4.4l-.56,1.16c-.24,1.25-.45,2.46-.63,3.6h0A53.1,53.1,0,0,0,552,194c.1,0,.51-6.09,1.22-11.29h.25c-.26,1.3.39,4.56,1.56,8.9-.44-3.82-.94-7.83-1.28-8.94,1.5-.26,3.7-1.3,5.16-.86-.41-2.35-.49-6.15.66-12.82-.61,0-3.35-1.78-6-3.56-.94-11.85,7.5-19.54,17.39-29,.15-.33.25-.74.42-1a7.63,7.63,0,0,1,1.38-.34c.14.23.66.23,1.59,0a7,7,0,0,0,1.38-.34,4,4,0,0,1,1.38-.35,5.08,5.08,0,0,1,.38,1c5.3.8,6-7.06,9.82-2.17.57,0,1.29,4.95,2.2,5.37a3.37,3.37,0,0,1,2.25,4.13c-.1.61,11.94,1.19,11.71,1.75.1.21.19.43.28.64-2.22,12.46-5,29.6-4.66,32,.16,1.16.36,2.43.62,3.87q1.74,9,4.91,10.67c2.47,1.15-8.35,6.09-8,14.82.7,11,.25,15.51-1.25,18.26C594.82,226.18,593.76,222.1,592.12,224.62ZM623,231.15a9.15,9.15,0,0,0-1.8.95l-2.05-.5a7.85,7.85,0,0,0-.94.54,2.85,2.85,0,0,1,1.48,1.12c-.36.33-.71.69-1.05,1.07a9,9,0,0,0-.62.84,6.07,6.07,0,0,0-1.74.1,13.55,13.55,0,0,1,1.59-2.89l.34-.24c-1-.19-1.78.85-2.19,3.66.09-.17.15-.3.23-.47a3.82,3.82,0,0,0,1.42.32,9,9,0,0,0-1,2.36c-1.31-.25-3.16-.64-5.59-1.16l-.71,9c-.51,0,1.6,3.58,4,7.47a80.73,80.73,0,0,0-1.86,11.18c-5.53-4.92-12.91-13.29-13.3-13.66-.72-.78-4.25,7-4.1,3.38.14-2.39.27-4.15.38-5.35l1.2-2.53c.29-.69.85-2.52,1.68-5.51a15.92,15.92,0,0,1,1.91-4.55c.14.14.26.27.43.43l6.17,4.47c.24.23,1.64-1.31,1.85-1.11.28-.51,3.48-8.54,6.8-16.89a2.72,2.72,0,0,0,1.28-.11q7.61-2.75,10.07-6.54a12.28,12.28,0,0,1,2.76-2.26c.08-.57.13-1.16.21-1.73a29.26,29.26,0,0,1-.1,4.91c3.31-.64,7.88-1.59,7.67-1.42a12.44,12.44,0,0,0-2.84,2.27,21.23,21.23,0,0,1-2.67,2.06,21.83,21.83,0,0,1-2.83,1.82c-1.44,1.39-3.22.22-5.22,1.28a6,6,0,0,0-1.87,3.18c1.13-.21,1.86.35,2.14,1.78C624.2,228.68,623.82,229.62,623,231.15Zm6.36,33.67.07-.2a17.22,17.22,0,0,1,4.25-6.47q.73,2.66-1.18,7.71a7.31,7.31,0,0,0-1.7.13,1.64,1.64,0,0,1-1.49-.48Zm.39,33.68a4.89,4.89,0,0,1,.08-.63c0,.17.06.34.1.51S629.82,298.47,629.76,298.5Zm2-11.57a.3.3,0,0,0,0,.1c-1.8-3.39-3.78-7.2-5.57-10.84l2,.23q4.79-1.05,6.31.9Zm9.93-4.28a17.72,17.72,0,0,1-1.35,1.79,6.64,6.64,0,0,0-1.07,1.49,15.09,15.09,0,0,1-3,3.89,7.52,7.52,0,0,0-1.83,2.32l-1.9-3.55c.85-2.61,1.88-5.68,3.13-9.31-.14.39.94.28,3.24-.34,1.71-.36,2.65-.4,2.8-.14C642.65,279.9,642.64,281.19,641.65,282.65Zm230-113q5.86-2.85,5.31,1.65c-.36,2.73-3.48.26-6.39-.81A4.31,4.31,0,0,1,871.62,169.66Zm-3,4a11.24,11.24,0,0,1,.88-1.87C869.67,173,869.66,174.18,868.66,173.68Zm-10.07.2c.4.08.32-.66.09-1.5a7.27,7.27,0,0,1,3-1.56q2.42-.31,7.1,2.41c-3.86,1.76-7.31,2-10.36.63Zm-3.75-1.82h-.05C854.72,171.9,854.76,171.94,854.84,172.06Zm-6.17-38a1.53,1.53,0,0,1,.93-.67,2.37,2.37,0,0,1,.93.2c.16.92-.54,1.44-2.1,1.57C848.43,134.53,848.51,134.16,848.67,134Zm-9.29,23.38a9.34,9.34,0,0,1-1.63,4c-1.24,1.84-2-3.6-2.32-1.9-.12.56-2.77-1.51-4-2l7.89-.56A3.87,3.87,0,0,1,839.38,157.4Zm-8.63-7.09c3.1-1.31,5-1.86,5.82-1.63,1.09.53,1.63,1.92,1.64,4.15a4.71,4.71,0,0,0,.61,2.33c-6.69.6-14.37,1.4-21.22,2.06l-3.09-3.76C823.53,151.6,830.64,150.37,830.75,150.31ZM795,157.94l0,0v0Zm-5.22-6.5.2,0a1.43,1.43,0,0,1,0,.29l-.67.16-.18-.21a5.85,5.85,0,0,0-1.3.54l-.41.1a3.13,3.13,0,0,1-.5-.59c.51-.58.72-1,.64-1.42a.89.89,0,0,0-.38-.11l.24-.17s.07,0,.09.07a1.29,1.29,0,0,1,0,.21,6.26,6.26,0,0,1,1.57,1.37C789.35,151.58,789.54,151.5,789.8,151.44Zm-2.41-8.13c0-.06.36.19.92.7a2.24,2.24,0,0,1-.68.66,3.44,3.44,0,0,1-1.46.49,20.72,20.72,0,0,1-.51,2.37C785.22,146.49,785.79,145.08,787.39,143.31Zm-.63,7.16a.91.91,0,0,0-.13.28,1.82,1.82,0,0,0,0,.33c0-.14-.12-.26-.16-.41S786.66,150.54,786.76,150.47Zm-64.14-37.86h.57a1.9,1.9,0,0,1-.68,1.4C722.56,113.52,722.61,113,722.62,112.61Zm-.59,1.14a5.63,5.63,0,0,0,.06.63c-.11.09-.21.19-.34.29a6.11,6.11,0,0,1-1,.54c.06-.24.12-.44.17-.64A2.06,2.06,0,0,0,722,113.75Zm-1.19-8.8.36-.28c.31.82,0,1-.88.54ZM719.29,120a15.57,15.57,0,0,0,1.07-3.28l1.65-1.26q.69.9.63,6.67c-.17,2.93.05-3.83-2.11-1.26a2.86,2.86,0,0,0-1.84.83A17.93,17.93,0,0,1,719.29,120Zm-2.74,23.22a2.91,2.91,0,0,1,.69-.11l.77.13a2.71,2.71,0,0,1,1.14.85,2,2,0,0,1-.09,2.82,2.06,2.06,0,0,1-2.37-1.35A2.83,2.83,0,0,1,716.55,143.24Zm6,109.78a5.12,5.12,0,0,1,.25,1.53c.12.68.23,1.36.35,2q-1.05-.48-2.19-4.8Q722.35,252,722.53,253Zm-.9-20.26c.17-1.19.82-1.65,2-1.37,1.33.41,1.21,1.56-.34,3.44a1.05,1.05,0,0,1-1,.35A2.36,2.36,0,0,1,721.63,232.76Zm-3.11,31.31a30,30,0,0,1,0-4.65c.05-.32.56-.91,1.54-1.77a24.46,24.46,0,0,1,1.41,3.53c.43,1.84.68,3.1.77,3.83a25,25,0,0,0-3.3,2.75c-.15.18-.29.33-.44.49,0-.47-.06-1-.08-1.52a7.56,7.56,0,0,0,0-1.33A4.66,4.66,0,0,0,718.52,264.07Zm1.07-17.3a2.46,2.46,0,0,1,.37-1.44c1.52-.12,2,1.51,1.53,4.88C720.58,249.85,720,248.71,719.59,246.77Zm.84-3.54q-2.32-1.66-.6-4.74a1.81,1.81,0,0,1,1.78,2.09A4.25,4.25,0,0,1,720.43,243.23Zm-2.09-92.42a2.8,2.8,0,0,0-.38-.72l-.11-.35c-.09-.12.1-.31.57-.58a.88.88,0,0,1,.37.72A1,1,0,0,1,718.34,150.81ZM718,252.52c1.08-.07,1.76.81,2,2.62-.3,1.29-.92,1.86-1.86,1.73C717.56,254.9,717.5,253.45,718,252.52Zm-5.32-87.29q.4.56-1.28,8.79c-1,5.29-1.54,8.09-1.7,8.4q-1,0-1-.48a2.45,2.45,0,0,0-.06-.68,2.5,2.5,0,0,0,0-1q-.91-4.78-.18-6.51a9,9,0,0,0,.59-4.07l-1,1.52-1.25-.19.06-2.65a3.19,3.19,0,0,1,3.09.78,4.73,4.73,0,0,0,.48-1.09c.29-.51.51-.92.66-1.24a2.23,2.23,0,0,1,.61-.91C712,165.41,712.32,165.18,712.63,165.23Zm-5.33,52.05q-1.08-1.32,1.63-7.91c.72-2,1.64-3.14,2.74-3.43s1.38.48,1.06,2.65Q711.5,217.07,707.3,217.28Zm4.7,10.1a6,6,0,0,1-5.23.73c-.09-1.56.72-2.39,2.44-2.47,1.29,0,2,0,2.09,0C711.8,225.8,712,226.38,712,227.38ZM711.6,152a4.68,4.68,0,0,1-.85,2.54c-.29.52-.88.54-1.77.08a37.8,37.8,0,0,1-.53-4.07c.48-1.81,1.17-2.93,2.08-3.35C711.37,148.08,711.72,149.68,711.6,152Zm-2.1-40c.14.14.26.28.38.42-.23.31-.48.62-.73.92,0,0,0,0,0,0C709.24,112.9,709.37,112.45,709.5,112Zm-1.85,6.88c.15-.2.31-.41.53-.66s.6-.53.87-.76a5.23,5.23,0,0,1,.18,2.88,5.35,5.35,0,0,1-.71.51c0-1.2,0-2.24-.28-2a4.47,4.47,0,0,1-.6.43C707.64,119.14,707.65,119,707.65,118.9Zm-2.43,30.27c.74-.26,1.22-.3,1.29.06s.24.52.47.32a7.72,7.72,0,0,0,0-3c-.11-.79-.43-.84-.89-.53l.29-.79.81-.64a32.44,32.44,0,0,1,.18,5.26l-.16,6.63q-1.05-.48-2-4.11A7.67,7.67,0,0,1,705.22,149.17Zm-.82-6a1.58,1.58,0,0,1,.19.86.22.22,0,0,1,0,.08l-.94.59A3.07,3.07,0,0,1,704.4,143.13Zm-1.84,17.05c-1.31-.52.44-2.28.45-5.27l.26-1.8a1,1,0,0,1,.41-.6c.3.15.68,1.15,1.16,3C705.38,157.69,703,159.25,702.56,160.18Zm-.22-11.59,1.1-.93c0,.08,0,.16,0,.24.23-.07.39-.15.58-.22-.06.26-.11.51-.16.77a4.75,4.75,0,0,1-1.93,1.37C702.06,149.37,702.21,149,702.34,148.59Zm-.83,2.27,0-.06,2-.91a25.55,25.55,0,0,1-2.09,6.11C700.59,155,700.63,153.29,701.51,150.86Zm-4.79,21.37c.48.4.53,1.85.17,4.35l3.8-2c.14-.2.53-.69,1.18-1.49a15.49,15.49,0,0,1,1.38-1.79c1.35-1.14,2.33-.6,3,1.59a26.33,26.33,0,0,1,.52,5.24,20.83,20.83,0,0,0,.66,4.25q1.3,3.18-.15,7.63a66.41,66.41,0,0,0-2.18,7.33,9.84,9.84,0,0,1-1.16,4.65c-2.7,4.6,2.41,7.62.92,9.06a9.54,9.54,0,0,0-1.74,2.08c-.79,1-1.31,1.64-1.57,1.93-1,1.19-2,1-2.8-.57-1-1.81-.71-3.93.93-6.35a3.91,3.91,0,0,0,.59-.75,6.8,6.8,0,0,0,.76-.88,10.18,10.18,0,0,0,1.07-1.84c-.28-.26-1.4.13-3.37,1.17a8.6,8.6,0,0,1-4.5,1.18,2.53,2.53,0,0,1-.71-.6,2.32,2.32,0,0,0-.89-.47q-3.11-1.77-2.52-5.85c.37-2.5.65-4.45.86-5.86a6.44,6.44,0,0,1,1-2.35l1.11-2.17-.83-6.65c1.75.23,3.79.37,3.66.41-.17-.3-2-.7-3.76-1.19l-.1-.82a6,6,0,0,0,1.38-1.79,3.15,3.15,0,0,1,1.67-1.59,3.36,3.36,0,0,0,1.6-1.1l-.13-.18c0,.11-.19-.14-.53-.75a1.84,1.84,0,0,1-.47-1.23A10.35,10.35,0,0,1,696.72,172.23Zm9.2,44.68a1.74,1.74,0,0,1-1.83,1.57c-.75-1.44-.62-2.36.4-2.77S706.1,215.61,705.92,216.91Zm-11-8.08c-.71,1.23-1.62,1.6-2.72,1.1a2,2,0,0,1-1-3A4,4,0,0,1,694.92,208.83Zm-5.67-28.21c2.48-4.51,3.59-6.63,3.33-6.33a5.66,5.66,0,0,0,1.27-2.15c0-.1.44-.1,1.28,0,.16.35-.16,1.47-1,3.35a24.33,24.33,0,0,1-3.86,6.21C689.52,181.39,689,181,689.25,180.62Zm-.86,17a3.6,3.6,0,0,1,.91-1.87q.9,2.63-.55,3.75A2.92,2.92,0,0,1,688.39,197.58Zm-1.23,31a1.84,1.84,0,0,1,.79,2.28,3,3,0,0,1-.94,2,2.88,2.88,0,0,1-1-2.14,15.21,15.21,0,0,0-.32-2.21A1.41,1.41,0,0,1,687.16,228.59Zm-2.7-35.91a3.34,3.34,0,0,1-.3,1,2.82,2.82,0,0,1-.57.58,2.77,2.77,0,0,1,.58-2.91A3,3,0,0,1,684.46,192.68Zm-3.74-16.17c-1.05.62-1.64.65-1.77.07s.4-1.27,1.9-2.05a14,14,0,0,0,2.27-1.33,3.48,3.48,0,0,1,0,2.49Zm-3.32,69.62c2.44-10.22,4.34-15.78,5.74-16.71,0,.49,1,3.33,2.89,8.49l2.78-2,.1-.07c1.54-4.08,2.72-6.52,3.54-7.3q6.07-5.43,9.41,2.53c2.62-.39,3.77-.62,3.46-.66,1.16.06,1.78.92,1.86,2.6q.18,2-.15,2.13c-.15.32-.41.23-.76-.27a.93.93,0,0,0-1.41-.2c-.26.29.19,1.63,1.33,4a20.05,20.05,0,0,1,1.47,10.86c-.57,3.91-1.32,6.12-2.25,6.65q-1.36-.52-4.21-9.58c-.57-2-1.05-3-1.46-3.21a15.51,15.51,0,0,0-1,10,5.72,5.72,0,0,0,.81,2.12,8.87,8.87,0,0,1,.91,1.46c.15.46.35,1.27.61,2.41s.39,2.11.43,2.56l3.12,6.11c.23.59.68,1.92,1.34,4a31.64,31.64,0,0,0,1,3.17c-.22.27-.43.5-.62.7a5.55,5.55,0,0,1-.77,1,15.15,15.15,0,0,1-1.18,1.33L702,280.7l-.63.13q-3.31.54-5.33-2.68a1.86,1.86,0,0,1-.23-.82l.58.28a9.56,9.56,0,0,0,1.23.54c-8.19-6.33-12.56-10.2-19.16-15.32,2.81-8.66,6.47-19.18,7.88-21.13.23-.34.5-.67.76-1l-.11-.15-.24-.54a1.87,1.87,0,0,1-.22-.69l0-.11a2.81,2.81,0,0,0,.1-.39s-.06.06-.16.22l-.43-1.13c-1.23.9-1.75,1.3-1.53,1.19L682,246.79c-2.83,4.85-5.9,9.8-5.83,8.14A31.21,31.21,0,0,1,677.4,246.13ZM695.14,277c-.4,1.51-1.17,5.72-1.7,5a20.69,20.69,0,0,1-1.77-2.35c-1.29-1.95-1.58-3.43-.86-4.42A19.82,19.82,0,0,1,695.14,277Zm-20.95,4.73,0-.06c1-.67,1.68-.78,2.14-.32a.77.77,0,0,1,0,1.18,4.23,4.23,0,0,1-2.64,2.06C673.9,283.48,674.06,282.53,674.19,281.72Zm-5.36,26.69c1.59-5.76,2.4-8.74,2.43-9a73.63,73.63,0,0,1,1.42-9.77l0-.11c.75-.87,1.58-1.77,2.51-2.69,1.15-1.2,2-1.68,2.69-1.42A9.11,9.11,0,0,1,677,289a29.83,29.83,0,0,0-1.14,3.87c-.79,4.38-1.23,6.89-1.34,7.57,0,0,0,0,0,0s-.05.2,0,0c-.21.45-2,5.88-5.5,16.19C668.59,312.54,668.48,309.66,668.83,308.41Zm.71,12,2.71-7.87q.68-2.47,2.53-7.34a43.19,43.19,0,0,0,2.52-7.33q.74-2.67,5.21-14.08A7.19,7.19,0,0,1,684,285a4.9,4.9,0,0,0,.68.68,13.09,13.09,0,0,0,5.44,1.31,1.22,1.22,0,0,0,.44-.05,11.36,11.36,0,0,1,.76,1.45,1.38,1.38,0,0,0,2,1.67c-3.45,3.91-5.1,5.81-4.88,5.64l-2.16,2.82c.11,1.26.21,2.53.29,3.82,1.82-1.15,2.5-1.57,2-1.22a11.64,11.64,0,0,1,1.11-.77l1.41-.9q8.33-6.81,9.52-7.76l9.75-6.28,2,.16a29.67,29.67,0,0,1,1.75,10.74c-1,1.86-1.63,3.28-1.48,3.56A15.36,15.36,0,0,0,714,298c0,.71-.13,1.43-.23,2.15a15.36,15.36,0,0,0,.19,4.6c-9,10.82-27.58,32.41-27,32.83,1-.85,15.7-17.89,27.08-32.14a33.59,33.59,0,0,0,.82,3.34c.1.2.83,1.74,2.21,4.66a36.31,36.31,0,0,1,1.55,4.63L680.8,373.21a9.42,9.42,0,0,1-.9,1.46C675.32,353.23,671.29,333,669.54,320.44Zm49.63,14.07L718,344.81a7,7,0,0,0-.18,3.47,21,21,0,0,1,0,5.81,8.44,8.44,0,0,1-.83,2.37,4.51,4.51,0,0,0-.44,1.94q.06,1.83-2.16,9.33a6.79,6.79,0,0,1-.8,2.21,14.66,14.66,0,0,0-.93,2,21.78,21.78,0,0,1-1.32,4.63c-.54,1.25-9.91,32.28-17.8,59-3.9-17-9-39.29-13.5-60.54,7.07-10.13,25.12-35.44,39-55.78.38,1.55.74,3.21,1,5A90.15,90.15,0,0,1,719.17,334.51Zm0-47.2-.24-.14a11.4,11.4,0,0,1,1.32-5.22c.09-.18.23-.42.4-.69a7.14,7.14,0,0,1,1.69-.18,27.89,27.89,0,0,1-2.14,4.43C720,285.86,719.63,286.5,719.16,287.31Zm1.12,1.35c2.14-3.22,4.27-6.49,5.76-8.85.77-1.15,1.59-1.65,2.44-1.5a1.06,1.06,0,0,1,1,.37L721.23,294l-.9-5.12C720.31,288.83,720.3,288.74,720.28,288.66Zm19-11.24c-.32.55-1.12,2.56-2.41,6.05,0,.37-.13.81-.24,1.3,0,.64-.06,1.15-.11,1.53q-1.08,4.62-6.43,15l-6.73,9.81c-.22-.38-.43-.78-.65-1.24a25.31,25.31,0,0,1-1.53-4.68,2.54,2.54,0,0,0,.41.71c1.16.91,1.46-.68.9-4.75-.3-1.64-.47-2.55-.52-2.75l-.47-2.65a71.57,71.57,0,0,0,5.13-7.58q2-3.7,9.14-8.79a13.81,13.81,0,0,1,3.51-2c.11-.19.16-.22.15-.05Zm9-54.74q-2.93,14.49-2,13.69a64.9,64.9,0,0,1-6,5.1c.42-.18-.81-.07-3.66.32l-1.27.16c-.82,1-1.69,2-2.6,2.91a10.8,10.8,0,0,1,2.29.31c2,.35,2.66,1,2,1.9-.5.94-1.6,1.26-3.31,1a5.26,5.26,0,0,1-2.85-1.26c-.85.84-1.73,1.67-2.63,2.5a12.38,12.38,0,0,0,3.36,1.86c2,.61,2.87,1.47,2.58,2.57q-.06.57-2.9,4.12a34,34,0,0,1-4.73,4.08c0-.27,0-.53,0-.79a83.33,83.33,0,0,1-3-9.92q-2.16-8.3,1.49-13.59a17.52,17.52,0,0,0,1.09-2,7.87,7.87,0,0,1,1.12-2.17l2.37.18,1.3,4.22c1.27-3.88,2.6-7.74,3.76-11.64.1-.53.2-1.06.31-1.59-.41.65-.74.9-.95.67-1.75-1.92-1.61-2.33.32-6l1.82-3.73a3,3,0,0,0,.24-.52c.29-3.41.52-6.84.71-10.27a1.68,1.68,0,0,1-.38.24c-.65.12-1.66-.3-3-1.27-.78-.56-9.13-2.22-10.64-5-.84-1.56-1.3-2.46-1.38-2.69a6.42,6.42,0,0,1,.11-4.91c-.22-.8.66-4.48-.24-4.09q-2.25,1.17-1.71-2.58l1.2-6.58c-.11-.48-.15-.77-.06-.77s.08,0,.17.18l.29-1.58c.78-5.42,2-8.41,3.54-9,.47.46.79-1.38,1-4.41,0,0,0-.07,0-.1-.27-1.29-2.57,4.62-2.14,3.33.27-6.51,1.67-15.31,2.41-20.87,16.36,2.71,33.09,5.5,33.73,6.95l.86-1.43c-.72-1.78-1.36-3.37-1.6-3.95a8.9,8.9,0,0,0,1.08,1.91c.3.42.54.77.73,1.06,1.91-1.87,7.6,7.64,8.35,6.22-1,2.33-6.53-7.22-7.69-4.86,0,.14,0,.34,0,.5.41.87,1,2,1.88,3.58a1.68,1.68,0,0,1,0,1.73c-.07.26-.91-1.66-1.85-3.91a21.31,21.31,0,0,1-1.47,5.7l-.72,3.53a14,14,0,0,1,4.22-3.1c.77.9,1.76,4.2.27,5a3.77,3.77,0,0,1-2.47.29c2.69-3.22,1-2.32-1.63-.36-.26,0-.44,0-.48.12s0,.19-.06.3c-3.1,2.34-7.11,5.76-7.3,6a6.53,6.53,0,0,1-2.11.35L748.6,173a26.17,26.17,0,0,0,4.74-.83q5-1.43,3.86,1.07c-.55,1.32-4.26-1.92-6.32-.1q-4,3.49-4.4,3.81a4.85,4.85,0,0,0-1.22,2.33,13.28,13.28,0,0,1-.9,2.54,9.7,9.7,0,0,1-5.17,4.86,4.85,4.85,0,0,1-1.13.38c-.5.14-.88.24-1.21.3-.29.71-.59,1.41-.87,2.12a18.2,18.2,0,0,1,4.57-1.4q.51,1.63-1.84,6c-2.36-.42-3.5-1.33-3.47-2.73q-.84,2.23-1.58,4.46c.2.54.41,1.11.63,1.73a3.77,3.77,0,0,0,1.07,1.92c.32.57.44.92.38,1,.24.43,6.66,1.9,4.85,4.4a9.59,9.59,0,0,1-2.51,2.12c-.2,1.25-.37,2.5-.48,3.74h.09a3.74,3.74,0,0,1-.15.84,45.1,45.1,0,0,0,0,7.07c2.16-1.84,3.34-2.8,3.52-2.88.29.31-.33.57-1.77,5.58-.66,1.81-.86,2.61-.59,2.4a5.19,5.19,0,0,1-.67.6c.09.78.2,1.58.32,2.37,2-.09,3.39,1,4.22,3.31,1.06,2.58,2.24-1.87,2.39-5.18a36.71,36.71,0,0,0,3.36-2.18,1.42,1.42,0,0,0,0-.2C748.54,222.44,748.52,222.51,748.32,222.68Zm-23.44-4c.35-2.39.77-3.82,1.26-4.31.72.22,1.25,1,1.58,2.39a10.5,10.5,0,0,1,.62,3.42c-.26,1.85-.91,2.25-1.93,1.21S724.77,219.43,724.88,218.67Zm24.94,52.85a28.46,28.46,0,0,1,3.81-3.59l14-5.62a9.73,9.73,0,0,1,3.48,0c.69.13,1.27.21,1.78.26a20.28,20.28,0,0,0-1.78,2.45,26.77,26.77,0,0,1-3.83,6.48c-3.35-.56-5.92-1-6.2-1.34a14.47,14.47,0,0,0-3.23,2.23C755.49,272.05,752.67,271.78,749.82,271.52Zm14.58,3.67c-.21.24-.34.38-.31.29l-.57-.24Zm19.25,1.55a3.45,3.45,0,0,1-1.24,1.36,3.27,3.27,0,0,0-1,1.4,7.53,7.53,0,0,0-.89,1.82,18.45,18.45,0,0,0-.9,1.83q-2,3.6-10.21,15.18-7.3,10.57-8.66,13.7a13.46,13.46,0,0,1-4.32,5.75c-2.68-.66-4.75-2.54-6.23-5.64a1.46,1.46,0,0,1-.16-1l10.51-29.93q.47-1.31,5.14-4.39l2.35-1.72c6.8-.15,14.69,0,16.63-.09A17.32,17.32,0,0,1,783.65,276.74Zm1.15-2.07c-1.43-.58-7.49-1.52-13.13-2.42a13.35,13.35,0,0,1,4.66-3.15,6.79,6.79,0,0,1,2.18-.37,10.56,10.56,0,0,0,1.24-.06,20.54,20.54,0,0,1,3.09-1.29C785.8,268.75,786.44,271.19,784.8,274.67Zm5.63,5.41a2.59,2.59,0,0,1-2.68-1.13,5,5,0,0,1-.43-3.88l1.2-2a6.22,6.22,0,0,1,2.37,3.47C791.53,278.17,791.37,279.34,790.43,280.08Zm3.51-69.54a4.8,4.8,0,0,1-1.15-1.83,3.43,3.43,0,0,1,2.68-1.07Q797.28,209.8,793.94,210.54Zm3.82-10.85L792.41,201a3,3,0,0,1-.92-1.78l-1.46.52a8.33,8.33,0,0,1-4.6.69c-.52-.11-1-.24-1.48-.38a28,28,0,0,1-6.06,5.7c.71-.06,1.49-.11,2.38-.14q5.19-.18,6.28,4c.48,1.56.58,2,.33,1.27a1.31,1.31,0,0,1,0,.6c.16,0,.27.19.35.47l1.36,4.87a3.09,3.09,0,0,0,.38-2.52,2.91,2.91,0,0,1-.3-2.06q1-2.81,3.48.29a13.22,13.22,0,0,1,2.42,4.08c1.06,2.34.72,3.42-.9,8q-2.22-.24-3.59-2.91a2,2,0,0,0-.81.84,10.17,10.17,0,0,0,.1,4.82c.12.16.74.09,1.88-.22.58,2.24.78,3.62.6,4.12A11,11,0,0,1,789,233a52.23,52.23,0,0,1-7.07,17.21,24.32,24.32,0,0,1-1.88,2.43,8.62,8.62,0,0,0-1.63,2.47,26.44,26.44,0,0,1-1.71,2.67l-.8,1a61,61,0,0,1-3.27-6.58l-.95-.12q-.65-.11-5.61-.41-1.17,0-4.36-2.32c-.66-.5-.75-1.35-.26-2.55a28.73,28.73,0,0,0,.82-3.71,23.37,23.37,0,0,1,1.69-4.9l2.33-4.79a5.3,5.3,0,0,1,1.93-2.22c-.12-5.63.58-8.92,1.91-14.62-.78-.28-4.64,17-5.69,16.62q-3.26-1.35-2.8-4.36l-.11-6.76c-.35-1.49-.33-.55,0-1,.13-.29.8-1.68,2-4.19l1.22-5.76a9.81,9.81,0,0,0,0-1.74c.09-1.89-6-4.81-3.91-8.75a48.94,48.94,0,0,1-.22-5.57l-.21,1.15a3.34,3.34,0,0,1-1.46,1.86.86.86,0,0,1-.36-.64l.47-2.62a7.6,7.6,0,0,1,1.85-4c1.2-10.79,8.53-17.32,18.1-28,.81-2.5-.73,3,.18,2a23.27,23.27,0,0,1,3.17-3,89.77,89.77,0,0,1,9.16-3.05l-.24,4a26.75,26.75,0,0,1,1.89-2.78,8.74,8.74,0,0,0-.68-1.49h0l.92,1.19-.24.3c1.21,3.37,1.88,9.06,1.27,10.1-.3.44-.84.39-1.48.09,0,.17-.06.34-.09.54a4.65,4.65,0,0,0,0,1.16l-5.42,1.94,5.5-1.55a3.15,3.15,0,0,0,.2.7,4.31,4.31,0,0,0,.85,2,10.25,10.25,0,0,1,.92,1.79q.5,1.5-1.19,5.56-1.94,4-1.53,5.1c.3.6.57.79.82.57s.67-.2,1.14.42c.58.78.26,1.19-.94,1.22-1.69-.07-2.8.18-3.34.74a5.15,5.15,0,0,0-1.45,4.11l.07-.18,1.73-1.26a2.21,2.21,0,0,1,2.16.42C792.44,194.76,799,197,797.76,199.69Zm15.69,45.53q-.76,3.65-1.88,4.63c-.5.44-1.72.73-3.65.88a3.24,3.24,0,0,1-.87-1.17,7.76,7.76,0,0,0-1.11-1.22l-5.05-4.6q-1.08-2.82,6.59-7.1a7.56,7.56,0,0,1,3.47-1.12,5.06,5.06,0,0,1,2.21,1c.5.5.78.69.82.56,0,.13.1.22.42.28l1.55-1.49Q815.77,235.67,813.45,245.22Zm.23-59.07q-2.43,6.93-5.27,9.17c-1.79-.76-2.73-1.74-2.81-3a18.9,18.9,0,0,1,2.13-11.18,1.69,1.69,0,0,1,1.9-1c.8.16,1.72.94,2.77,2.35C813.55,184.06,814,185.28,813.68,186.15Zm1.91.38c2.75.95,4.11,2.68,4.08,5.21a6.79,6.79,0,0,1-6.57,1.9ZM823,220.68q2.1-1.59,9.91-2.64c5.37-.68,5.93-1.42,1.79,2.56a10,10,0,0,1-3.69,2.47c-.56.16-1.32.34-2.24.56s-1.79.45-2.56.7a9.71,9.71,0,0,1-6.89.63q-5.61,4.29-10.06,1.62c2.23-4.9,3.36-7.14,3.39-6.74a.88.88,0,0,0-.22-.84,13.53,13.53,0,0,0-1,1.4,8.47,8.47,0,0,0-.77,1.45,5.39,5.39,0,0,1-1.11,1c-.34.47-.65.88-.94,1.22a3.42,3.42,0,0,1-2.26-3.05c-.09-4.15,0-3.89,0-4,.31-2.34,1.27-3.36,2.86-3a13.22,13.22,0,0,1,6.72,3.53c2.42,2.35,3.49,2.1,3.32,4.07Zm-2-2.21c0,.53-.53.77-1.53.7a3.93,3.93,0,0,1-.33-1.26,3.5,3.5,0,0,1,.81-.84A1.34,1.34,0,0,1,820.92,218.47ZM831.13,181c-.26.75-1.78,2.38-4.54,4.9-1.44,1.19-2.42,1.79-3,1.82s-1.45-.49-2.79-1.55c-6.05-4.66-9.27-7.44-9.65-8.31-.85-2.44.58-4.09,4.31-5l3.81-1a15.3,15.3,0,0,0-5.6-.31l-.68.11c0,1-1,1.69-3,2.1a2.76,2.76,0,0,1-1.21-1.65,3.56,3.56,0,0,1-2.54-.63c-.11-.15-.58-1-1.4-2.42,8.05-2.15,15.53-4.09,19.34-5.08l.07-.09c1.09-1.34,1.39-2.51.93-3.49a2.31,2.31,0,0,0-2.06,1c-.07-.28-8.85,2.83-18.92,6.44a19.28,19.28,0,0,0-2.33-3.62c-2.53-3.4-4.14-5.66-4.9-6.87,5.29-1.35,11-2.61,16.11-3.68q1.58,1.57,3.9,3.54c-3.64.35-7,.66-9.88.88-4.78.38-8.08.5-8.54.14.51.62,3.6.77,8.07.67,3.3-.07,7.36-.29,11.72-.57l.48.4-.33-.41c4-.25,8.21-.56,12.32-.85,0,0-.07,0-.07.08a6.39,6.39,0,0,1-.23,2.15,3.69,3.69,0,0,1-1,1.77,21.87,21.87,0,0,1-.63,4,16.41,16.41,0,0,0-.21,2.68c-1-.11-2.14-.18-3.26-.21a23.81,23.81,0,0,1,1-4.53l-2.28.6c-.1.12-.19.24-.29.35.28,1.19.48,2.38.7,3.57h-.74c-1,0-1.27,2.27-2.44,3.41l1.08-.28a22.8,22.8,0,0,1,2.65.06c.21,1.48.42,3,.57,4.46l.37-.06c0,.07,0,.12,0,.2.32,5.59.47,8.27.47,8a3.28,3.28,0,0,0,.7-2.23,6.36,6.36,0,0,1,.46-2.71l3.31-5.55s.12.07.16.12Q833.11,175.39,831.13,181Zm-2.66-9.14c-.07.4-.13.75-.19,1a2.76,2.76,0,0,1-2.42-1.6A12.33,12.33,0,0,1,828.47,171.86Zm16.36-1.36q2.52,4.5-1.08,6-3.68,1.68-6-2a3.32,3.32,0,0,1-.59-2.72,5.34,5.34,0,0,1,2.1-1.18,48.13,48.13,0,0,0-5.63-1.64l.91-1.52c.15-.62.38-1.47.69-2.58a19,19,0,0,1,.46-2.72l1.86,2c2.72-6.52,5.75.32,5.94,1.7l-.67-.46c-.12-.15-.3-.12-.55.09a1.56,1.56,0,0,0-.57.89,5.4,5.4,0,0,0,1.18,3.24c.22.26.4.5.58.74C843.93,170.39,844.35,170.41,844.83,170.5Zm-.12-30.39c-.46.19-1,0-1.63-.62q-.69-.94,1.86-1.53a5.93,5.93,0,0,1,.24,1A1.84,1.84,0,0,1,844.71,140.11ZM855.66,138q-1.62,2.91-3,3.13c-2,.32-3.11,0-3.27-1.07a.58.58,0,0,0-.23.39L847.28,142q-2.81-1.16,0-3.88a2.69,2.69,0,0,1,2.57,1.53,7.68,7.68,0,0,0,.93-1.73,5.69,5.69,0,0,1,.93-1.91c1.39-1.4,2.64-1.83,3.72-1.3S856.59,136.35,855.66,138Zm.93-3.84v-1.77l2.33-.36A3.34,3.34,0,0,1,856.59,134.18Zm3-5.42a5.94,5.94,0,0,1-4,2.22,6.19,6.19,0,0,1,1.39-3,5.66,5.66,0,0,1,3.49-2.49v.71C860.85,126.92,860.54,127.8,859.61,128.76Z"/>
        <path class="cls-1" d="M504,327.56q-3.55,1.4-2.7,5.5c.94,4.56,16.55-47.27,16.05-41.42l-1.87,7.42a2.9,2.9,0,0,1-.53,1.65,10.3,10.3,0,0,1-.54,1.37,40.32,40.32,0,0,0-1.85,9.06,45.39,45.39,0,0,1-1.86,9.07L508,326.8q-3.23,8-6.77,11.57c.18,0-.71,2.11-2.69,6.32a7.6,7.6,0,0,1-1.9,2.22q-1.1.55-1.89,3.3a10.53,10.53,0,0,1-3.53,5.51,46.85,46.85,0,0,1-5.73,3.6c-1.28.56-2.63,2.22-4.07,5-1.62,3.12,1.31-8-7.76,47.07,6.67-52.63,8.61-43,11.87-46.28q6.26-6.34,9-7.47a10.88,10.88,0,0,0,3.55-2.22,35.78,35.78,0,0,1,3-2.49c4.73-2.95,7.45-5.54,8.16-7.74a9.47,9.47,0,0,0,.26-2.74,5.9,5.9,0,0,1,.53-2.74q1.88-4.68,8.73-5.55c.4,0,.71-.14,1.09-.2.17-1.77.36-3.53.55-5.28a9,9,0,0,1-1.69-.28q-3.84-1.35-.59-5.75a19.61,19.61,0,0,0,1.08-1.93,5.77,5.77,0,0,1,1.09-1.93,10.78,10.78,0,0,1,1.74-2.1c1.41-8.46,3.39-16.37,6.66-23"/>
      </g>
    </g>
  </g>
</svg>
