<?xml version="1.0" encoding="utf-8"?>
<!-- Generator: Adobe Illustrator 22.0.1, SVG Export Plug-In . SVG Version: 6.00 Build 0)  -->
<svg version="1.1" id="Layer_1" xmlns="http://www.w3.org/2000/svg" xmlns:xlink="http://www.w3.org/1999/xlink" x="0px" y="0px"
	 viewBox="0 0 420 420.1" style="enable-background:new 0 0 420 420.1;" xml:space="preserve">
<style type="text/css">
	.st0{fill:#FFFFFF;}
</style>
<title>speaker-r</title>
<g id="Layer_2_1_">
	<g id="Layer_1-2">
		<g>
			<path class="st0" d="M275.3,393.4c-56-1.2-106.3-14.5-151.2-45.5c-35.8-24.7-60.6-58.1-76.9-98c-15-36.8-21.9-76.5-20-116.2
				c0.8-17.4,3.2-34.6,9.8-50.8c7.6-18.6,18.2-25.7,38.2-24.7c7.3,0.4,14.5,1.6,21.6,3.6c26.2,7.1,49.7,20.1,71.9,35.2
				c66.7,45.4,122.3,101.8,164.6,170.7c12.3,20.1,22.8,41.1,27.1,64.6c1.3,8.2,1.5,16.5,0.6,24.8c-0.9,10.1-6.9,17.4-15.8,22.3
				c-14.3,7.9-30,10.9-45.9,12.6C290.7,392.8,282,393,275.3,393.4z M297.5,346.2c20.4,0.4,28.7-7.5,28.4-23.2
				c-0.1-4.3-0.7-8.6-1.7-12.8c-4.3-18.2-13.1-34.5-23-50.1c-24.6-38.9-55.4-72.4-89.9-102.6c-23.8-20.8-49-39.5-77.7-53.1
				c-11.3-5.3-23-9.8-35.8-10.2c-15.6-0.6-24.1,7.7-24.1,23.2c0,3,0.3,6,0.8,8.9c3.8,19.8,13.2,37.3,23.8,54.1
				c26.1,41.2,58.9,76.4,95.9,107.9c22.1,18.8,45.6,35.8,72.1,48.1C277.8,341.5,289.4,345.9,297.5,346.2z"/>
			<path class="st0" d="M204.2,407.7c-8.9,2.3-17.8,4.9-26.8,6.8c-31,6.5-62,8.2-93.1,0.6c-43.9-10.7-70.4-38.6-80-82.4
				c-8.6-39.1-3.5-77.5,8-115.3c0.3-0.7,0.7-1.3,1.2-1.9C39.2,317.1,102.7,380.7,204.2,407.7z"/>
			<path class="st0" d="M287.9,117.2c1-1.8,2.1-5.5,4.5-7.9c14.8-15.2,29.8-30.1,44.8-45c5.7-5.6,13.4-5.8,18.8-0.7
				s5.5,13.2-0.4,19.1c-14.9,15-29.9,30-44.9,44.9c-4.2,4.1-9.2,5.4-14.7,3.1C291,128.6,288.4,124.4,287.9,117.2z"/>
			<path class="st0" d="M197.6,45.2c0-10.5-0.1-21,0.1-31.5c0.1-8.3,5.8-13.9,13.4-13.7s12.8,6,12.7,14.4c-0.3,20.7-0.6,41.3-1.1,62
				c-0.2,8.7-5.7,14.6-13.2,14.5c-7.8-0.1-13-6.1-12.9-15.2c0-10.2,0-20.3,0-30.5L197.6,45.2z"/>
			<path class="st0" d="M374.5,196.8c10.3,0,20.6-0.1,31,0c8.4,0.1,14.2,5.2,14.4,12.6s-5.8,13.4-14.3,13.5
				c-20.8,0.1-41.6,0.1-62.5,0c-8.3,0-14.1-5.6-14.1-13s5.6-13,14-13c10.5-0.1,21,0,31.5,0L374.5,196.8z"/>
			<path class="st0" d="M163.8,183.7c42.7,0.4,76.4,37.7,72.2,74.1c-1.1,10.8-6.7,20.6-15.5,26.9c-2.2,1.6-3.9,1.8-6.2,0.1
				c-30-22.3-56.6-48.8-78.9-78.9c-1.7-2.3-1.5-4,0.1-6.1C144.1,188.4,155.6,183.6,163.8,183.7z"/>
		</g>
	</g>
</g>
</svg>
