<svg xmlns="http://www.w3.org/2000/svg" viewBox="0 0 842.33 257.26">
  <defs>
    <style>
      .cls-1 {
        opacity: 0.9;
      }

      .cls-2 {
        fill: red;
      }

      .cls-3 {
        fill: #fff;
      }
    </style>
  </defs>
  <title>triox-title</title>
  <g id="Layer_2" data-name="Layer 2">
    <g id="Layer_1-2" data-name="Layer 1">
      <g>
        <g>
          <g class="cls-1">
            <path class="cls-2" d="M396.07,6.62,397,7.77,395.27,9l.63,1.48-5.95.58A213.56,213.56,0,0,0,376.43,41.6l-1.61.42-.15-1.9-1.16.9-.14-2-1,1.35-1.9,1.26.09-3-2,1.93-.68-1.2c2.8-6.93,9-21,12.43-27.21l-5.74.4-.22-1.31,3-1.48L374.7,9l.6-1,4-1-2.45-1-.06-1.18C387.41,3.52,396.65,3,396.65,3l.9,1.11-1.16.76,2,.52Z"/>
            <path class="cls-2" d="M405.31,40.07l-1.1-1-.08-2.23-2.34,3.73-.86-.74-.18-2.22-1.85,3-.5-2-2.16,1.3c.74-2.07,2.27-6.49,3.88-10l-4.92.54c-1.86,3.34-2.87,7.38-3.82,9.88l-1.3.36.09-2.78-1.66,1.75.11-3.46-2.76,4.1L385,38.87l-2.37,1.45a178.46,178.46,0,0,1,12.4-27.84l.77,1.65,2.33-1.86-.09,2.78,3.81-4.46.3,3.21,1.84-.88a76.25,76.25,0,0,0-5.66,10.62l4.92-.54a109.35,109.35,0,0,1,5.4-10.57l1,1.28,1.92-1.94-.24,4,2.89-3.06.77,1.51,2.18-2,.2.36C413.44,20,407.4,32.81,405.31,40.07Z"/>
            <path class="cls-2" d="M435.09,15.32l2.59,1.22-2,.89.78,1.61a43.6,43.6,0,0,0-9,.47l-2.12,3.22,7.54-.32.54,1L431,24.7l2.08,1.11-1.79,1.07,1.26.95-.65,1-9.09.24-1.3,3.78a40.61,40.61,0,0,0,9.45-.35l-1.88,2.21,1.17.59-3,1.2,3.12.66-1,1.5c-4.63,1.17-12,1-14.78.63l1.72-2.15-1.84-.57.27-1.92-2.77,1.19c1.51-6.74,4.82-13.51,8.26-19.36l1.05.91,1.84-1.07-.7-2.11,2.22-.26L424,12.82A92.64,92.64,0,0,1,439.32,12l-1.69,1.24,1.87,1.3Z"/>
            <path class="cls-2" d="M287.91,76.74A131.34,131.34,0,0,0,297,107.61l-2.25,2.63-4.29-4.67-1.85,3.07-2.38-2.91-1.13,2.86L280,102.41l-.54,3.75-3.07-.79c-6.08-16.15-7.71-23.1-7.71-23.1-7.18,14.73-11.36,26-11.36,26L255,109.43l-.67-4.79-2.43,1.82-1-3.79-2.64,1.92-.71-3.71-4.42,5.9-1.57-2.4c9.32-26.82,23.6-53.82,23.6-53.82l3.16-1.94-3.58-1,3.19-3L266.72,43,273.8,41l-3.44-2.06,2.64-2-2.1-2.11c12.48-3.28,23.23-3.77,31.64-2.35,9.13,1.48,14.19,10.94,9,23S299.93,71.83,287.91,76.74ZM286.6,47.12s-3.25,4.58-8.88,16.25c7-.26,11.46-3.51,14.4-8.35C296.26,48.22,293.76,45.77,286.6,47.12Z"/>
            <path class="cls-2" d="M346.71,57.46l5.18,2.44-4,1.79,1.55,3.22c-4.63-.47-12.59.1-18.08.94l-4.23,6.43,15.08-.65,1.07,2-4.83,2.63,4.16,2.21-3.58,2.14,2.52,1.91-1.3,2L322.09,85l-2.61,7.56c4.82.73,13.92,0,18.9-.7l-3.75,4.42L337,97.49l-6,2.4,6.25,1.32-2.05,3c-9.26,2.35-24,2-29.55,1.28l3.44-4.31L305.42,100l.53-3.84-5.54,2.39c3-13.49,9.64-27,16.51-38.74L319,61.66l3.68-2.13L321.3,55.3l4.45-.53-1.27-2.31c10.27-1.66,22.65-1.84,30.69-1.69l-3.38,2.5,3.74,2.59Z"/>
            <path class="cls-2" d="M396.62,57.61l3.94,2.77-3.27,2.3,1.16,2.42-15.91.58c-6.44,11.07-13,29.15-16.28,38l-2.42-1.91-4.25,4.07-1.37-5.5L354.83,103l-1.36-2.5-4.25,3.8-1.21-1c3.48-8.68,9.48-25.18,15.43-37l-14.57.54,3.2-3.21L350,61.79l5.84-2.12L354.15,57l6.44-1.6-6.22-2.23.79-2.12,47.41-1.75-2.79,3.19,5,1.91Z"/>
            <path class="cls-2" d="M433.87,89.26c-3.49,9.23-8.1,11.49-15.16,12.84-4.57.9-19.74,1-24.44-.36l2.22-1.63-.78-1.25,2.63-1.64-.86-2.15-4,1.42.32-3.29-4.37,1c2.57-12.47,11.92-33.92,18.8-45.64l2.6-.74.48,7.72,4.73-5.91,1.48,2,4.06-4.43L421.8,51l4.28-1.62c-5.77,9.5-15.2,26.77-17.62,37.78.76,2.15,7.7,1.35,8.58-.41,5.52-11.21,13-28.59,18.87-38.37l1.21,1,.93,3.06,3.84-3.78-.12,6.74L447,48.2l1.67,2.67,3.58-2.32C447.05,58,438,78.46,433.87,89.26Z"/>
            <path class="cls-2" d="M481.06,81.42l7.5,16.74L484,96.69l-.67,4.66-5.37-6-.88,4.85-4.15-2.48-1.45,3.41L463.8,85.61l-1.25.32c-2.53,5-3.7,9-6.19,16l-2.89-3-4.19,5-1.16-5.42-2.43,1.64L445.13,95l-4,6-1.5-1.67c2.93-10.94,11.49-33.36,18.08-45.61l2.9,2.71,1.12-2.77,2.89,0-.39-3.9,2.71-.73-.12-2.64A100.13,100.13,0,0,1,483.7,44.2c13.32-.31,20.74,9.52,15.41,21.27C496,72.22,487.44,78.73,481.06,81.42Zm-8-20.63-4.86,9.92a18.68,18.68,0,0,0,9.07-3c3.79-2.41,5.15-6.19,3-7.66A10.41,10.41,0,0,0,473.06,60.79Z"/>
            <path class="cls-2" d="M535.44,96.6l-1.91-1.47-2.15,2.81-2-3.3-2,2-1.53-3.49-2.11,4.72-1.48.87-5.38-18.54-.21-.09c-3.24,4.76-6.83,13.54-8.83,18L506,95.69l-3.35,1.4,0-4.91-5.81,7.31-1.13-3.23-3.26,1.94c4.06-14,17-40.94,24.45-54.68l1.88,2.39,2.13-2.08,2.32,4.92,2.4-7.19,1.86,3,1.71-1.89,2,23.77h.21c1.94-5.71,8.41-17.78,11.6-23.9l2.53,1.54,3.15-1.66-.09,5.91,5.36-6.47.74,2.88,2.75-2.19L559.31,44C550.81,58.1,539.89,83.52,535.44,96.6Z"/>
          </g>
          <g>
            <path class="cls-3" d="M396.07,3.62,397,4.77,395.27,6l.63,1.48L390,8.07A213.56,213.56,0,0,0,376.43,38.6l-1.61.42-.15-1.9-1.16.9-.14-2-1,1.35-1.9,1.26.09-3-2,1.93-.68-1.2c2.8-6.93,9-21,12.43-27.21l-5.74.4-.22-1.31,3-1.48L374.7,6l.6-1,4-1-2.45-1-.06-1.18C387.41.52,396.65,0,396.65,0l.9,1.11-1.16.76,2,.52Z"/>
            <path class="cls-3" d="M405.31,37.07l-1.1-1-.08-2.23-2.34,3.73-.86-.74-.18-2.22-1.85,3-.5-2-2.16,1.3c.74-2.07,2.27-6.49,3.88-10l-4.92.54c-1.86,3.34-2.87,7.38-3.82,9.88l-1.3.36.09-2.78-1.66,1.75.11-3.46-2.76,4.1L385,35.87l-2.37,1.45a178.46,178.46,0,0,1,12.4-27.84l.77,1.65,2.33-1.86-.09,2.78,3.81-4.46.3,3.21L404,9.92a76.25,76.25,0,0,0-5.66,10.62l4.92-.54a109.35,109.35,0,0,1,5.4-10.57l1,1.28,1.92-1.94-.24,4,2.89-3.06.77,1.51,2.18-2,.2.36C413.44,17,407.4,29.81,405.31,37.07Z"/>
            <path class="cls-3" d="M435.09,12.32l2.59,1.22-2,.89.78,1.61a43.6,43.6,0,0,0-9,.47l-2.12,3.22,7.54-.32.54,1L431,21.7l2.08,1.11-1.79,1.07,1.26.95-.65,1-9.09.24-1.3,3.78a40.61,40.61,0,0,0,9.45-.35l-1.88,2.21,1.17.59-3,1.2,3.12.66-1,1.5c-4.63,1.17-12,1-14.78.63l1.72-2.15-1.84-.57.27-1.92-2.77,1.19c1.51-6.74,4.82-13.51,8.26-19.36l1.05.91,1.84-1.07-.7-2.11,2.22-.26L424,9.82A92.64,92.64,0,0,1,439.32,9l-1.69,1.24,1.87,1.3Z"/>
            <path class="cls-3" d="M287.91,73.74A131.34,131.34,0,0,0,297,104.61l-2.25,2.63-4.29-4.67-1.85,3.07-2.38-2.91-1.13,2.86L280,99.41l-.54,3.75-3.07-.79c-6.08-16.15-7.71-23.1-7.71-23.1-7.18,14.73-11.36,26-11.36,26L255,106.43l-.67-4.79-2.43,1.82-1-3.79-2.64,1.92-.71-3.71-4.42,5.9-1.57-2.4c9.32-26.82,23.6-53.82,23.6-53.82l3.16-1.94-3.58-1,3.19-3L266.72,40,273.8,38l-3.44-2.06,2.64-2-2.1-2.11c12.48-3.28,23.23-3.77,31.64-2.35,9.13,1.48,14.19,10.94,9,23S299.93,68.83,287.91,73.74ZM286.6,44.12s-3.25,4.58-8.88,16.25c7-.26,11.46-3.51,14.4-8.35C296.26,45.22,293.76,42.77,286.6,44.12Z"/>
            <path class="cls-3" d="M346.71,54.46l5.18,2.44-4,1.79,1.55,3.22c-4.63-.47-12.59.1-18.08.94l-4.23,6.43,15.08-.65,1.07,2-4.83,2.63,4.16,2.21-3.58,2.14,2.52,1.91-1.3,2L322.09,82l-2.61,7.56c4.82.73,13.92,0,18.9-.7l-3.75,4.42L337,94.49l-6,2.4,6.25,1.32-2.05,3c-9.26,2.35-24,2-29.55,1.28l3.44-4.31L305.42,97l.53-3.84-5.54,2.39c3-13.49,9.64-27,16.51-38.74L319,58.66l3.68-2.13L321.3,52.3l4.45-.53-1.27-2.31c10.27-1.66,22.65-1.84,30.69-1.69l-3.38,2.5,3.74,2.59Z"/>
            <path class="cls-3" d="M396.62,54.61l3.94,2.77-3.27,2.3,1.16,2.42-15.91.58c-6.44,11.07-13,29.15-16.28,38l-2.42-1.91-4.25,4.07-1.37-5.5L354.83,100l-1.36-2.5-4.25,3.8-1.21-1c3.48-8.68,9.48-25.18,15.43-37l-14.57.54,3.2-3.21L350,58.79l5.84-2.12L354.15,54l6.44-1.6-6.22-2.23.79-2.12,47.41-1.75-2.79,3.19,5,1.91Z"/>
            <path class="cls-3" d="M433.87,86.26c-3.49,9.23-8.1,11.49-15.16,12.84-4.57.9-19.74,1-24.44-.36l2.22-1.63-.78-1.25,2.63-1.64-.86-2.15-4,1.42.32-3.29-4.37,1c2.57-12.47,11.92-33.92,18.8-45.64l2.6-.74.48,7.72,4.73-5.91,1.48,2,4.06-4.43L421.8,48l4.28-1.62c-5.77,9.5-15.2,26.77-17.62,37.78.76,2.15,7.7,1.35,8.58-.41,5.52-11.21,13-28.59,18.87-38.37l1.21,1,.93,3.06,3.84-3.78-.12,6.74L447,45.2l1.67,2.67,3.58-2.32C447.05,55,438,75.46,433.87,86.26Z"/>
            <path class="cls-3" d="M481.06,78.42l7.5,16.74L484,93.69l-.67,4.66-5.37-6-.88,4.85-4.15-2.48-1.45,3.41L463.8,82.61l-1.25.32c-2.53,5-3.7,9-6.19,16l-2.89-3-4.19,5-1.16-5.42-2.43,1.64L445.13,92l-4,6-1.5-1.67c2.93-10.94,11.49-33.36,18.08-45.61l2.9,2.71,1.12-2.77,2.89,0-.39-3.9,2.71-.73-.12-2.64A100.13,100.13,0,0,1,483.7,41.2c13.32-.31,20.74,9.52,15.41,21.27C496,69.22,487.44,75.73,481.06,78.42Zm-8-20.63-4.86,9.92a18.68,18.68,0,0,0,9.07-3c3.79-2.41,5.15-6.19,3-7.66A10.41,10.41,0,0,0,473.06,57.79Z"/>
            <path class="cls-3" d="M535.44,93.6l-1.91-1.47-2.15,2.81-2-3.3-2,2-1.53-3.49-2.11,4.72-1.48.87-5.38-18.54-.21-.09c-3.24,4.76-6.83,13.54-8.83,18L506,92.69l-3.35,1.4,0-4.91-5.81,7.31-1.13-3.23-3.26,1.94c4.06-14,17-40.94,24.45-54.68l1.88,2.39,2.13-2.08,2.32,4.92,2.4-7.19,1.86,3,1.71-1.89,2,23.77h.21c1.94-5.71,8.41-17.78,11.6-23.9l2.53,1.54,3.15-1.66-.09,5.91,5.36-6.47.74,2.88,2.75-2.19L559.31,41C550.81,55.1,539.89,80.52,535.44,93.6Z"/>
          </g>
        </g>
        <g>
          <g class="cls-1">
            <path class="cls-2" d="M299.53,151c-9.65-.42-12.22-9.89-7.45-20.54,6.43-14.36,14.4-19.07,23.56-19.41l-1,2,1.52.72-2.27,1.78,5,1.76.09-2.8,2.19.77.4-3.08c3.95,3.18,6.7,9.38,2.6,20.07S313.08,151.61,299.53,151ZM313.1,121.1c-2.72-.22-6.36,3-9,7.82s-4.22,11.73-.77,12.32c3.08.54,6.95-2.92,9.44-9.26S315.53,121.34,313.1,121.1Z"/>
            <path class="cls-2" d="M360.4,116l3,1.65-3.07,1.54,1.95,1.16-1.45,1.49-13.44.5L344.92,127l11.67-.49.47,1.54-4.56,1.73,3.5,1.43-2.56,1.72,1.58,1.31-.65,1.65-13,.55A140.93,140.93,0,0,0,336,151.22l-1.59-1.05-.1-3.76L331,150.63l-1.14-1.07-2.71,1.66-.49-3.1-3.86,2.94c1.81-7.94,9-24.66,14.07-33.76l3.05,1.31-.31-1.54,2.29-.35-2.14-2.26,3.19-.38-.91-1.66,23.93-.88-2.43,2L366,115Z"/>
            <path class="cls-2" d="M421.87,114.8l2.81,2-2.34,1.65.83,1.73-11.37.42c-4.61,7.91-9.3,20.83-11.65,27.16l-1.72-1.36-3.05,2.91-1-3.94L392,147.27l-1-1.79-3,2.71-.86-.68c2.48-6.21,6.77-18,11-26.43l-10.42.39,2.29-2.3-1.5-1.38,4.18-1.52-1.2-1.9,4.61-1.15-4.44-1.59.56-1.52,33.89-1.25-2,2.28,3.57,1.37Z"/>
            <path class="cls-2" d="M448.59,146.21,447,144.78l-.12-3.19-3.34,5.33-1.22-1.06-.27-3.18-2.64,4.26-.72-2.9-3.08,1.87c1.05-3,3.24-9.29,5.54-14.25l-7,.78c-2.66,4.78-4.1,10.56-5.47,14.12l-1.86.52.13-4-2.37,2.5.16-5-4,5.87-1.19-2-3.38,2.08c3-9.42,11.41-29.12,17.73-39.82l1.1,2.36,3.33-2.66-.13,4,5.44-6.39.45,4.61,2.62-1.27c-2.57,4.06-6.87,11.7-8.09,15.2l7-.78a157.69,157.69,0,0,1,7.72-15.12l1.42,1.83,2.74-2.77-.33,5.68,4.12-4.39,1.11,2.17,3.12-2.84.28.51C460.21,117.49,451.58,135.82,448.59,146.21Z"/>
            <path class="cls-2" d="M491.17,110.81l3.71,1.75L492,113.84l1.11,2.3a61.71,61.71,0,0,0-12.93.67l-3,4.6L488,121l.77,1.4-3.46,1.88,3,1.59-2.56,1.52,1.8,1.37-.93,1.46-13,.35-1.87,5.41c3.45.52,10,0,13.52-.5l-2.69,3.15,1.67.85-4.26,1.72,4.47.94-1.47,2.14c-6.62,1.67-17.15,1.41-21.12.91l2.46-3.09-2.63-.81.38-2.75-4,1.71c2.15-9.64,6.89-19.31,11.81-27.69l1.5,1.31,2.63-1.53-1-3,3.19-.38-.91-1.66a133.89,133.89,0,0,1,22-1.2l-2.42,1.78,2.67,1.86Z"/>
            <path class="cls-2" d="M80.61,155.52l2.55,3.29-4.84,3.56,1.79,4.23-17,1.67C53.4,185,35.33,223.94,24.43,255.57l-4.61,1.22-.41-5.45-3.33,2.59-.41-5.71-2.78,3.88-5.42,3.58.27-8.47L2,252.76,0,249.32c8-19.81,25.68-60,35.55-77.82l-16.41,1.13-.62-3.75,8.69-4.22-7.74-2.45,1.72-2.8,11.44-2.76-7-2.74-.19-3.37c30.37-3.86,56.82-5.36,56.82-5.36l2.55,3.16-3.31,2.21,5.7,1.48Z"/>
            <path class="cls-2" d="M101.52,225.14l10.74,23.93-6.57-2.1-1,6.67-7.69-8.56L95.79,252l-5.93-3.55-2.08,4.89L76.85,231.13l-1.79.45c-3.62,7.16-5.28,12.95-8.85,22.84l-4.14-4.27-6,7.11-1.67-7.74L51,251.86l-.8-7.26-5.73,8.54-2.13-2.39c4.19-15.64,16.43-47.71,25.84-65.23l4.16,3.88,1.6-4,4.13,0-.56-5.58,3.87-1.05L81.16,175a143.05,143.05,0,0,1,24.14-3.1c19-.45,29.66,13.6,22,30.41C122.89,212,110.65,221.29,101.52,225.14Zm-11.44-29.5-6.94,14.18a26.68,26.68,0,0,0,13-4.26c5.42-3.45,7.36-8.86,4.33-11A14.94,14.94,0,0,0,90.08,195.64Z"/>
            <path class="cls-2" d="M141.37,252l-2.84-3.41-4.21,2.24.5-10.69L127.75,249l-3.27-3.91-7.4,5.35c9.43-27.16,23.28-58.76,35.15-79.11l1.92,4.48,8.84-8.91.74,9.08,6.33-4.27,1.79,4,6.31-3.62C167,192.79,148.33,232.78,141.37,252Z"/>
            <path class="cls-2" d="M185.19,246.9c-19.29-.85-24.44-19.79-14.9-41.09,12.87-28.71,28.81-38.14,47.12-38.82l-2,4,3,1.45L213.88,176l10.06,3.53.18-5.6,4.38,1.53.79-6.15c7.91,6.34,13.41,18.76,5.2,40.14S212.3,248.1,185.19,246.9Zm27.15-59.82c-5.44-.45-12.73,6.07-18.06,15.63s-8.42,23.47-1.53,24.65c6.16,1.07,13.91-5.85,18.89-18.52C216.47,196.43,217.19,187.55,212.34,187.08Z"/>
            <path class="cls-2" d="M287.71,205.63l7.41,35.51-1.37,1.35-5.42-5.91-2.91,8-4.79-2.43-2.24,5.55-3.85-4.15-3.94,3.14-4.26-19-18.61,19.16-1.95-3.44-5.07,1.62.91-5.5-11.14,7.05L229,242l-6.16,3.48-.93-3.22,36.76-37.65L252,173l2.17-3.33,5.33,8.52,1.92-9.18,3.63,1.69,2.13-6.45,4.58,4.38,4.07-2.88L280,182.89l17.24-17.55L300.1,169l5.51-1.77-2,6.58,10.87-7.69.75,4.14,8.11-4.47-.13,4Z"/>
            <path class="cls-2" d="M326.26,245.19l-2.84-3.41L319.21,244l.5-10.69-7.07,8.85-3.27-3.91-7.4,5.35c9.43-27.15,23.28-58.76,35.14-79.11L339,169l8.84-8.92.74,9.08,6.33-4.27,1.79,4,6.31-3.62C351.91,186,333.22,225.94,326.26,245.19Z"/>
            <path class="cls-2" d="M405.68,238.48,403,236.37l-3.08,4-2.8-4.71-2.89,2.84-2.2-5-3,6.75-2.11,1.25L379.15,215l-.29-.12c-4.65,6.81-9.77,19.36-12.63,25.71l-2.69-3.41-4.79,2-.07-7-8.3,10.46L348.76,238l-4.66,2.78c5.8-20,24.3-58.54,35-78.19l2.69,3.41,3.05-3,3.31,7,3.43-10.27,2.66,4.32,2.45-2.69,2.89,34h.29c2.77-8.17,12-25.42,16.59-34.18l3.62,2.21,4.5-2.38-.12,8.46,7.67-9.26,1,4.12,3.93-3.13,2.74,2.11C427.66,183.41,412,219.77,405.68,238.48Z"/>
            <path class="cls-2" d="M562.33,137.71l2.55,3.29L560,144.56l1.78,4.23-17,1.67c-9.68,16.75-27.75,55.67-38.65,87.3L501.54,239l-.42-5.45-3.33,2.6-.4-5.71-2.78,3.87-5.43,3.58.27-8.46L483.67,235l-1.95-3.45c8-19.81,25.68-60,35.54-77.81l-16.41,1.13-.61-3.76,8.69-4.22-7.74-2.45,1.71-2.79,11.45-2.77-7-2.73-.19-3.38c30.36-3.85,56.82-5.35,56.82-5.35l2.55,3.16-3.32,2.2,5.71,1.48Z"/>
            <path class="cls-2" d="M588.74,233.4l-3.15-2.87-.24-6.37-6.68,10.66-2.44-2.13-.53-6.35-5.29,8.52-1.44-5.8-6.17,3.74c2.11-5.93,6.5-18.59,11.1-28.51l-14.07,1.56c-5.32,9.56-8.2,21.12-10.94,28.24l-3.72,1,.26-7.94-4.73,5,.31-9.9L533.11,234,530.74,230,524,234.11c6.07-18.83,22.83-58.23,35.46-79.64l2.21,4.73,6.66-5.32-.25,8,10.88-12.76.88,9.2,5.25-2.54c-5.13,8.13-13.73,23.41-16.17,30.4l14.06-1.56a311,311,0,0,1,15.43-30.24L601.2,158l5.49-5.54L606,163.8l8.25-8.76,2.22,4.35,6.23-5.7.56,1C612,176,594.72,212.62,588.74,233.4Z"/>
            <path class="cls-2" d="M673.92,162.6l7.41,3.5-5.69,2.55,2.21,4.6c-6.61-.67-18,.14-25.85,1.34l-6,9.21,21.56-.93,1.53,2.81-6.9,3.76,5.94,3.17-5.11,3,3.6,2.73-1.86,2.93-26,.7L635,212.83c6.9,1,19.91,0,27-1l-5.37,6.31,3.34,1.7-8.52,3.44,8.94,1.88-2.94,4.27c-13.24,3.35-34.32,2.83-42.25,1.82l4.92-6.17-5.26-1.62.77-5.5-7.93,3.42C612,202.1,621.49,182.75,631.33,166l3,2.62,5.26-3.05-2-6,6.37-.76-1.81-3.32c14.68-2.36,32.39-2.63,43.89-2.4l-4.84,3.56,5.34,3.71Z"/>
            <path class="cls-2" d="M746.14,228.36l-3.9-2.46-4.62,5.9-1.83-7.22-5.13,3.7-.38-6.62-6.1,6.21-1.95.86,8.82-26.48h-.44c-7.46,7.17-15.64,18.28-21,24.07l-2.83-3.54L702.26,226a175.17,175.17,0,0,1-2.7-21.5l-.44,0c-3.77,7.16-8.74,19.45-11.46,26.05l-2.4-3.42L679.94,232l-1.17-9.45-5.57,8L672,227.59l-7.65,3.8c7.07-22.51,21.8-58.32,31.43-78.06l3.11,4,4.46-5.5,2.43,11.49,3.86-9.9,1.83,2.79,4.54-3.68c.57,9.74,2.38,26.85,3.95,33,8-10.31,23-26.48,32.57-35.55l2.37,4.08,5.94-5.82.45,9.22,6.24-6.21,1.83,2.79,6.43-2.58C765.39,171.05,752.31,206.28,746.14,228.36Z"/>
            <path class="cls-2" d="M829.72,156.83l7.41,3.5-5.69,2.55,2.21,4.61c-6.62-.67-18,.14-25.86,1.34l-6,9.2,21.57-.92,1.53,2.8-6.9,3.77,5.94,3.16-5.11,3.06,3.6,2.72-1.87,2.94-26,.7-3.74,10.8c6.9,1.05,19.91.05,27-1l-5.37,6.32,3.34,1.7-8.52,3.43,8.94,1.89-2.94,4.27C800,227,778.94,226.5,771,225.49l4.92-6.17-5.26-1.62.77-5.5-7.93,3.42c4.31-19.29,13.78-38.63,23.61-55.39l3,2.62,5.26-3.06-2-6,6.37-.75-1.81-3.32c14.68-2.36,32.39-2.63,43.88-2.4L837,150.84l5.34,3.71Z"/>
          </g>
          <g>
            <path class="cls-3" d="M299.53,148c-9.65-.42-12.22-9.89-7.45-20.54,6.43-14.36,14.4-19.07,23.56-19.41l-1,2,1.52.72-2.27,1.78,5,1.76.09-2.8,2.19.77.4-3.08c3.95,3.18,6.7,9.38,2.6,20.07S313.08,148.61,299.53,148ZM313.1,118.1c-2.72-.22-6.36,3-9,7.82s-4.22,11.73-.77,12.32c3.08.54,6.95-2.92,9.44-9.26S315.53,118.34,313.1,118.1Z"/>
            <path class="cls-3" d="M360.4,113l3,1.65-3.07,1.54,1.95,1.16-1.45,1.49-13.44.5L344.92,124l11.67-.49.47,1.54-4.56,1.73,3.5,1.43-2.56,1.72,1.58,1.31-.65,1.65-13,.55A140.93,140.93,0,0,0,336,148.22l-1.59-1.05-.1-3.76L331,147.63l-1.14-1.07-2.71,1.66-.49-3.1-3.86,2.94c1.81-7.94,9-24.66,14.07-33.76l3.05,1.31-.31-1.54,2.29-.35-2.14-2.26,3.19-.38-.91-1.66,23.93-.88-2.43,2L366,112Z"/>
            <path class="cls-3" d="M421.87,111.8l2.81,2-2.34,1.65.83,1.73-11.37.42c-4.61,7.91-9.3,20.83-11.65,27.16l-1.72-1.36-3.05,2.91-1-3.94L392,144.27l-1-1.79-3,2.71-.86-.68c2.48-6.21,6.77-18,11-26.43l-10.42.39,2.29-2.3-1.5-1.38,4.18-1.52-1.2-1.9,4.61-1.15-4.44-1.59.56-1.52,33.89-1.25-2,2.28,3.57,1.37Z"/>
            <path class="cls-3" d="M448.59,143.21,447,141.78l-.12-3.19-3.34,5.33-1.22-1.06-.27-3.18-2.64,4.26-.72-2.9-3.08,1.87c1.05-3,3.24-9.29,5.54-14.25l-7,.78c-2.66,4.78-4.1,10.56-5.47,14.12l-1.86.52.13-4-2.37,2.5.16-5-4,5.87-1.19-2-3.38,2.08c3-9.42,11.41-29.12,17.73-39.82l1.1,2.36,3.33-2.66-.13,4,5.44-6.39.45,4.61,2.62-1.27c-2.57,4.06-6.87,11.7-8.09,15.2l7-.78a157.69,157.69,0,0,1,7.72-15.12l1.42,1.83,2.74-2.77-.33,5.68,4.12-4.39,1.11,2.17,3.12-2.84.28.51C460.21,114.49,451.58,132.82,448.59,143.21Z"/>
            <path class="cls-3" d="M491.17,107.81l3.71,1.75L492,110.84l1.11,2.3a61.71,61.71,0,0,0-12.93.67l-3,4.6L488,118l.77,1.4-3.46,1.88,3,1.59-2.56,1.52,1.8,1.37-.93,1.46-13,.35-1.87,5.41c3.45.52,10,0,13.52-.5l-2.69,3.15,1.67.85-4.26,1.72,4.47.94-1.47,2.14c-6.62,1.67-17.15,1.41-21.12.91l2.46-3.09-2.63-.81.38-2.75-4,1.71c2.15-9.64,6.89-19.31,11.81-27.69l1.5,1.31,2.63-1.53-1-3,3.19-.38-.91-1.66a133.89,133.89,0,0,1,22-1.2l-2.42,1.78,2.67,1.86Z"/>
            <path class="cls-3" d="M80.61,152.52l2.55,3.29-4.84,3.56,1.79,4.23-17,1.67C53.4,182,35.33,220.94,24.43,252.57l-4.61,1.22-.41-5.45-3.33,2.59-.41-5.71-2.78,3.88-5.42,3.58.27-8.47L2,249.76,0,246.32c8-19.81,25.68-60,35.55-77.82l-16.41,1.13-.62-3.75,8.69-4.22-7.74-2.45,1.72-2.8,11.44-2.76-7-2.74-.19-3.37c30.37-3.86,56.82-5.36,56.82-5.36l2.55,3.16-3.31,2.21,5.7,1.48Z"/>
            <path class="cls-3" d="M101.52,222.14l10.74,23.93-6.57-2.1-1,6.67-7.69-8.56L95.79,249l-5.93-3.55-2.08,4.89L76.85,228.13l-1.79.45c-3.62,7.16-5.28,12.95-8.85,22.84l-4.14-4.27-6,7.11-1.67-7.74L51,248.86l-.8-7.26-5.73,8.54-2.13-2.39c4.19-15.64,16.43-47.71,25.84-65.23l4.16,3.88,1.6-4,4.13,0-.56-5.58,3.87-1.05L81.16,172a143.05,143.05,0,0,1,24.14-3.1c19-.45,29.66,13.6,22,30.41C122.89,209,110.65,218.29,101.52,222.14Zm-11.44-29.5-6.94,14.18a26.68,26.68,0,0,0,13-4.26c5.42-3.45,7.36-8.86,4.33-11A14.94,14.94,0,0,0,90.08,192.64Z"/>
            <path class="cls-3" d="M141.37,249l-2.84-3.41-4.21,2.24.5-10.69L127.75,246l-3.27-3.91-7.4,5.35c9.43-27.16,23.28-58.76,35.15-79.11l1.92,4.48,8.84-8.91.74,9.08,6.33-4.27,1.79,4,6.31-3.62C167,189.79,148.33,229.78,141.37,249Z"/>
            <path class="cls-3" d="M185.19,243.9c-19.29-.85-24.44-19.79-14.9-41.09,12.87-28.71,28.81-38.14,47.12-38.82l-2,4,3,1.45L213.88,173l10.06,3.53.18-5.6,4.38,1.53.79-6.15c7.91,6.34,13.41,18.76,5.2,40.14S212.3,245.1,185.19,243.9Zm27.15-59.82c-5.44-.45-12.73,6.07-18.06,15.63s-8.42,23.47-1.53,24.65c6.16,1.07,13.91-5.85,18.89-18.52C216.47,193.43,217.19,184.55,212.34,184.08Z"/>
            <path class="cls-3" d="M287.71,202.63l7.41,35.51-1.37,1.35-5.42-5.91-2.91,8-4.79-2.43-2.24,5.55-3.85-4.15-3.94,3.14-4.26-19-18.61,19.16-1.95-3.44-5.07,1.62.91-5.5-11.14,7.05L229,239l-6.16,3.48-.93-3.22,36.76-37.65L252,170l2.17-3.33,5.33,8.52,1.92-9.18,3.63,1.69,2.13-6.45,4.58,4.38,4.07-2.88L280,179.89l17.24-17.55L300.1,166l5.51-1.77-2,6.58,10.87-7.69.75,4.14,8.11-4.47-.13,4Z"/>
            <path class="cls-3" d="M326.26,242.19l-2.84-3.41L319.21,241l.5-10.69-7.07,8.85-3.27-3.91-7.4,5.35c9.43-27.15,23.28-58.76,35.14-79.11L339,166l8.84-8.92.74,9.08,6.33-4.27,1.79,4,6.31-3.62C351.91,183,333.22,222.94,326.26,242.19Z"/>
            <path class="cls-3" d="M405.68,235.48,403,233.37l-3.08,4-2.8-4.71-2.89,2.84-2.2-5-3,6.75-2.11,1.25L379.15,212l-.29-.12c-4.65,6.81-9.77,19.36-12.63,25.71l-2.69-3.41-4.79,2-.07-7-8.3,10.46L348.76,235l-4.66,2.78c5.8-20,24.3-58.54,35-78.19l2.69,3.41,3.05-3,3.31,7,3.43-10.27,2.66,4.32,2.45-2.69,2.89,34h.29c2.77-8.17,12-25.42,16.59-34.18l3.62,2.21,4.5-2.38-.12,8.46,7.67-9.26,1,4.12,3.93-3.13,2.74,2.11C427.66,180.41,412,216.77,405.68,235.48Z"/>
            <path class="cls-3" d="M562.33,134.71l2.55,3.29L560,141.56l1.78,4.23-17,1.67c-9.68,16.75-27.75,55.67-38.65,87.3L501.54,236l-.42-5.45-3.33,2.6-.4-5.71-2.78,3.87-5.43,3.58.27-8.46L483.67,232l-1.95-3.45c8-19.81,25.68-60,35.54-77.81l-16.41,1.13-.61-3.76,8.69-4.22-7.74-2.45,1.71-2.79,11.45-2.77-7-2.73-.19-3.38c30.36-3.85,56.82-5.35,56.82-5.35l2.55,3.16-3.32,2.2,5.71,1.48Z"/>
            <path class="cls-3" d="M588.74,230.4l-3.15-2.87-.24-6.37-6.68,10.66-2.44-2.13-.53-6.35-5.29,8.52-1.44-5.8-6.17,3.74c2.11-5.93,6.5-18.59,11.1-28.51l-14.07,1.56c-5.32,9.56-8.2,21.12-10.94,28.24l-3.72,1,.26-7.94-4.73,5,.31-9.9L533.11,231,530.74,227,524,231.11c6.07-18.83,22.83-58.23,35.46-79.64l2.21,4.73,6.66-5.32-.25,8,10.88-12.76.88,9.2,5.25-2.54c-5.13,8.13-13.73,23.41-16.17,30.4l14.06-1.56a311,311,0,0,1,15.43-30.24L601.2,155l5.49-5.54L606,160.8l8.25-8.76,2.22,4.35,6.23-5.7.56,1C612,173,594.72,209.62,588.74,230.4Z"/>
            <path class="cls-3" d="M673.92,159.6l7.41,3.5-5.69,2.55,2.21,4.6c-6.61-.67-18,.14-25.85,1.34l-6,9.21,21.56-.93,1.53,2.81-6.9,3.76,5.94,3.17-5.11,3,3.6,2.73-1.86,2.93-26,.7L635,209.83c6.9,1,19.91,0,27-1l-5.37,6.31,3.34,1.7-8.52,3.44,8.94,1.88-2.94,4.27c-13.24,3.35-34.32,2.83-42.25,1.82l4.92-6.17-5.26-1.62.77-5.5-7.93,3.42C612,199.1,621.49,179.75,631.33,163l3,2.62,5.26-3.05-2-6,6.37-.76-1.81-3.32c14.68-2.36,32.39-2.63,43.89-2.4l-4.84,3.56,5.34,3.71Z"/>
            <path class="cls-3" d="M746.14,225.36l-3.9-2.46-4.62,5.9-1.83-7.22-5.13,3.7-.38-6.62-6.1,6.21-1.95.86,8.82-26.48h-.44c-7.46,7.17-15.64,18.28-21,24.07l-2.83-3.54L702.26,223a175.17,175.17,0,0,1-2.7-21.5l-.44,0c-3.77,7.16-8.74,19.45-11.46,26.05l-2.4-3.42L679.94,229l-1.17-9.45-5.57,8L672,224.59l-7.65,3.8c7.07-22.51,21.8-58.32,31.43-78.06l3.11,4,4.46-5.5,2.43,11.49,3.86-9.9,1.83,2.79,4.54-3.68c.57,9.74,2.38,26.85,3.95,33,8-10.31,23-26.48,32.57-35.55l2.37,4.08,5.94-5.82.45,9.22,6.24-6.21,1.83,2.79,6.43-2.58C765.39,168.05,752.31,203.28,746.14,225.36Z"/>
            <path class="cls-3" d="M829.72,153.83l7.41,3.5-5.69,2.55,2.21,4.61c-6.62-.67-18,.14-25.86,1.34l-6,9.2,21.57-.92,1.53,2.8-6.9,3.77,5.94,3.16-5.11,3.06,3.6,2.72-1.87,2.94-26,.7-3.74,10.8c6.9,1.05,19.91.05,27-1l-5.37,6.32,3.34,1.7-8.52,3.43,8.94,1.89-2.94,4.27C800,224,778.94,223.5,771,222.49l4.92-6.17-5.26-1.62.77-5.5-7.93,3.42c4.31-19.29,13.78-38.63,23.61-55.39l3,2.62,5.26-3.06-2-6,6.37-.75-1.81-3.32c14.68-2.36,32.39-2.63,43.88-2.4L837,147.84l5.34,3.71Z"/>
          </g>
        </g>
      </g>
    </g>
  </g>
</svg>
